SplineFontDB: 3.2
FontName: ATM440-Regular
FullName: ATM440-Regular
FamilyName: ATM 440
Weight: Book
Copyright: AzhaguThamizh
Version: 1.001
ItalicAngle: -11
UnderlinePosition: -271
UnderlineWidth: 102
Ascent: 1600
Descent: 400
InvalidEm: 0
sfntRevision: 0x00010042
LayerCount: 2
Layer: 0 1 "Back" 1
Layer: 1 1 "Fore" 0
XUID: [1021 192 2086997156 18749]
StyleMap: 0x0040
FSType: 8
OS2Version: 3
OS2_WeightWidthSlopeOnly: 0
OS2_UseTypoMetrics: 0
CreationTime: 1537167956
ModificationTime: 1545660075
PfmFamily: 17
TTFWeight: 400
TTFWidth: 5
LineGap: 0
VLineGap: 0
Panose: 2 11 6 4 2 2 2 2 2 4
OS2TypoAscent: 2000
OS2TypoAOffset: 0
OS2TypoDescent: -1320
OS2TypoDOffset: 0
OS2TypoLinegap: 0
OS2WinAscent: 2000
OS2WinAOffset: 0
OS2WinDescent: 744
OS2WinDOffset: 0
HheadAscent: 2000
HheadAOffset: 0
HheadDescent: -1320
HheadDOffset: 0
OS2SubXSize: 1400
OS2SubYSize: 1300
OS2SubXOff: 0
OS2SubYOff: 0
OS2SupXSize: 1400
OS2SupYSize: 1300
OS2SupXOff: 0
OS2SupYOff: 0
OS2StrikeYSize: 100
OS2StrikeYPos: 518
OS2CapHeight: 1586
OS2XHeight: -200
OS2Vendor: '    '
OS2CodePages: 00000001.00000000
OS2UnicodeRanges: 00100003.00000000.00000000.00000000
Lookup: 4 0 0 "'akhn' Akhand in Tamil2 lookup 0" { "'akhn' Akhand in Tamil2 lookup 0 subtable"  } ['akhn' ('tml2' <'dflt' > ) ]
Lookup: 4 0 0 "'akhn' Akhand in Tamil lookup 1" { "'akhn' Akhand in Tamil lookup 1 subtable"  } ['akhn' ('taml' <'dflt' > ) ]
Lookup: 4 0 0 "'half' Half Forms in Tamil lookup 2" { "'half' Half Forms in Tamil lookup 2 subtable"  } ['half' ('taml' <'dflt' > ) ]
Lookup: 4 0 0 "'haln' Halant Forms in Tamil2 lookup 3" { "'haln' Halant Forms in Tamil2 lookup 3 subtable"  } ['haln' ('tml2' <'dflt' > ) ]
Lookup: 4 0 0 "'haln' Halant Forms in Tamil lookup 4" { "'haln' Halant Forms in Tamil lookup 4 subtable"  } ['haln' ('taml' <'dflt' > ) ]
Lookup: 4 0 0 "'abvs' Above Base Substitutions lookup 5" { "'abvs' Above Base Substitutions lookup 5 subtable"  } ['abvs' ('taml' <'dflt' > 'tml2' <'dflt' > ) ]

StartChar: .notdef
Encoding: 65536 -1 0
Width: 1600
Flags: W
LayerCount: 2
Fore
SplineSet
100 0 m 1,0,-1
 100 1600 l 1,1,-1
 1500 1600 l 1,2,-1
 1500 0 l 1,3,-1
 100 0 l 1,0,-1
1400 100 m 1,4,-1
 1400 1500 l 1,5,-1
 200 1500 l 1,6,-1
 200 100 l 1,7,-1
 1400 100 l 1,4,-1
EndSplineSet
EndChar

StartChar: exclam
Encoding: 33 33 4
Width: 460
GlyphClass: 2
Flags: W
LayerCount: 2
Fore
SplineSet
340 150 m 1,0,-1
 334 132 l 2,1,2
 320 100 320 100 294 100 c 0,3,4
 274 100 274 100 262 118 c 1,5,-1
 250 150 l 1,6,-1
 224 406 l 1,7,-1
 224 1158 l 1,8,-1
 230 1198 l 1,9,10
 248 1238 248 1238 294 1238 c 0,11,12
 346 1238 346 1238 362 1196 c 0,13,14
 368 1180 368 1180 368 1154 c 2,15,-1
 368 406 l 1,16,-1
 340 150 l 1,0,-1
378 -76 m 256,17,18
 378 -112 378 -112 354 -136 c 128,-1,19
 330 -160 330 -160 294 -160 c 256,20,21
 258 -160 258 -160 234 -136 c 128,-1,22
 210 -112 210 -112 210 -76 c 256,23,24
 210 -40 210 -40 234 -16 c 128,-1,25
 258 8 258 8 294 8 c 256,26,27
 330 8 330 8 354 -16 c 128,-1,28
 378 -40 378 -40 378 -76 c 256,17,18
EndSplineSet
EndChar

StartChar: quotedbl
Encoding: 34 34 5
Width: 638
GlyphClass: 2
Flags: W
LayerCount: 2
Fore
SplineSet
126 832 m 1,0,-1
 82 1078 l 1,1,-1
 82 1288 l 1,2,-1
 262 1288 l 1,3,-1
 262 1078 l 1,4,-1
 224 832 l 1,5,-1
 126 832 l 1,0,-1
418 832 m 1,6,-1
 374 1078 l 1,7,-1
 374 1288 l 1,8,-1
 554 1288 l 1,9,-1
 554 1078 l 1,10,-1
 512 832 l 1,11,-1
 418 832 l 1,6,-1
EndSplineSet
EndChar

StartChar: numbersign
Encoding: 35 35 6
Width: 1000
GlyphClass: 2
Flags: W
LayerCount: 2
Fore
SplineSet
90 -22 m 1,0,-1
 168 352 l 1,1,-1
 18 352 l 1,2,-1
 18 484 l 1,3,-1
 192 484 l 1,4,-1
 260 802 l 1,5,-1
 18 802 l 1,6,-1
 18 934 l 1,7,-1
 284 934 l 1,8,-1
 362 1310 l 1,9,-1
 494 1310 l 1,10,-1
 416 934 l 1,11,-1
 692 934 l 1,12,-1
 770 1310 l 1,13,-1
 902 1310 l 1,14,-1
 826 934 l 1,15,-1
 978 934 l 1,16,-1
 978 802 l 1,17,-1
 800 802 l 1,18,-1
 734 484 l 1,19,-1
 978 484 l 1,20,-1
 978 352 l 1,21,-1
 708 352 l 1,22,-1
 632 -22 l 1,23,-1
 498 -22 l 1,24,-1
 574 352 l 1,25,-1
 298 352 l 1,26,-1
 224 -22 l 1,27,-1
 90 -22 l 1,0,-1
326 484 m 1,28,-1
 602 484 l 1,29,-1
 668 802 l 1,30,-1
 390 802 l 1,31,-1
 326 484 l 1,28,-1
EndSplineSet
EndChar

StartChar: dollar
Encoding: 36 36 7
Width: 1070
GlyphClass: 2
Flags: W
LayerCount: 2
Fore
SplineSet
1008 750 m 1,0,-1
 994 712 l 1,1,2
 970 672 970 672 924 672 c 0,3,4
 896 672 896 672 882 676 c 128,-1,5
 868 680 868 680 848 698 c 1,6,-1
 822 730 l 1,7,-1
 824 752 l 2,8,9
 824 796 824 796 814 822 c 0,10,11
 798 868 798 868 754 904 c 0,12,13
 720 928 720 928 666 940 c 1,14,-1
 590 948 l 1,15,-1
 590 614 l 1,16,17
 770 614 770 614 887 544 c 128,-1,18
 1004 474 1004 474 1004 356 c 0,19,20
 1004 240 1004 240 886 176 c 1,21,22
 788 118 788 118 590 100 c 1,23,-1
 590 0 l 2,24,25
 590 -24 590 -24 584 -36 c 0,26,27
 572 -72 572 -72 540 -72 c 0,28,29
 504 -72 504 -72 486 -36 c 1,30,-1
 478 0 l 1,31,-1
 478 102 l 1,32,-1
 420 98 l 1,33,34
 350 98 350 98 293 122 c 128,-1,35
 236 146 236 146 180 188 c 1,36,37
 122 238 122 238 96 300 c 0,38,39
 78 346 78 346 78 396 c 2,40,-1
 78 418 l 1,41,-1
 82 438 l 1,42,-1
 90 456 l 1,43,44
 104 474 104 474 138 478 c 0,45,46
 162 478 162 478 172 468 c 128,-1,47
 182 458 182 458 190 434 c 1,48,-1
 188 410 l 2,49,50
 188 368 188 368 200 328 c 128,-1,51
 212 288 212 288 255 257 c 128,-1,52
 298 226 298 226 356 214 c 0,53,54
 410 206 410 206 431 205 c 128,-1,55
 452 204 452 204 478 204 c 1,56,-1
 478 524 l 1,57,-1
 440 524 l 2,58,59
 302 524 302 524 218 562 c 0,60,61
 78 622 78 622 78 782 c 0,62,63
 78 910 78 910 192 982 c 128,-1,64
 306 1054 306 1054 478 1054 c 1,65,-1
 478 1158 l 1,66,-1
 488 1192 l 1,67,68
 506 1228 506 1228 540 1228 c 0,69,70
 568 1228 568 1228 582 1194 c 1,71,-1
 590 1158 l 1,72,-1
 590 1052 l 1,73,74
 624 1052 624 1052 653 1048 c 128,-1,75
 682 1044 682 1044 730 1032 c 0,76,77
 846 1004 846 1004 898 956 c 0,78,79
 996 866 996 866 1008 784 c 1,80,-1
 1008 750 l 1,0,-1
478 624 m 1,81,-1
 478 948 l 1,82,83
 384 948 384 948 318 930 c 0,84,85
 186 894 186 894 186 782 c 0,86,87
 186 688 186 688 276 648 c 0,88,89
 342 622 342 622 432 622 c 2,90,-1
 478 624 l 1,81,-1
782 360 m 0,91,92
 782 440 782 440 702 482 c 0,93,94
 646 510 646 510 590 510 c 1,95,-1
 590 204 l 1,96,97
 656 204 656 204 720 250 c 1,98,99
 782 300 782 300 782 360 c 0,91,92
EndSplineSet
EndChar

StartChar: percent
Encoding: 37 37 8
Width: 1580
GlyphClass: 2
Flags: W
LayerCount: 2
Fore
SplineSet
742 838 m 0,0,1
 742 714 742 714 635 629 c 128,-1,2
 528 544 528 544 398 544 c 0,3,4
 274 544 274 544 186 628 c 1,5,6
 104 714 104 714 104 844 c 0,7,8
 104 970 104 970 185 1058 c 128,-1,9
 266 1146 266 1146 398 1146 c 0,10,11
 540 1146 540 1146 636 1070 c 0,12,13
 742 986 742 986 742 838 c 0,0,1
1210 1160 m 1,14,-1
 556 2 l 2,15,16
 548 -20 548 -20 536 -30 c 0,17,18
 506 -64 506 -64 462 -64 c 0,19,20
 436 -64 436 -64 425 -56 c 128,-1,21
 414 -48 414 -48 414 -30 c 0,22,23
 414 -16 414 -16 418 -8 c 2,24,-1
 426 8 l 1,25,-1
 1090 1156 l 1,26,-1
 1096 1178 l 1,27,28
 1120 1230 1120 1230 1180 1230 c 0,29,30
 1220 1230 1220 1230 1220 1196 c 2,31,-1
 1218 1176 l 1,32,-1
 1210 1160 l 1,14,-1
1538 310 m 0,33,34
 1538 186 1538 186 1431 101 c 128,-1,35
 1324 16 1324 16 1194 16 c 0,36,37
 1070 16 1070 16 982 100 c 1,38,39
 900 186 900 186 900 316 c 0,40,41
 900 442 900 442 981 530 c 128,-1,42
 1062 618 1062 618 1194 618 c 0,43,44
 1336 618 1336 618 1432 542 c 0,45,46
 1538 458 1538 458 1538 310 c 0,33,34
540 844 m 0,47,48
 540 924 540 924 504 984 c 0,49,50
 462 1054 462 1054 380 1054 c 0,51,52
 300 1054 300 1054 245 996 c 128,-1,53
 190 938 190 938 190 840 c 0,54,55
 190 752 190 752 244 690 c 128,-1,56
 298 628 298 628 372 628 c 0,57,58
 458 628 458 628 504 700 c 0,59,60
 540 760 540 760 540 844 c 0,47,48
1336 316 m 0,61,62
 1336 396 1336 396 1300 456 c 0,63,64
 1258 526 1258 526 1176 526 c 0,65,66
 1096 526 1096 526 1041 468 c 128,-1,67
 986 410 986 410 986 312 c 0,68,69
 986 224 986 224 1040 162 c 128,-1,70
 1094 100 1094 100 1168 100 c 0,71,72
 1254 100 1254 100 1300 172 c 0,73,74
 1336 232 1336 232 1336 316 c 0,61,62
EndSplineSet
EndChar

StartChar: ampersand
Encoding: 38 38 9
Width: 1120
GlyphClass: 2
Flags: W
LayerCount: 2
Fore
SplineSet
1062 640 m 2,0,-1
 1062 600 l 2,1,2
 1062 576 1062 576 1059 548 c 128,-1,3
 1056 520 1056 520 1028 442 c 0,4,5
 1004 364 1004 364 948 292 c 1,6,7
 914 240 914 240 868 204 c 1,8,-1
 998 40 l 1,9,-1
 1006 30 l 1,10,-1
 1010 14 l 1,11,12
 1010 -10 1010 -10 972 -28 c 1,13,-1
 948 -34 l 1,14,15
 928 -34 928 -34 910 -18 c 1,16,-1
 896 0 l 1,17,-1
 788 136 l 1,18,19
 724 78 724 78 631 39 c 128,-1,20
 538 0 538 0 444 0 c 0,21,22
 294 0 294 0 192 90 c 128,-1,23
 90 180 90 180 90 330 c 0,24,25
 90 448 90 448 206 546 c 1,26,-1
 348 638 l 1,27,-1
 266 734 l 1,28,29
 184 844 184 844 184 916 c 0,30,31
 184 1044 184 1044 280 1110 c 0,32,33
 362 1164 362 1164 494 1164 c 0,34,35
 666 1164 666 1164 774 1080 c 0,36,37
 866 1006 866 1006 866 902 c 0,38,39
 866 820 866 820 776 746 c 128,-1,40
 686 672 686 672 508 614 c 1,41,-1
 798 274 l 1,42,-1
 848 334 l 1,43,44
 884 388 884 388 884 460 c 2,45,-1
 884 510 l 1,46,-1
 882 572 l 2,47,48
 882 598 882 598 872 616 c 1,49,-1
 866 656 l 1,50,51
 866 686 866 686 883 711 c 128,-1,52
 900 736 900 736 926 742 c 2,53,-1
 968 748 l 1,54,55
 1014 748 1014 748 1042 706 c 0,56,57
 1062 672 1062 672 1062 640 c 2,0,-1
654 902 m 0,58,59
 654 966 654 966 605 1014 c 128,-1,60
 556 1062 556 1062 482 1062 c 0,61,62
 398 1062 398 1062 344 1020 c 128,-1,63
 290 978 290 978 290 914 c 0,64,65
 290 888 290 888 344 810 c 0,66,67
 366 780 366 780 389 750 c 128,-1,68
 412 720 412 720 438 690 c 1,69,70
 536 720 536 720 600 796 c 0,71,72
 654 856 654 856 654 902 c 0,58,59
726 206 m 1,73,-1
 422 564 l 1,74,75
 334 518 334 518 294 492 c 0,76,77
 190 412 190 412 190 322 c 0,78,79
 190 226 190 226 264 161 c 128,-1,80
 338 96 338 96 442 96 c 0,81,82
 540 96 540 96 632 142 c 0,83,84
 694 172 694 172 726 206 c 1,73,-1
EndSplineSet
EndChar

StartChar: quotesingle
Encoding: 39 39 10
Width: 500
GlyphClass: 2
Flags: W
LayerCount: 2
Fore
SplineSet
378 1136 m 0,0,1
 410 1098 410 1098 410 1032 c 0,2,3
 410 994 410 994 401 962 c 128,-1,4
 392 930 392 930 388 914 c 128,-1,5
 384 898 384 898 373 874 c 128,-1,6
 362 850 362 850 350 824 c 128,-1,7
 338 798 338 798 314 756 c 2,8,-1
 284 704 l 1,9,-1
 272 692 l 1,10,-1
 254 688 l 1,11,12
 236 694 236 694 225 700 c 128,-1,13
 214 706 214 706 214 722 c 0,14,15
 214 728 214 728 218 740 c 2,16,-1
 244 778 l 1,17,-1
 272 834 l 1,18,-1
 302 908 l 1,19,-1
 306 922 l 1,20,-1
 282 912 l 2,21,22
 268 908 268 908 255 906 c 128,-1,23
 242 904 242 904 224 902 c 2,24,-1
 192 904 l 1,25,-1
 162 918 l 1,26,27
 108 952 108 952 108 1024 c 0,28,29
 108 1092 108 1092 154 1138 c 0,30,31
 172 1156 172 1156 204 1169 c 128,-1,32
 236 1182 236 1182 266 1182 c 0,33,34
 338 1182 338 1182 378 1136 c 0,0,1
EndSplineSet
EndChar

StartChar: parenleft
Encoding: 40 40 11
Width: 520
GlyphClass: 2
Flags: W
LayerCount: 2
Fore
SplineSet
444 8 m 2,0,-1
 450 -6 l 1,1,-1
 452 -30 l 2,2,3
 452 -54 452 -54 432 -66 c 1,4,-1
 418 -70 l 1,5,-1
 410 -70 l 2,6,7
 390 -70 390 -70 368 -54 c 2,8,-1
 350 -38 l 2,9,10
 340 -26 340 -26 332 -16 c 0,11,12
 306 16 306 16 280 52 c 0,13,14
 206 156 206 156 150 282 c 0,15,16
 80 446 80 446 80 586 c 0,17,18
 80 734 80 734 152 900 c 0,19,20
 178 962 178 962 210 1018 c 128,-1,21
 242 1074 242 1074 288 1134 c 0,22,23
 318 1174 318 1174 350 1210 c 0,24,25
 354 1214 354 1214 362 1224 c 2,26,-1
 370 1230 l 2,27,28
 390 1242 390 1242 410 1246 c 0,29,30
 416 1244 416 1244 421 1242 c 128,-1,31
 426 1240 426 1240 436 1233 c 128,-1,32
 446 1226 446 1226 448 1196 c 1,33,-1
 446 1180 l 1,34,-1
 444 1166 l 1,35,36
 438 1160 438 1160 434 1156 c 0,37,38
 410 1130 410 1130 372 1082 c 0,39,40
 292 976 292 976 236 868 c 0,41,42
 164 720 164 720 164 590 c 256,43,44
 164 460 164 460 236 306 c 0,45,46
 284 202 284 202 372 92 c 0,47,48
 400 56 400 56 434 20 c 0,49,50
 438 16 438 16 444 8 c 2,0,-1
EndSplineSet
EndChar

StartChar: parenright
Encoding: 41 41 12
Width: 520
GlyphClass: 2
Flags: W
LayerCount: 2
Fore
SplineSet
476 586 m 0,0,1
 476 512 476 512 460 441 c 128,-1,2
 444 370 444 370 406 282 c 0,3,4
 354 164 354 164 276 54 c 0,5,6
 214 -36 214 -36 206 -38 c 2,7,-1
 188 -54 l 2,8,9
 170 -66 170 -66 146 -70 c 1,10,-1
 122 -64 l 2,11,12
 114 -62 114 -62 108 -50 c 2,13,-1
 104 -28 l 1,14,-1
 106 -8 l 1,15,-1
 112 8 l 1,16,17
 122 20 122 20 130 28 c 0,18,19
 166 66 166 66 184 90 c 0,20,21
 266 194 266 194 320 304 c 0,22,23
 392 454 392 454 392 590 c 0,24,25
 392 772 392 772 252 986 c 0,26,27
 204 1062 204 1062 112 1166 c 1,28,-1
 108 1196 l 2,29,30
 108 1222 108 1222 121 1234 c 128,-1,31
 134 1246 134 1246 146 1246 c 0,32,33
 164 1246 164 1246 177 1237 c 128,-1,34
 190 1228 190 1228 195 1222 c 128,-1,35
 200 1216 200 1216 204 1212 c 0,36,37
 234 1180 234 1180 266 1134 c 0,38,39
 340 1028 340 1028 402 900 c 1,40,41
 476 728 476 728 476 586 c 0,0,1
EndSplineSet
EndChar

StartChar: asterisk
Encoding: 42 42 13
Width: 656
GlyphClass: 2
Flags: W
LayerCount: 2
Fore
SplineSet
584 1012 m 2,0,-1
 590 974 l 1,1,-1
 588 950 l 1,2,-1
 582 936 l 1,3,-1
 424 890 l 1,4,-1
 544 788 l 1,5,-1
 538 746 l 2,6,7
 532 730 532 730 513 717 c 128,-1,8
 494 704 494 704 466 700 c 1,9,-1
 432 700 l 1,10,-1
 330 822 l 1,11,-1
 234 696 l 1,12,13
 216 696 216 696 208 700 c 0,14,15
 178 706 178 706 159 720 c 128,-1,16
 140 734 140 734 122 766 c 1,17,-1
 116 782 l 1,18,-1
 234 890 l 1,19,-1
 74 942 l 1,20,-1
 68 978 l 2,21,22
 68 998 68 998 77 1022 c 128,-1,23
 86 1046 86 1046 112 1070 c 1,24,-1
 124 1078 l 1,25,-1
 258 1012 l 1,26,-1
 258 1178 l 1,27,-1
 274 1190 l 1,28,29
 298 1202 298 1202 330 1202 c 0,30,31
 356 1202 356 1202 386 1186 c 2,32,-1
 398 1178 l 1,33,-1
 398 1010 l 1,34,-1
 536 1068 l 1,35,-1
 554 1056 l 2,36,37
 576 1038 576 1038 584 1012 c 2,0,-1
EndSplineSet
EndChar

StartChar: plus
Encoding: 43 43 14
Width: 920
GlyphClass: 2
Flags: W
LayerCount: 2
Fore
SplineSet
856 538 m 0,0,1
 856 508 856 508 832 492 c 1,2,-1
 806 484 l 1,3,-1
 590 484 l 1,4,-1
 590 222 l 1,5,6
 578 196 578 196 564 182 c 0,7,8
 528 142 528 142 462 142 c 0,9,10
 404 142 404 142 364 182 c 1,11,-1
 336 222 l 1,12,-1
 336 484 l 1,13,-1
 110 484 l 1,14,15
 90 488 90 488 79 498 c 128,-1,16
 68 508 68 508 64 540 c 1,17,18
 64 574 64 574 86 588 c 1,19,-1
 110 596 l 1,20,-1
 336 596 l 1,21,-1
 336 862 l 1,22,-1
 364 894 l 1,23,24
 408 928 408 928 464 928 c 0,25,26
 518 928 518 928 558 896 c 1,27,-1
 590 862 l 1,28,-1
 590 596 l 1,29,-1
 806 596 l 2,30,31
 830 596 830 596 838 586 c 0,32,33
 856 570 856 570 856 538 c 0,0,1
EndSplineSet
EndChar

StartChar: comma
Encoding: 44 44 15
Width: 500
GlyphClass: 2
Flags: W
LayerCount: 2
Fore
SplineSet
378 196 m 0,0,1
 410 158 410 158 410 92 c 0,2,3
 410 54 410 54 401 22 c 128,-1,4
 392 -10 392 -10 388 -26 c 128,-1,5
 384 -42 384 -42 373 -66 c 128,-1,6
 362 -90 362 -90 350 -116 c 128,-1,7
 338 -142 338 -142 314 -184 c 2,8,-1
 284 -236 l 1,9,-1
 272 -246 l 2,10,11
 266 -252 266 -252 254 -252 c 0,12,13
 236 -246 236 -246 225 -240 c 128,-1,14
 214 -234 214 -234 214 -218 c 0,15,16
 214 -212 214 -212 218 -200 c 2,17,-1
 244 -162 l 1,18,-1
 272 -106 l 1,19,-1
 302 -32 l 1,20,-1
 306 -18 l 1,21,-1
 282 -28 l 2,22,23
 248 -38 248 -38 224 -38 c 0,24,25
 202 -38 202 -38 192 -34 c 1,26,27
 180 -34 180 -34 162 -22 c 0,28,29
 108 12 108 12 108 84 c 0,30,31
 108 152 108 152 154 198 c 0,32,33
 172 216 172 216 204 229 c 128,-1,34
 236 242 236 242 266 242 c 0,35,36
 338 242 338 242 378 196 c 0,0,1
EndSplineSet
EndChar

StartChar: hyphen
Encoding: 45 45 16
Width: 600
GlyphClass: 2
Flags: W
LayerCount: 2
Fore
SplineSet
58 386 m 1,0,-1
 58 546 l 1,1,-1
 544 546 l 1,2,-1
 544 386 l 1,3,-1
 58 386 l 1,0,-1
EndSplineSet
EndChar

StartChar: period
Encoding: 46 46 17
Width: 540
GlyphClass: 2
Flags: W
LayerCount: 2
Fore
SplineSet
456 74 m 0,0,1
 456 10 456 10 408 -40 c 128,-1,2
 360 -90 360 -90 290 -90 c 256,3,4
 220 -90 220 -90 172 -44 c 128,-1,5
 124 2 124 2 124 74 c 0,6,7
 124 140 124 140 172 190 c 128,-1,8
 220 240 220 240 290 240 c 0,9,10
 356 240 356 240 406 192 c 128,-1,11
 456 144 456 144 456 74 c 0,0,1
EndSplineSet
EndChar

StartChar: slash
Encoding: 47 47 18
Width: 620
GlyphClass: 2
Flags: W
LayerCount: 2
Fore
SplineSet
576 1158 m 1,0,-1
 238 2 l 1,1,-1
 214 -30 l 1,2,3
 176 -64 176 -64 124 -64 c 0,4,5
 94 -64 94 -64 86 -42 c 1,6,-1
 82 0 l 1,7,-1
 426 1158 l 1,8,-1
 448 1184 l 1,9,10
 480 1210 480 1210 526 1210 c 0,11,12
 560 1210 560 1210 572 1184 c 1,13,-1
 576 1158 l 1,0,-1
EndSplineSet
EndChar

StartChar: zero
Encoding: 48 48 19
Width: 953
GlyphClass: 2
Flags: W
LayerCount: 2
Fore
SplineSet
852 557 m 0,0,1
 852 204 852 204 718 85 c 1,2,3
 624 -4 624 -4 381 -4 c 0,4,5
 225 -4 225 -4 145 170 c 0,6,7
 85 309 85 309 85 524 c 0,8,9
 85 758 85 758 156 905 c 0,10,11
 243 1092 243 1092 419 1092 c 0,12,13
 688 1092 688 1092 779 945 c 0,14,15
 852 823 852 823 852 557 c 0,0,1
566 554 m 0,16,17
 566 758 566 758 541 848 c 0,18,19
 501 1010 501 1010 396 1010 c 0,20,21
 278 1010 278 1010 221 840 c 0,22,23
 180 712 180 712 180 526 c 0,24,25
 180 434 180 434 189.5 366.5 c 128,-1,26
 199 299 199 299 221 237 c 0,27,28
 276 81 276 81 385 81 c 0,29,30
 492 81 492 81 539 247 c 0,31,32
 566 354 566 354 566 554 c 0,16,17
EndSplineSet
EndChar

StartChar: one
Encoding: 49 49 20
Width: 690
GlyphClass: 2
Flags: W
LayerCount: 2
Fore
SplineSet
610 68 m 1,0,-1
 581 28 l 1,1,2
 540 -11 540 -11 485 -11 c 0,3,4
 422 -11 422 -11 377 26 c 1,5,-1
 345 63 l 1,6,-1
 345 884 l 1,7,8
 335 876 335 876 295 854 c 1,9,-1
 233 831 l 1,10,-1
 171 814 l 1,11,-1
 117 811 l 1,12,13
 68 816 68 816 63 845 c 1,14,15
 63 875 63 875 85 884 c 1,16,-1
 115 886 l 2,17,18
 141 886 141 886 165.5 893 c 128,-1,19
 190 900 190 900 199.5 903.5 c 128,-1,20
 209 907 209 907 231 919 c 2,21,-1
 313 964 l 1,22,23
 349 989 349 989 360 1021 c 2,24,-1
 370 1052 l 1,25,-1
 396 1073 l 1,26,27
 436 1097 436 1097 485 1097 c 0,28,29
 549 1097 549 1097 583 1072 c 0,30,31
 595 1067 595 1067 610 1042 c 1,32,-1
 610 68 l 1,0,-1
EndSplineSet
EndChar

StartChar: two
Encoding: 50 50 21
Width: 840
GlyphClass: 2
Flags: W
LayerCount: 2
Fore
SplineSet
771 758 m 0,0,1
 771 581 771 581 598 477 c 1,2,3
 501 441 501 441 450.5 419.5 c 128,-1,4
 400 398 400 398 379 388 c 0,5,6
 267 332 267 332 221 259 c 1,7,8
 181 204 181 204 181 106 c 1,9,-1
 711 106 l 2,10,11
 728 106 728 106 733 99 c 1,12,13
 758 89 758 89 758 53 c 0,14,15
 758 21 758 21 735 6 c 1,16,-1
 712 0 l 1,17,-1
 77 0 l 1,18,-1
 77 40 l 1,19,-1
 76 76 l 2,20,21
 76 164 76 164 117 252 c 0,22,23
 181 385 181 385 343 482 c 0,24,25
 420 524 420 524 472 597.5 c 128,-1,26
 524 671 524 671 524 773 c 0,27,28
 524 869 524 869 487 928 c 0,29,30
 442 995 442 995 356 995 c 0,31,32
 282 995 282 995 225 931 c 0,33,34
 170 867 170 867 170 775 c 0,35,36
 170 762 170 762 170 752.5 c 128,-1,37
 170 743 170 743 177.5 712.5 c 128,-1,38
 185 682 185 682 194 671 c 2,39,-1
 211 642 l 1,40,-1
 218 617 l 2,41,42
 218 605 218 605 204 586 c 1,43,44
 192 578 192 578 177 573 c 1,45,46
 162 573 162 573 144 585 c 0,47,48
 137 586 137 586 128 598 c 2,49,-1
 113 621 l 2,50,51
 77 678 77 678 77 773 c 0,52,53
 77 936 77 936 190 1023 c 0,54,55
 276 1092 276 1092 383 1092 c 0,56,57
 537 1092 537 1092 638 1029 c 0,58,59
 771 943 771 943 771 758 c 0,0,1
EndSplineSet
EndChar

StartChar: three
Encoding: 51 51 22
Width: 840
GlyphClass: 2
Flags: W
LayerCount: 2
Fore
SplineSet
767 364 m 0,0,1
 767 147 767 147 640 62 c 0,2,3
 547 0 547 0 356 0 c 0,4,5
 225 0 225 0 148.5 99.5 c 128,-1,6
 72 199 72 199 72 351 c 2,7,-1
 72 381 l 1,8,-1
 79 408 l 1,9,10
 94 436 94 436 127 436 c 0,11,12
 153 436 153 436 170 411 c 1,13,-1
 180 388 l 1,14,-1
 180 343 l 2,15,16
 180 242 180 242 214 175 c 1,17,18
 262 96 262 96 352 96 c 0,19,20
 449 96 449 96 488 187 c 0,21,22
 503 221 503 221 511.5 266 c 128,-1,23
 520 311 520 311 520 364 c 0,24,25
 520 456 520 456 487 511 c 0,26,27
 446 586 446 586 358 586 c 2,28,-1
 269 586 l 1,29,-1
 250 597 l 1,30,31
 235 612 235 612 240 641 c 0,32,33
 243 657 243 657 256 671 c 2,34,-1
 267 684 l 1,35,-1
 543 985 l 1,36,-1
 123 985 l 1,37,-1
 96 995 l 2,38,39
 70 1008 70 1008 70 1037 c 0,40,41
 70 1072 70 1072 96 1086 c 1,42,-1
 123 1092 l 1,43,-1
 678 1092 l 2,44,45
 693 1092 693 1092 697 1089 c 0,46,47
 718 1078 718 1078 718 1054 c 0,48,49
 718 1040 718 1040 709 1017 c 1,50,-1
 694 1000 l 1,51,-1
 403 682 l 1,52,53
 543 682 543 682 638 622 c 0,54,55
 767 539 767 539 767 364 c 0,0,1
EndSplineSet
EndChar

StartChar: four
Encoding: 52 52 23
Width: 934
GlyphClass: 2
Flags: W
LayerCount: 2
Fore
SplineSet
905 290 m 0,0,1
 905 264 905 264 883 247 c 1,2,-1
 859 240 l 1,3,-1
 760 240 l 1,4,-1
 760 72 l 2,5,6
 760 59 760 59 754 47 c 0,7,8
 724 -11 724 -11 629 -11 c 0,9,10
 557 -11 557 -11 516 30 c 0,11,12
 507 40 507 40 494 72 c 1,13,-1
 494 240 l 1,14,-1
 135 240 l 2,15,16
 84 240 84 240 76 265 c 2,17,-1
 68 303 l 2,18,19
 68 315 68 315 82 341 c 2,20,-1
 526 1063 l 1,21,22
 541 1078 541 1078 549 1086 c 0,23,24
 586 1106 586 1106 638 1106 c 0,25,26
 688 1106 688 1106 731 1078 c 0,27,28
 746 1072 746 1072 760 1054 c 1,29,-1
 760 347 l 1,30,-1
 859 347 l 1,31,-1
 871 345 l 1,32,33
 905 333 905 333 905 290 c 0,0,1
494 347 m 1,34,-1
 494 823 l 1,35,-1
 202 347 l 1,36,-1
 494 347 l 1,34,-1
EndSplineSet
EndChar

StartChar: five
Encoding: 53 53 24
Width: 821
GlyphClass: 2
Flags: W
LayerCount: 2
Fore
SplineSet
746 377 m 0,0,1
 746 185 746 185 636 87 c 0,2,3
 539 -4 539 -4 360 -4 c 0,4,5
 257 -4 257 -4 183.5 53.5 c 128,-1,6
 110 111 110 111 74 228 c 2,7,-1
 66 256 l 1,8,-1
 66 284 l 2,9,10
 66 301 66 301 89 313 c 1,11,-1
 117 318 l 2,12,13
 134 318 134 318 145 309 c 2,14,-1
 154 298 l 1,15,-1
 166 264 l 2,16,17
 192 183 192 183 226 147 c 0,18,19
 271 99 271 99 333 99 c 0,20,21
 427 99 427 99 468 192 c 0,22,23
 494 254 494 254 494 375 c 0,24,25
 494 532 494 532 449.5 593 c 128,-1,26
 405 654 405 654 328 654 c 0,27,28
 278 654 278 654 242.5 623.5 c 128,-1,29
 207 593 207 593 190 541 c 2,30,-1
 183 516 l 1,31,-1
 171 494 l 2,32,33
 158 471 158 471 128 475 c 0,34,35
 96 480 96 480 91 501 c 2,36,-1
 89 535 l 1,37,-1
 180 1092 l 1,38,-1
 646 1092 l 1,39,-1
 671 1082 l 1,40,41
 694 1067 694 1067 694 1037 c 0,42,43
 694 1006 694 1006 663 993 c 2,44,-1
 646 985 l 1,45,-1
 264 985 l 1,46,-1
 219 699 l 1,47,48
 247 731 247 731 295 748 c 128,-1,49
 343 765 343 765 392 765 c 0,50,51
 554 765 554 765 650 660.5 c 128,-1,52
 746 556 746 556 746 377 c 0,0,1
EndSplineSet
EndChar

StartChar: six
Encoding: 54 54 25
Width: 840
GlyphClass: 2
Flags: W
LayerCount: 2
Fore
SplineSet
767 370 m 0,0,1
 767 179 767 179 644 79 c 0,2,3
 545 -6 545 -6 377 -6 c 0,4,5
 214 -6 214 -6 132 175 c 0,6,7
 72 315 72 315 72 540 c 0,8,9
 72 780 72 780 180 936 c 128,-1,10
 288 1092 288 1092 454 1092 c 0,11,12
 600 1092 600 1092 692 968 c 0,13,14
 720 929 720 929 748 847 c 1,15,-1
 752 818 l 2,16,17
 752 790 752 790 722 775 c 0,18,19
 712 771 712 771 705 771 c 0,20,21
 686 771 686 771 671 794 c 2,22,-1
 659 811 l 1,23,24
 638 878 638 878 619 905 c 0,25,26
 557 1001 557 1001 444 1001 c 0,27,28
 326 1001 326 1001 245 869 c 0,29,30
 171 752 171 752 171 605 c 1,31,32
 197 659 197 659 256 695 c 1,33,34
 322 741 322 741 419 741 c 0,35,36
 585 741 585 741 680 627 c 0,37,38
 767 526 767 526 767 370 c 0,0,1
524 362 m 0,39,40
 524 460 524 460 490 541 c 0,41,42
 451 629 451 629 381 629 c 0,43,44
 288 629 288 629 228 549 c 0,45,46
 181 484 181 484 181 437 c 2,47,-1
 180 411 l 2,48,49
 180 354 180 354 193 301 c 128,-1,50
 206 248 206 248 233 192 c 0,51,52
 288 85 288 85 371 85 c 0,53,54
 441 85 441 85 487 177 c 1,55,56
 524 261 524 261 524 362 c 0,39,40
EndSplineSet
EndChar

StartChar: seven
Encoding: 55 55 26
Width: 830
GlyphClass: 2
Flags: W
LayerCount: 2
Fore
SplineSet
762 686 m 2,0,1
 762 617 762 617 616 550 c 1,2,3
 526 514 526 514 470 458 c 0,4,5
 424 413 424 413 400 351 c 0,6,7
 390 322 390 322 388 309 c 0,8,9
 379 273 379 273 379 231 c 2,10,-1
 379 47 l 1,11,12
 371 42 371 42 352 25.5 c 128,-1,13
 333 9 333 9 328 6 c 0,14,15
 282 -15 282 -15 242 -15 c 0,16,17
 180 -15 180 -15 130 25 c 1,18,-1
 113 43 l 1,19,-1
 113 221 l 2,20,21
 113 307 113 307 185 371 c 1,22,23
 218 394 218 394 252 417 c 0,24,25
 262 424 262 424 335 468 c 0,26,27
 441 530 441 530 473 600 c 0,28,29
 496 642 496 642 496 748 c 2,30,-1
 496 912 l 2,31,32
 496 951 496 951 486.5 964.5 c 128,-1,33
 477 978 477 978 463 983 c 1,34,-1
 419 985 l 1,35,-1
 118 985 l 2,36,37
 98 987 98 987 84 998.5 c 128,-1,38
 70 1010 70 1010 66 1037 c 1,39,40
 66 1069 66 1069 93 1086 c 1,41,-1
 118 1092 l 1,42,-1
 604 1092 l 2,43,44
 633 1092 633 1092 654 1088 c 0,45,46
 709 1073 709 1073 727 1051 c 128,-1,47
 745 1029 745 1029 755 999.5 c 128,-1,48
 765 970 765 970 765 938 c 2,49,-1
 765 919 l 2,50,51
 763 909 763 909 762 907 c 2,52,-1
 762 686 l 2,0,1
EndSplineSet
EndChar

StartChar: eight
Encoding: 56 56 27
Width: 811
GlyphClass: 2
Flags: W
LayerCount: 2
Fore
SplineSet
741 299 m 0,0,1
 741 113 741 113 604 40 c 0,2,3
 514 -6 514 -6 351 -6 c 0,4,5
 231 -6 231 -6 154 74 c 0,6,7
 72 160 72 160 72 322 c 0,8,9
 72 420 72 420 118 499 c 128,-1,10
 164 578 164 578 204 578 c 1,11,12
 156 595 156 595 117 658 c 1,13,14
 81 726 81 726 81 803 c 0,15,16
 81 921 81 921 164.5 1005 c 128,-1,17
 248 1089 248 1089 358 1089 c 0,18,19
 568 1089 568 1089 658 1002 c 1,20,21
 733 936 733 936 733 804 c 0,22,23
 733 712 733 712 687 654.5 c 128,-1,24
 641 597 641 597 554 571 c 1,25,26
 590 560 590 560 615.5 546 c 128,-1,27
 641 532 641 532 665 509 c 0,28,29
 741 434 741 434 741 299 c 0,0,1
485 811 m 0,30,31
 485 888 485 888 452.5 942.5 c 128,-1,32
 420 997 420 997 351 997 c 0,33,34
 264 997 264 997 219 929 c 0,35,36
 183 880 183 880 183 803 c 256,37,38
 183 726 183 726 228 670 c 128,-1,39
 273 614 273 614 341 614 c 0,40,41
 408 614 408 614 451 678 c 1,42,43
 485 737 485 737 485 811 c 0,30,31
485 307 m 0,44,45
 485 411 485 411 447 471 c 0,46,47
 413 532 413 532 341 532 c 0,48,49
 262 532 262 532 219.5 473.5 c 128,-1,50
 177 415 177 415 177 322 c 0,51,52
 177 213 177 213 222 149 c 128,-1,53
 267 85 267 85 339 85 c 0,54,55
 415 85 415 85 450 152 c 128,-1,56
 485 219 485 219 485 307 c 0,44,45
EndSplineSet
EndChar

StartChar: nine
Encoding: 57 57 28
Width: 840
GlyphClass: 2
Flags: W
LayerCount: 2
Fore
SplineSet
775 543 m 0,0,1
 775 235 775 235 648 101 c 0,2,3
 545 -10 545 -10 354 -10 c 0,4,5
 206 -10 206 -10 130 113 c 0,6,7
 106 154 106 154 91 237 c 2,8,-1
 87 262 l 1,9,10
 87 297 87 297 115 307 c 0,11,12
 125 311 125 311 130 311 c 0,13,14
 149 311 149 311 164 288 c 0,15,16
 170 276 170 276 173 271 c 0,17,18
 183 223 183 223 186.5 211.5 c 128,-1,19
 190 200 190 200 202 175 c 0,20,21
 247 79 247 79 343 79 c 0,22,23
 442 79 442 79 494 206 c 0,24,25
 532 298 532 298 532 463 c 1,26,27
 509 425 509 425 465 392 c 0,28,29
 403 352 403 352 324 352 c 0,30,31
 218 352 218 352 145 452 c 128,-1,32
 72 552 72 552 72 712 c 0,33,34
 72 892 72 892 180 1004 c 0,35,36
 269 1099 269 1099 381 1099 c 0,37,38
 608 1099 608 1099 705 909 c 0,39,40
 775 771 775 771 775 543 c 0,0,1
524 641 m 1,41,-1
 526 665 l 1,42,-1
 526 690 l 2,43,44
 526 804 526 804 490 892 c 0,45,46
 449 998 449 998 364 998 c 0,47,48
 286 998 286 998 226 904.5 c 128,-1,49
 166 811 166 811 166 712 c 0,50,51
 166 614 166 614 209 528 c 1,52,53
 256 446 256 446 324 446 c 0,54,55
 417 446 417 446 477 528 c 0,56,57
 524 591 524 591 524 641 c 1,41,-1
EndSplineSet
EndChar

StartChar: colon
Encoding: 58 58 29
Width: 530
GlyphClass: 2
Flags: W
LayerCount: 2
Fore
SplineSet
446 754 m 0,0,1
 446 690 446 690 398 640 c 128,-1,2
 350 590 350 590 280 590 c 256,3,4
 210 590 210 590 162 636 c 128,-1,5
 114 682 114 682 114 754 c 0,6,7
 114 820 114 820 162 870 c 128,-1,8
 210 920 210 920 280 920 c 0,9,10
 346 920 346 920 396 872 c 128,-1,11
 446 824 446 824 446 754 c 0,0,1
446 74 m 0,12,13
 446 10 446 10 398 -40 c 128,-1,14
 350 -90 350 -90 280 -90 c 256,15,16
 210 -90 210 -90 162 -44 c 128,-1,17
 114 2 114 2 114 74 c 0,18,19
 114 140 114 140 162 190 c 128,-1,20
 210 240 210 240 280 240 c 0,21,22
 346 240 346 240 396 192 c 128,-1,23
 446 144 446 144 446 74 c 0,12,13
EndSplineSet
EndChar

StartChar: semicolon
Encoding: 59 59 30
Width: 530
GlyphClass: 2
Flags: W
LayerCount: 2
Fore
SplineSet
446 754 m 0,0,1
 446 690 446 690 398 640 c 128,-1,2
 350 590 350 590 280 590 c 256,3,4
 210 590 210 590 162 636 c 128,-1,5
 114 682 114 682 114 754 c 0,6,7
 114 820 114 820 162 870 c 128,-1,8
 210 920 210 920 280 920 c 0,9,10
 346 920 346 920 396 872 c 128,-1,11
 446 824 446 824 446 754 c 0,0,1
398 194 m 0,12,13
 430 156 430 156 430 86 c 0,14,15
 430 34 430 34 422 6 c 128,-1,16
 414 -22 414 -22 409 -37 c 128,-1,17
 404 -52 404 -52 392 -76 c 2,18,-1
 304 -246 l 1,19,-1
 292 -256 l 2,20,21
 286 -262 286 -262 274 -262 c 0,22,23
 256 -256 256 -256 245 -250 c 128,-1,24
 234 -244 234 -244 234 -228 c 0,25,26
 234 -222 234 -222 238 -210 c 2,27,-1
 290 -122 l 1,28,-1
 316 -60 l 1,29,-1
 322 -42 l 1,30,-1
 300 -50 l 1,31,-1
 244 -60 l 1,32,33
 216 -60 216 -60 208 -57 c 128,-1,34
 200 -54 200 -54 196 -53 c 128,-1,35
 192 -52 192 -52 178 -42 c 0,36,37
 120 -2 120 -2 120 74 c 0,38,39
 120 146 120 146 170 195 c 128,-1,40
 220 244 220 244 284 244 c 0,41,42
 356 244 356 244 398 194 c 0,12,13
EndSplineSet
EndChar

StartChar: less
Encoding: 60 60 31
Width: 1120
GlyphClass: 2
Flags: W
LayerCount: 2
Fore
SplineSet
1036 1090 m 0,0,1
 1036 1056 1036 1056 992 1024 c 1,2,-1
 970 1012 l 1,3,-1
 326 648 l 1,4,-1
 920 310 l 2,5,6
 956 292 956 292 972 276 c 0,7,8
 1026 222 1026 222 1026 134 c 0,9,10
 1026 58 1026 58 1003 29 c 128,-1,11
 980 0 980 0 946 0 c 2,12,-1
 920 2 l 1,13,-1
 902 10 l 1,14,-1
 96 516 l 1,15,-1
 80 532 l 1,16,17
 62 556 62 556 62 580 c 0,18,19
 62 612 62 612 92 642 c 1,20,-1
 106 652 l 1,21,-1
 974 1154 l 1,22,-1
 1010 1150 l 2,23,24
 1036 1150 1036 1150 1036 1090 c 0,0,1
EndSplineSet
EndChar

StartChar: equal
Encoding: 61 61 32
Width: 850
GlyphClass: 2
Flags: W
LayerCount: 2
Fore
SplineSet
782 770 m 0,0,1
 782 738 782 738 752 714 c 1,2,-1
 738 706 l 1,3,-1
 112 706 l 1,4,-1
 90 720 l 2,5,6
 68 738 68 738 68 774 c 0,7,8
 68 806 68 806 98 830 c 1,9,-1
 112 838 l 1,10,-1
 738 838 l 1,11,-1
 760 824 l 1,12,13
 778 806 778 806 782 770 c 0,0,1
782 424 m 0,14,15
 782 392 782 392 752 368 c 1,16,-1
 738 360 l 1,17,-1
 112 360 l 1,18,-1
 90 374 l 2,19,20
 68 392 68 392 68 428 c 0,21,22
 68 460 68 460 98 484 c 1,23,-1
 112 492 l 1,24,-1
 738 492 l 1,25,-1
 760 478 l 1,26,27
 778 460 778 460 782 424 c 0,14,15
EndSplineSet
EndChar

StartChar: greater
Encoding: 62 62 33
Width: 1120
GlyphClass: 2
Flags: W
LayerCount: 2
Fore
SplineSet
1056 580 m 0,0,1
 1056 548 1056 548 1026 518 c 1,2,-1
 1012 508 l 1,3,-1
 144 6 l 1,4,-1
 126 6 l 1,5,6
 82 12 82 12 82 70 c 0,7,8
 82 104 82 104 126 136 c 1,9,-1
 148 148 l 1,10,-1
 792 512 l 1,11,-1
 198 850 l 2,12,13
 162 868 162 868 146 884 c 0,14,15
 92 938 92 938 92 1026 c 0,16,17
 92 1104 92 1104 118 1136 c 0,18,19
 136 1160 136 1160 172 1160 c 2,20,-1
 196 1158 l 2,21,22
 212 1154 212 1154 216 1150 c 2,23,-1
 1022 644 l 1,24,-1
 1038 628 l 1,25,26
 1056 604 1056 604 1056 580 c 0,0,1
EndSplineSet
EndChar

StartChar: question
Encoding: 63 63 34
Width: 920
GlyphClass: 2
Flags: W
LayerCount: 2
Fore
SplineSet
840 838 m 0,0,1
 840 678 840 678 653 593 c 128,-1,2
 466 508 466 508 466 426 c 2,3,-1
 466 332 l 2,4,5
 466 292 466 292 455 278 c 128,-1,6
 444 264 444 264 414 264 c 0,7,8
 386 264 386 264 370 277 c 128,-1,9
 354 290 354 290 354 332 c 2,10,-1
 354 438 l 2,11,12
 354 534 354 534 456 623 c 128,-1,13
 558 712 558 712 558 834 c 0,14,15
 558 910 558 910 522 970 c 0,16,17
 476 1042 476 1042 394 1042 c 0,18,19
 282 1042 282 1042 230 946 c 0,20,21
 196 878 196 878 196 784 c 2,22,-1
 196 756 l 1,23,-1
 198 736 l 2,24,25
 198 706 198 706 192 694 c 0,26,27
 180 672 180 672 146 672 c 0,28,29
 106 672 106 672 88 698 c 1,30,-1
 82 724 l 1,31,-1
 80 762 l 1,32,33
 80 926 80 926 152 1032 c 0,34,35
 240 1158 240 1158 412 1158 c 0,36,37
 598 1158 598 1158 708 1090 c 0,38,39
 840 1008 840 1008 840 838 c 0,0,1
570 4 m 0,40,41
 570 -56 570 -56 526 -100 c 128,-1,42
 482 -144 482 -144 420 -144 c 0,43,44
 362 -144 362 -144 314 -102 c 1,45,46
 270 -58 270 -58 270 4 c 0,47,48
 270 64 270 64 314 109 c 128,-1,49
 358 154 358 154 420 154 c 0,50,51
 480 154 480 154 525 110 c 128,-1,52
 570 66 570 66 570 4 c 0,40,41
EndSplineSet
EndChar

StartChar: at
Encoding: 64 64 35
Width: 1826
GlyphClass: 2
Flags: W
LayerCount: 2
Fore
SplineSet
1020 144 m 1,0,1
 974 88 974 88 896 40 c 0,2,3
 826 -2 826 -2 750 -2 c 0,4,5
 670 -2 670 -2 598 44 c 0,6,7
 528 84 528 84 480 184 c 128,-1,8
 432 284 432 284 432 392 c 0,9,10
 432 526 432 526 502 670 c 128,-1,11
 572 814 572 814 681 883 c 128,-1,12
 790 952 790 952 890 952 c 0,13,14
 936 952 936 952 967 943 c 128,-1,15
 998 934 998 934 1034 910 c 1,16,17
 1104 874 1104 874 1154 790 c 1,18,-1
 1184 926 l 1,19,-1
 1340 926 l 1,20,-1
 1214 338 l 1,21,-1
 1188 202 l 2,22,23
 1188 182 1188 182 1206 160 c 1,24,25
 1226 144 1226 144 1250 144 c 0,26,27
 1300 144 1300 144 1372 196 c 0,28,29
 1468 266 1468 266 1529 385 c 128,-1,30
 1590 504 1590 504 1590 630 c 0,31,32
 1590 772 1590 772 1514 901 c 128,-1,33
 1438 1030 1438 1030 1291 1107 c 128,-1,34
 1144 1184 1144 1184 962 1184 c 0,35,36
 854 1184 854 1184 764 1161 c 128,-1,37
 674 1138 674 1138 584 1088 c 0,38,39
 418 994 418 994 322 806 c 128,-1,40
 226 618 226 618 226 426 c 0,41,42
 226 220 226 220 319 61 c 128,-1,43
 412 -98 412 -98 589 -173 c 128,-1,44
 766 -248 766 -248 984 -248 c 0,45,46
 1216 -248 1216 -248 1368 -173 c 128,-1,47
 1520 -98 1520 -98 1604 16 c 1,48,-1
 1762 16 l 1,49,50
 1716 -82 1716 -82 1611 -172 c 128,-1,51
 1506 -262 1506 -262 1350 -322 c 0,52,53
 1290 -344 1290 -344 1184 -364 c 0,54,55
 1140 -370 1140 -370 1091 -374 c 128,-1,56
 1042 -378 1042 -378 986 -378 c 0,57,58
 790 -378 790 -378 629 -329 c 128,-1,59
 468 -280 468 -280 353 -183 c 128,-1,60
 238 -86 238 -86 170 54 c 1,61,62
 98 222 98 222 98 412 c 0,63,64
 98 632 98 632 186 820 c 0,65,66
 294 1054 294 1054 490 1183 c 128,-1,67
 686 1312 686 1312 968 1312 c 0,68,69
 1190 1312 1190 1312 1361 1224 c 128,-1,70
 1532 1136 1532 1136 1634 958 c 0,71,72
 1718 804 1718 804 1718 626 c 0,73,74
 1718 372 1718 372 1538 174 c 0,75,76
 1378 -4 1378 -4 1190 -4 c 2,77,-1
 1166 -4 l 1,78,-1
 1132 0 l 2,79,80
 1112 2 1112 2 1090 14 c 0,81,82
 1060 32 1060 32 1036 68 c 0,83,84
 1026 88 1026 88 1020 144 c 1,0,1
596 382 m 0,85,86
 596 264 596 264 652 196 c 128,-1,87
 708 128 708 128 782 128 c 0,88,89
 834 128 834 128 887 157 c 128,-1,90
 940 186 940 186 990 243 c 128,-1,91
 1040 300 1040 300 1072 393 c 128,-1,92
 1104 486 1104 486 1104 570 c 0,93,94
 1104 688 1104 688 1044 754 c 1,95,96
 988 822 988 822 900 822 c 0,97,98
 844 822 844 822 794 792 c 0,99,100
 740 764 740 764 698 701 c 128,-1,101
 656 638 656 638 622 546 c 1,102,103
 596 462 596 462 596 382 c 0,85,86
EndSplineSet
EndChar

StartChar: bracketleft
Encoding: 91 91 36
Width: 500
GlyphClass: 2
Flags: W
LayerCount: 2
Fore
SplineSet
122 -358 m 1,0,-1
 122 1288 l 1,1,-1
 472 1288 l 1,2,-1
 472 1158 l 1,3,-1
 280 1158 l 1,4,-1
 280 -226 l 1,5,-1
 472 -226 l 1,6,-1
 472 -358 l 1,7,-1
 122 -358 l 1,0,-1
EndSplineSet
EndChar

StartChar: backslash
Encoding: 92 92 37
Width: 500
GlyphClass: 2
Flags: W
LayerCount: 2
Fore
SplineSet
374 -22 m 1,0,-1
 0 1310 l 1,1,-1
 128 1310 l 1,2,-1
 500 -22 l 1,3,-1
 374 -22 l 1,0,-1
EndSplineSet
EndChar

StartChar: bracketright
Encoding: 93 93 38
Width: 500
GlyphClass: 2
Flags: W
LayerCount: 2
Fore
SplineSet
384 -358 m 1,0,-1
 34 -358 l 1,1,-1
 34 -226 l 1,2,-1
 224 -226 l 1,3,-1
 224 1158 l 1,4,-1
 34 1158 l 1,5,-1
 34 1288 l 1,6,-1
 384 1288 l 1,7,-1
 384 -358 l 1,0,-1
EndSplineSet
EndChar

StartChar: asciicircum
Encoding: 94 94 39
Width: 844
GlyphClass: 2
Flags: W
LayerCount: 2
Fore
SplineSet
210 606 m 1,0,-1
 46 606 l 1,1,-1
 358 1310 l 1,2,-1
 486 1310 l 1,3,-1
 798 606 l 1,4,-1
 638 606 l 1,5,-1
 422 1130 l 1,6,-1
 210 606 l 1,0,-1
EndSplineSet
EndChar

StartChar: underscore
Encoding: 95 95 40
Width: 1000
GlyphClass: 2
Flags: W
LayerCount: 2
Fore
SplineSet
-26 -358 m 1,0,-1
 -26 -242 l 1,1,-1
 1020 -242 l 1,2,-1
 1020 -358 l 1,3,-1
 -26 -358 l 1,0,-1
EndSplineSet
EndChar

StartChar: grave
Encoding: 96 96 41
Width: 346
GlyphClass: 2
Flags: W
LayerCount: 2
Fore
SplineSet
64 982 m 0,0,1
 70 1006 70 1006 80 1018 c 0,2,3
 82 1020 82 1020 88 1027 c 128,-1,4
 94 1034 94 1034 103 1041 c 128,-1,5
 112 1048 112 1048 128 1052 c 128,-1,6
 144 1056 144 1056 158 1058 c 2,7,-1
 228 1058 l 1,8,-1
 258 1052 l 1,9,-1
 280 1036 l 1,10,-1
 296 1014 l 1,11,-1
 300 988 l 1,12,-1
 294 946 l 1,13,14
 286 928 286 928 268 920 c 2,15,-1
 248 908 l 1,16,-1
 230 908 l 1,17,-1
 156 908 l 1,18,-1
 148 908 l 1,19,-1
 134 912 l 1,20,-1
 120 916 l 1,21,-1
 192 916 l 1,22,-1
 196 900 l 1,23,-1
 198 884 l 1,24,-1
 206 858 l 1,25,-1
 224 830 l 1,26,-1
 242 804 l 1,27,-1
 264 782 l 1,28,-1
 288 762 l 1,29,-1
 314 740 l 1,30,-1
 282 706 l 1,31,-1
 210 706 l 1,32,-1
 158 750 l 1,33,-1
 112 800 l 2,34,35
 108 806 108 806 94 827 c 128,-1,36
 80 848 80 848 72 868 c 2,37,-1
 62 898 l 1,38,-1
 58 934 l 2,39,40
 56 962 56 962 64 982 c 0,0,1
EndSplineSet
EndChar

StartChar: braceleft
Encoding: 123 123 42
Width: 602
GlyphClass: 2
Flags: W
LayerCount: 2
Fore
SplineSet
50 538 m 1,0,1
 120 538 120 538 158 574 c 1,2,3
 200 608 200 608 218 670 c 1,4,-1
 226 768 l 1,5,-1
 232 876 l 1,6,7
 232 1026 232 1026 237 1074 c 128,-1,8
 242 1122 242 1122 247 1140 c 128,-1,9
 252 1158 252 1158 266 1186 c 0,10,11
 288 1232 288 1232 315 1256 c 128,-1,12
 342 1280 342 1280 402 1302 c 1,13,-1
 510 1310 l 1,14,-1
 560 1310 l 1,15,-1
 560 1172 l 1,16,-1
 530 1172 l 2,17,18
 446 1172 446 1172 408 1138 c 1,19,20
 380 1104 380 1104 380 992 c 2,21,-1
 380 938 l 1,22,-1
 380 894 l 1,23,-1
 380 860 l 1,24,-1
 380 832 l 1,25,-1
 380 808 l 1,26,-1
 378 742 l 2,27,28
 378 716 378 716 370 702 c 1,29,30
 356 612 356 612 317 561 c 128,-1,31
 278 510 278 510 196 466 c 1,32,33
 296 426 296 426 336 346 c 0,34,35
 380 266 380 266 380 70 c 2,36,-1
 384 -134 l 2,37,38
 384 -188 384 -188 420 -218 c 1,39,-1
 456 -232 l 2,40,41
 474 -238 474 -238 486 -240 c 128,-1,42
 498 -242 498 -242 530 -242 c 2,43,-1
 560 -242 l 1,44,-1
 560 -378 l 1,45,-1
 510 -378 l 2,46,47
 422 -378 422 -378 386 -366 c 0,48,49
 328 -340 328 -340 296 -300 c 0,50,51
 264 -266 264 -266 242 -186 c 1,52,53
 232 -106 232 -106 232 44 c 0,54,55
 232 204 232 204 217 262 c 128,-1,56
 202 320 202 320 160 358 c 1,57,58
 112 394 112 394 50 394 c 1,59,-1
 50 538 l 1,0,1
EndSplineSet
EndChar

StartChar: bar
Encoding: 124 124 43
Width: 468
GlyphClass: 2
Flags: W
LayerCount: 2
Fore
SplineSet
166 -378 m 1,0,-1
 166 1310 l 1,1,-1
 302 1310 l 1,2,-1
 302 -378 l 1,3,-1
 166 -378 l 1,0,-1
EndSplineSet
EndChar

StartChar: braceright
Encoding: 125 125 44
Width: 602
GlyphClass: 2
Flags: W
LayerCount: 2
Fore
SplineSet
550 538 m 1,0,-1
 550 394 l 1,1,2
 486 394 486 394 441 360 c 128,-1,3
 396 326 396 326 382 260 c 1,4,-1
 372 180 l 1,5,-1
 368 56 l 1,6,-1
 368 22 l 1,7,-1
 368 -8 l 1,8,-1
 368 -30 l 1,9,-1
 368 -80 l 2,10,11
 368 -110 368 -110 364 -138 c 1,12,13
 364 -202 364 -202 332 -254 c 1,14,15
 310 -298 310 -298 280 -328 c 1,16,-1
 248 -348 l 1,17,-1
 200 -368 l 1,18,-1
 158 -376 l 1,19,-1
 90 -378 l 1,20,-1
 42 -378 l 1,21,-1
 42 -242 l 1,22,-1
 68 -242 l 2,23,24
 160 -242 160 -242 188 -206 c 1,25,26
 220 -178 220 -178 220 -60 c 2,27,-1
 222 112 l 1,28,-1
 226 220 l 1,29,30
 238 316 238 316 284 374 c 0,31,32
 326 432 326 432 404 466 c 1,33,34
 308 506 308 506 264 589 c 128,-1,35
 220 672 220 672 220 862 c 2,36,-1
 220 970 l 1,37,-1
 214 1080 l 2,38,39
 214 1120 214 1120 183 1146 c 128,-1,40
 152 1172 152 1172 68 1172 c 2,41,-1
 42 1172 l 1,42,-1
 42 1310 l 1,43,-1
 90 1310 l 2,44,45
 178 1310 178 1310 226 1292 c 0,46,47
 272 1278 272 1278 307 1234 c 128,-1,48
 342 1190 342 1190 356 1116 c 1,49,-1
 366 1024 l 1,50,-1
 368 890 l 2,51,52
 368 722 368 722 381 668 c 128,-1,53
 394 614 394 614 440 574 c 0,54,55
 448 568 448 568 461 560 c 128,-1,56
 474 552 474 552 490 548 c 2,57,-1
 518 540 l 1,58,-1
 550 538 l 1,0,-1
EndSplineSet
EndChar

StartChar: asciitilde
Encoding: 126 126 45
Width: 1052
GlyphClass: 2
Flags: W
LayerCount: 2
Fore
SplineSet
76 490 m 1,0,-1
 76 670 l 1,1,2
 170 776 170 776 320 776 c 0,3,4
 362 776 362 776 421 762 c 128,-1,5
 480 748 480 748 598 698 c 1,6,-1
 688 666 l 1,7,-1
 726 656 l 1,8,-1
 748 656 l 2,9,10
 796 656 796 656 860 690 c 0,11,12
 920 718 920 718 976 778 c 1,13,-1
 976 592 l 1,14,15
 968 584 968 584 934 558 c 128,-1,16
 900 532 900 532 864 514 c 1,17,18
 802 492 802 492 732 492 c 0,19,20
 706 492 706 492 682 492 c 1,21,22
 648 498 648 498 634 500 c 0,23,24
 592 512 592 512 484 560 c 128,-1,25
 376 608 376 608 306 608 c 0,26,27
 272 608 272 608 250 604 c 128,-1,28
 228 600 228 600 200 584 c 2,29,-1
 146 550 l 2,30,31
 112 526 112 526 76 490 c 1,0,-1
EndSplineSet
EndChar

StartChar: cent
Encoding: 162 162 46
Width: 721
GlyphClass: 2
Flags: W
LayerCount: 2
Fore
SplineSet
598 156 m 1,0,1
 537 71 537 71 467 31 c 128,-1,2
 397 -9 397 -9 304 -17 c 1,3,-1
 228 -265 l 1,4,-1
 187 -265 l 1,5,-1
 262 -17 l 1,6,7
 177 -8 177 -8 128.5 47 c 128,-1,8
 80 102 80 102 80 188 c 0,9,10
 80 345 80 345 191.5 478.5 c 128,-1,11
 303 612 303 612 457 638 c 1,12,-1
 541 917 l 1,13,-1
 580 917 l 1,14,-1
 499 638 l 1,15,16
 580 638 580 638 616.5 607 c 128,-1,17
 653 576 653 576 653 523 c 0,18,19
 653 482 653 482 631.5 455.5 c 128,-1,20
 610 429 610 429 580 429 c 0,21,22
 557 429 557 429 544 442 c 128,-1,23
 531 455 531 455 531 476 c 0,24,25
 531 491 531 491 536 502 c 128,-1,26
 541 513 541 513 560.5 534.5 c 128,-1,27
 580 556 580 556 580 570 c 0,28,29
 580 578 580 578 575 585 c 0,30,31
 565 596 565 596 549.5 601 c 128,-1,32
 534 606 534 606 489 606 c 1,33,-1
 322 49 l 1,34,-1
 352 47 l 1,35,36
 470 47 470 47 580 173 c 1,37,-1
 598 156 l 1,0,1
284 57 m 1,38,-1
 445 598 l 1,39,40
 383 570 383 570 342 533 c 0,41,42
 274 467 274 467 237 380.5 c 128,-1,43
 200 294 200 294 200 205 c 0,44,45
 200 146 200 146 224 108 c 0,46,47
 243 81 243 81 284 57 c 1,38,-1
EndSplineSet
EndChar

StartChar: multiply
Encoding: 215 215 47
Width: 975
GlyphClass: 2
Flags: W
LayerCount: 2
Fore
SplineSet
267 230 m 1,0,-1
 515 479 l 1,1,-1
 267 728 l 1,2,-1
 308 768 l 1,3,-1
 556 520 l 1,4,-1
 805 768 l 1,5,-1
 844 728 l 1,6,-1
 595 480 l 1,7,-1
 845 230 l 1,8,-1
 805 190 l 1,9,-1
 555 439 l 1,10,-1
 307 190 l 1,11,-1
 267 230 l 1,0,-1
EndSplineSet
EndChar

StartChar: divide
Encoding: 247 247 48
Width: 792
GlyphClass: 2
Flags: W
LayerCount: 2
Fore
SplineSet
418 757 m 0,0,1
 443 757 443 757 461 739 c 128,-1,2
 479 721 479 721 479 695 c 0,3,4
 479 670 479 670 461 652 c 128,-1,5
 443 634 443 634 417 634 c 0,6,7
 392 634 392 634 373.5 652 c 128,-1,8
 355 670 355 670 355 695 c 0,9,10
 355 721 355 721 373.5 739 c 128,-1,11
 392 757 392 757 418 757 c 0,0,1
797 450 m 1,12,-1
 38 450 l 1,13,-1
 38 508 l 1,14,-1
 797 508 l 1,15,-1
 797 450 l 1,12,-1
418 320 m 0,16,17
 443 320 443 320 461 301.5 c 128,-1,18
 479 283 479 283 479 257 c 0,19,20
 479 233 479 233 461 215 c 128,-1,21
 443 197 443 197 418 197 c 0,22,23
 392 197 392 197 373.5 215 c 128,-1,24
 355 233 355 233 355 257 c 0,25,26
 355 283 355 283 373.5 301.5 c 128,-1,27
 392 320 392 320 418 320 c 0,16,17
EndSplineSet
EndChar

StartChar: tm_visarga
Encoding: 2947 2947 49
Width: 1320
GlyphClass: 2
Flags: W
LayerCount: 2
Fore
SplineSet
908 1060 m 0,0,1
 908 928 908 928 820 872 c 0,2,3
 754 830 754 830 638 830 c 0,4,5
 550 830 550 830 492 896 c 0,6,7
 438 962 438 962 438 1064 c 256,8,9
 438 1166 438 1166 496 1236 c 128,-1,10
 554 1306 554 1306 648 1306 c 0,11,12
 772 1306 772 1306 840 1244 c 128,-1,13
 908 1182 908 1182 908 1060 c 0,0,1
1232 210 m 0,14,15
 1232 78 1232 78 1144 22 c 0,16,17
 1078 -20 1078 -20 962 -20 c 0,18,19
 874 -20 874 -20 816 46 c 0,20,21
 762 112 762 112 762 214 c 256,22,23
 762 316 762 316 820 386 c 128,-1,24
 878 456 878 456 972 456 c 0,25,26
 1096 456 1096 456 1164 394 c 128,-1,27
 1232 332 1232 332 1232 210 c 0,14,15
548 210 m 0,28,29
 548 78 548 78 460 22 c 0,30,31
 394 -20 394 -20 278 -20 c 0,32,33
 190 -20 190 -20 132 46 c 0,34,35
 78 112 78 112 78 214 c 256,36,37
 78 316 78 316 136 386 c 128,-1,38
 194 456 194 456 288 456 c 0,39,40
 412 456 412 456 480 394 c 128,-1,41
 548 332 548 332 548 210 c 0,28,29
746 1058 m 0,42,43
 746 1138 746 1138 718 1188 c 128,-1,44
 690 1238 690 1238 634 1238 c 0,45,46
 576 1238 576 1238 536 1184 c 1,47,48
 502 1128 502 1128 502 1060 c 0,49,50
 502 994 502 994 538 942 c 0,51,52
 574 896 574 896 626 896 c 0,53,54
 680 896 680 896 713 944 c 128,-1,55
 746 992 746 992 746 1058 c 0,42,43
1070 208 m 0,56,57
 1070 288 1070 288 1042 338 c 128,-1,58
 1014 388 1014 388 958 388 c 0,59,60
 900 388 900 388 860 334 c 1,61,62
 826 278 826 278 826 210 c 0,63,64
 826 144 826 144 862 92 c 0,65,66
 898 46 898 46 950 46 c 0,67,68
 1004 46 1004 46 1037 94 c 128,-1,69
 1070 142 1070 142 1070 208 c 0,56,57
386 208 m 0,70,71
 386 288 386 288 358 338 c 128,-1,72
 330 388 330 388 274 388 c 0,73,74
 216 388 216 388 176 334 c 1,75,76
 142 278 142 278 142 210 c 0,77,78
 142 144 142 144 178 92 c 0,79,80
 214 46 214 46 266 46 c 0,81,82
 320 46 320 46 353 94 c 128,-1,83
 386 142 386 142 386 208 c 0,70,71
EndSplineSet
EndChar

StartChar: tm_a
Encoding: 2949 2949 50
Width: 1650
GlyphClass: 2
Flags: W
LayerCount: 2
Fore
SplineSet
1598 -276 m 1,0,1
 1586 -310 1586 -310 1562 -328 c 0,2,3
 1518 -356 1518 -356 1456 -356 c 0,4,5
 1388 -356 1388 -356 1348 -332 c 0,6,7
 1324 -320 1324 -320 1306 -276 c 1,8,-1
 1306 166 l 1,9,-1
 1130 166 l 1,10,11
 1106 0 1106 0 954 -120 c 0,12,13
 776 -258 776 -258 492 -258 c 0,14,15
 322 -258 322 -258 206 -178 c 0,16,17
 82 -90 82 -90 82 56 c 0,18,19
 82 140 82 140 154 203 c 128,-1,20
 226 266 226 266 352 266 c 2,21,-1
 1024 266 l 1,22,-1
 1026 304 l 1,23,-1
 1028 330 l 1,24,25
 1028 472 1028 472 950 586 c 0,26,27
 886 676 886 676 786 724 c 0,28,29
 714 760 714 760 636 760 c 0,30,31
 548 760 548 760 491 716 c 128,-1,32
 434 672 434 672 434 594 c 0,33,34
 434 540 434 540 475 502 c 128,-1,35
 516 464 516 464 568 464 c 0,36,37
 662 464 662 464 700 526 c 0,38,39
 710 546 710 546 718 576 c 128,-1,40
 726 606 726 606 726 642 c 1,41,42
 740 658 740 658 774 633 c 128,-1,43
 808 608 808 608 808 564 c 0,44,45
 808 474 808 474 746 421 c 128,-1,46
 684 368 684 368 570 368 c 0,47,48
 470 368 470 368 398 434 c 1,49,50
 330 502 330 502 330 598 c 0,51,52
 330 708 330 708 414 782 c 128,-1,53
 498 856 498 856 618 856 c 0,54,55
 880 856 880 856 1030 668 c 0,56,57
 1150 514 1150 514 1150 314 c 1,58,-1
 1148 266 l 1,59,-1
 1306 266 l 1,60,-1
 1306 778 l 1,61,62
 1312 804 1312 804 1326 818 c 0,63,64
 1366 860 1366 860 1452 860 c 0,65,66
 1540 860 1540 860 1578 820 c 0,67,68
 1588 810 1588 810 1598 778 c 1,69,-1
 1598 -276 l 1,0,1
1004 166 m 1,70,-1
 386 166 l 2,71,72
 308 166 308 166 262 148 c 0,73,74
 188 118 188 118 188 34 c 0,75,76
 188 -40 188 -40 269 -99 c 128,-1,77
 350 -158 350 -158 496 -158 c 0,78,79
 684 -158 684 -158 837 -58 c 128,-1,80
 990 42 990 42 1004 166 c 1,70,-1
EndSplineSet
EndChar

StartChar: tm_aa
Encoding: 2950 2950 51
Width: 2060
GlyphClass: 2
Flags: W
LayerCount: 2
Fore
SplineSet
2026 -180 m 0,0,1
 2026 -396 2026 -396 1866 -495 c 128,-1,2
 1706 -594 1706 -594 1342 -594 c 2,3,-1
 1200 -594 l 1,4,-1
 1172 -594 l 1,5,-1
 1148 -594 l 2,6,7
 1060 -594 1060 -594 1020 -584 c 0,8,9
 958 -574 958 -574 900 -534 c 0,10,11
 820 -478 820 -478 820 -392 c 0,12,13
 820 -326 820 -326 870 -276 c 128,-1,14
 920 -226 920 -226 1000 -226 c 0,15,16
 1078 -226 1078 -226 1112 -236 c 128,-1,17
 1146 -246 1146 -246 1172 -268 c 1,18,-1
 1176 -274 l 2,19,20
 1182 -284 1182 -284 1186 -306 c 0,21,22
 1186 -322 1186 -322 1176 -334 c 0,23,24
 1170 -346 1170 -346 1148 -354 c 1,25,-1
 1132 -356 l 1,26,-1
 1104 -340 l 1,27,28
 1062 -322 1062 -322 998 -322 c 0,29,30
 960 -322 960 -322 936 -344 c 1,31,32
 918 -366 918 -366 914 -398 c 1,33,34
 914 -440 914 -440 954 -462 c 0,35,36
 972 -474 972 -474 1002 -483 c 128,-1,37
 1032 -492 1032 -492 1064 -492 c 2,38,-1
 1226 -500 l 1,39,-1
 1342 -500 l 2,40,41
 1592 -500 1592 -500 1698 -392 c 0,42,43
 1774 -312 1774 -312 1774 -170 c 0,44,45
 1774 -88 1774 -88 1744 -24 c 0,46,47
 1708 46 1708 46 1644 46 c 2,48,-1
 1598 46 l 1,49,-1
 1598 -276 l 1,50,51
 1586 -310 1586 -310 1562 -328 c 0,52,53
 1518 -356 1518 -356 1456 -356 c 0,54,55
 1388 -356 1388 -356 1348 -332 c 0,56,57
 1324 -320 1324 -320 1306 -276 c 1,58,-1
 1306 166 l 1,59,-1
 1130 166 l 1,60,61
 1106 0 1106 0 954 -120 c 0,62,63
 776 -258 776 -258 492 -258 c 0,64,65
 322 -258 322 -258 206 -178 c 0,66,67
 82 -90 82 -90 82 56 c 0,68,69
 82 140 82 140 154 203 c 128,-1,70
 226 266 226 266 352 266 c 2,71,-1
 1024 266 l 1,72,-1
 1026 304 l 1,73,-1
 1028 330 l 1,74,75
 1028 472 1028 472 950 586 c 0,76,77
 886 676 886 676 786 724 c 0,78,79
 714 760 714 760 636 760 c 0,80,81
 548 760 548 760 491 716 c 128,-1,82
 434 672 434 672 434 594 c 0,83,84
 434 540 434 540 475 502 c 128,-1,85
 516 464 516 464 568 464 c 0,86,87
 662 464 662 464 700 526 c 0,88,89
 710 546 710 546 718 576 c 128,-1,90
 726 606 726 606 726 642 c 1,91,92
 740 658 740 658 774 633 c 128,-1,93
 808 608 808 608 808 564 c 0,94,95
 808 474 808 474 746 421 c 128,-1,96
 684 368 684 368 570 368 c 0,97,98
 470 368 470 368 398 434 c 1,99,100
 330 502 330 502 330 598 c 0,101,102
 330 708 330 708 414 782 c 128,-1,103
 498 856 498 856 618 856 c 0,104,105
 880 856 880 856 1030 668 c 0,106,107
 1150 514 1150 514 1150 314 c 1,108,-1
 1148 266 l 1,109,-1
 1306 266 l 1,110,-1
 1306 778 l 1,111,112
 1312 804 1312 804 1326 818 c 0,113,114
 1366 860 1366 860 1452 860 c 0,115,116
 1540 860 1540 860 1578 820 c 0,117,118
 1588 810 1588 810 1598 778 c 1,119,-1
 1598 158 l 1,120,-1
 1656 162 l 1,121,122
 1794 162 1794 162 1892 100 c 0,123,124
 2026 12 2026 12 2026 -180 c 0,0,1
1004 166 m 1,125,-1
 386 166 l 2,126,127
 308 166 308 166 262 148 c 0,128,129
 188 118 188 118 188 34 c 0,130,131
 188 -40 188 -40 269 -99 c 128,-1,132
 350 -158 350 -158 496 -158 c 0,133,134
 692 -158 692 -158 848 -62 c 128,-1,135
 1004 34 1004 34 1004 166 c 1,125,-1
EndSplineSet
EndChar

StartChar: tm_i
Encoding: 2951 2951 52
Width: 1680
GlyphClass: 2
Flags: W
LayerCount: 2
Fore
SplineSet
1620 396 m 1,0,1
 1608 372 1608 372 1594 358 c 0,2,3
 1552 320 1552 320 1488 320 c 0,4,5
 1426 320 1426 320 1380 358 c 1,6,-1
 1348 396 l 1,7,-1
 1348 696 l 2,8,9
 1348 886 1348 886 1234 1034 c 0,10,11
 1092 1216 1092 1216 836 1216 c 0,12,13
 590 1216 590 1216 427 1059 c 128,-1,14
 264 902 264 902 264 644 c 0,15,16
 264 486 264 486 312 356 c 1,17,-1
 372 234 l 1,18,-1
 450 258 l 1,19,20
 590 296 590 296 708 296 c 0,21,22
 938 296 938 296 978 280 c 1,23,-1
 994 360 l 2,24,25
 1002 420 1002 420 1004 432 c 0,26,27
 1004 464 1004 464 1004 478 c 0,28,29
 1004 502 1004 502 1002 527 c 128,-1,30
 1000 552 1000 552 994 578 c 0,31,32
 976 664 976 664 930 724 c 0,33,34
 866 810 866 810 776 810 c 0,35,36
 694 810 694 810 647 766 c 128,-1,37
 600 722 600 722 600 656 c 0,38,39
 600 600 600 600 640 563 c 128,-1,40
 680 526 680 526 718 526 c 0,41,42
 772 526 772 526 797 564 c 128,-1,43
 822 602 822 602 822 660 c 1,44,45
 834 670 834 670 844 670 c 0,46,47
 870 670 870 670 889 655 c 128,-1,48
 908 640 908 640 914 602 c 1,49,50
 914 518 914 518 852 470 c 0,51,52
 798 428 798 428 718 428 c 0,53,54
 626 428 626 428 562 490 c 0,55,56
 532 522 532 522 516 563 c 128,-1,57
 500 604 500 604 500 656 c 0,58,59
 500 776 500 776 582 843 c 128,-1,60
 664 910 664 910 784 910 c 0,61,62
 940 910 940 910 1054 814 c 0,63,64
 1150 734 1150 734 1194 602 c 0,65,66
 1210 558 1210 558 1218 502 c 2,67,-1
 1226 408 l 1,68,69
 1226 340 1226 340 1216 300 c 2,70,-1
 1198 228 l 1,71,72
 1300 220 1300 220 1414 102 c 0,73,74
 1500 12 1500 12 1500 -94 c 2,75,-1
 1500 -118 l 1,76,-1
 1496 -144 l 2,77,78
 1478 -252 1478 -252 1378 -302 c 0,79,80
 1296 -344 1296 -344 1166 -344 c 0,81,82
 1056 -344 1056 -344 939 -314 c 128,-1,83
 822 -284 822 -284 740 -240 c 1,84,-1
 578 -308 l 1,85,86
 458 -346 458 -346 322 -346 c 0,87,88
 222 -346 222 -346 146 -290 c 0,89,90
 58 -226 58 -226 58 -120 c 0,91,92
 58 -12 58 -12 134 72 c 0,93,94
 192 136 192 136 288 184 c 1,95,96
 242 236 242 236 200 375 c 128,-1,97
 158 514 158 514 158 644 c 0,98,99
 158 920 158 920 342 1116 c 0,100,101
 534 1320 534 1320 830 1320 c 0,102,103
 1162 1320 1162 1320 1382 1154 c 0,104,105
 1620 976 1620 976 1620 682 c 2,106,-1
 1620 396 l 1,0,1
954 184 m 1,107,108
 860 202 860 202 690 202 c 0,109,110
 620 202 620 202 540 183 c 128,-1,111
 460 164 460 164 432 146 c 1,112,113
 452 116 452 116 490 78 c 2,114,-1
 552 18 l 1,115,-1
 656 -62 l 1,116,-1
 722 -106 l 1,117,-1
 790 -46 l 1,118,-1
 862 30 l 2,119,120
 890 62 890 62 918 110 c 1,121,-1
 954 184 l 1,107,108
1358 -180 m 0,122,123
 1386 -136 1386 -136 1386 -88 c 0,124,125
 1386 -16 1386 -16 1302 60 c 0,126,127
 1242 110 1242 110 1166 140 c 1,128,129
 1148 102 1148 102 1106 44 c 0,130,131
 1058 -24 1058 -24 1024 -52 c 2,132,-1
 950 -116 l 2,133,134
 908 -148 908 -148 856 -172 c 1,135,136
 914 -202 914 -202 1010 -227 c 128,-1,137
 1106 -252 1106 -252 1176 -252 c 0,138,139
 1238 -252 1238 -252 1286 -234 c 0,140,141
 1332 -220 1332 -220 1358 -180 c 0,122,123
634 -168 m 1,142,-1
 568 -126 l 1,143,-1
 462 -40 l 1,144,-1
 392 32 l 2,145,146
 358 70 358 70 340 102 c 1,147,148
 270 78 270 78 208 4 c 0,149,150
 158 -56 158 -56 158 -110 c 0,151,152
 158 -146 158 -146 178 -180 c 128,-1,153
 198 -214 198 -214 245 -232 c 128,-1,154
 292 -250 292 -250 350 -250 c 0,155,156
 390 -250 390 -250 431 -244 c 128,-1,157
 472 -238 472 -238 516 -224 c 0,158,159
 596 -200 596 -200 634 -168 c 1,142,-1
EndSplineSet
EndChar

StartChar: tm_ii
Encoding: 2952 2952 53
Width: 1180
GlyphClass: 2
Flags: W
LayerCount: 2
Fore
SplineSet
1144 788 m 0,0,1
 1144 762 1144 762 1128 748 c 0,2,3
 1116 742 1116 742 1082 738 c 1,4,-1
 844 738 l 1,5,-1
 844 80 l 1,6,7
 832 50 832 50 818 36 c 0,8,9
 774 -8 774 -8 700 -8 c 0,10,11
 620 -8 620 -8 576 36 c 0,12,13
 564 48 564 48 552 80 c 1,14,-1
 552 738 l 1,15,-1
 180 738 l 1,16,-1
 180 74 l 1,17,-1
 178 36 l 1,18,19
 168 -4 168 -4 132 -4 c 256,20,21
 96 -4 96 -4 84 34 c 1,22,-1
 80 74 l 1,23,-1
 80 838 l 1,24,-1
 1082 838 l 2,25,26
 1110 838 1110 838 1127 828 c 128,-1,27
 1144 818 1144 818 1144 788 c 0,0,1
476 394 m 0,28,29
 476 354 476 354 445 321 c 128,-1,30
 414 288 414 288 372 288 c 0,31,32
 324 288 324 288 293 313 c 128,-1,33
 262 338 262 338 262 398 c 0,34,35
 262 436 262 436 292 470 c 128,-1,36
 322 504 322 504 370 504 c 0,37,38
 412 504 412 504 444 472 c 128,-1,39
 476 440 476 440 476 394 c 0,28,29
1134 390 m 0,40,41
 1134 352 1134 352 1103 319 c 128,-1,42
 1072 286 1072 286 1034 286 c 0,43,44
 986 286 986 286 952 314 c 0,45,46
 936 330 936 330 928 348 c 128,-1,47
 920 366 920 366 920 394 c 0,48,49
 920 436 920 436 952 468 c 128,-1,50
 984 500 984 500 1028 500 c 0,51,52
 1070 500 1070 500 1102 467 c 128,-1,53
 1134 434 1134 434 1134 390 c 0,40,41
EndSplineSet
EndChar

StartChar: tm_u
Encoding: 2953 2953 54
Width: 1340
GlyphClass: 2
Flags: W
LayerCount: 2
Fore
SplineSet
1280 48 m 0,0,1
 1280 0 1280 0 1228 0 c 2,2,-1
 262 0 l 2,3,4
 198 0 198 0 152 24 c 0,5,6
 72 68 72 68 72 172 c 0,7,8
 72 270 72 270 142 310 c 0,9,10
 196 342 196 342 272 342 c 2,11,-1
 446 342 l 2,12,13
 528 342 528 342 600 390 c 0,14,15
 684 448 684 448 684 544 c 0,16,17
 684 652 684 652 597 707 c 128,-1,18
 510 762 510 762 380 762 c 0,19,20
 300 762 300 762 242 730 c 0,21,22
 168 690 168 690 168 616 c 0,23,24
 168 568 168 568 201 539 c 128,-1,25
 234 510 234 510 282 510 c 0,26,27
 336 510 336 510 367 538 c 128,-1,28
 398 566 398 566 398 612 c 0,29,30
 398 634 398 634 388 662 c 1,31,-1
 396 678 l 2,32,33
 406 690 406 690 426 690 c 0,34,35
 444 690 444 690 457 678 c 128,-1,36
 470 666 470 666 476 640 c 2,37,-1
 480 598 l 1,38,39
 480 528 480 528 436 482 c 0,40,41
 380 426 380 426 280 426 c 0,42,43
 202 426 202 426 138 474 c 0,44,45
 72 528 72 528 72 620 c 0,46,47
 72 724 72 724 165 789 c 128,-1,48
 258 854 258 854 412 854 c 0,49,50
 530 854 530 854 617 842 c 128,-1,51
 704 830 704 830 772 802 c 0,52,53
 970 724 970 724 970 526 c 0,54,55
 970 340 970 340 784 274 c 0,56,57
 734 258 734 258 664 250 c 128,-1,58
 594 242 594 242 486 242 c 2,59,-1
 266 242 l 2,60,61
 222 242 222 242 197 229 c 128,-1,62
 172 216 172 216 172 172 c 0,63,64
 172 136 172 136 198 116 c 0,65,66
 224 100 224 100 264 100 c 2,67,-1
 1228 100 l 2,68,69
 1280 100 1280 100 1280 48 c 0,0,1
EndSplineSet
EndChar

StartChar: tm_uu
Encoding: 2954 2954 55
Width: 2350
GlyphClass: 2
Flags: W
LayerCount: 2
Fore
SplineSet
2298 784 m 0,0,1
 2298 754 2298 754 2286 744 c 0,2,3
 2274 738 2274 738 2240 738 c 2,4,-1
 2106 738 l 1,5,-1
 2106 286 l 1,6,-1
 2082 248 l 1,7,8
 2046 208 2046 208 1980 208 c 256,9,10
 1914 208 1914 208 1868 246 c 1,11,-1
 1834 286 l 1,12,-1
 1834 738 l 1,13,-1
 1672 738 l 1,14,-1
 1672 274 l 1,15,-1
 1672 242 l 1,16,17
 1666 208 1666 208 1624 208 c 0,18,19
 1584 208 1584 208 1572 240 c 1,20,-1
 1570 274 l 1,21,-1
 1570 480 l 1,22,23
 1558 564 1558 564 1540 610 c 0,24,25
 1482 740 1482 740 1342 740 c 0,26,27
 1244 740 1244 740 1186 656 c 0,28,29
 1140 586 1140 586 1140 488 c 0,30,31
 1140 406 1140 406 1182 352 c 1,32,33
 1226 302 1226 302 1272 302 c 0,34,35
 1324 302 1324 302 1354 325 c 128,-1,36
 1384 348 1384 348 1384 392 c 0,37,38
 1384 450 1384 450 1350 470 c 0,39,40
 1338 478 1338 478 1317 482 c 128,-1,41
 1296 486 1296 486 1274 486 c 0,42,43
 1224 486 1224 486 1224 530 c 0,44,45
 1224 578 1224 578 1276 584 c 1,46,47
 1368 584 1368 584 1422 531 c 128,-1,48
 1476 478 1476 478 1476 392 c 0,49,50
 1476 308 1476 308 1417 255 c 128,-1,51
 1358 202 1358 202 1274 202 c 0,52,53
 1172 202 1172 202 1108 287 c 128,-1,54
 1044 372 1044 372 1044 500 c 0,55,56
 1044 656 1044 656 1133 749 c 128,-1,57
 1222 842 1222 842 1342 842 c 0,58,59
 1446 842 1446 842 1522 782 c 0,60,61
 1542 768 1542 768 1574 722 c 1,62,-1
 1574 838 l 1,63,-1
 2234 838 l 2,64,65
 2262 838 2262 838 2280 828 c 0,66,67
 2298 822 2298 822 2298 784 c 0,0,1
2312 48 m 0,68,69
 2312 0 2312 0 2260 0 c 2,70,-1
 262 0 l 2,71,72
 198 0 198 0 152 24 c 0,73,74
 72 68 72 68 72 172 c 0,75,76
 72 270 72 270 142 310 c 0,77,78
 196 342 196 342 272 342 c 2,79,-1
 446 342 l 2,80,81
 528 342 528 342 600 390 c 0,82,83
 684 448 684 448 684 544 c 0,84,85
 684 652 684 652 597 707 c 128,-1,86
 510 762 510 762 380 762 c 0,87,88
 300 762 300 762 242 730 c 0,89,90
 168 690 168 690 168 616 c 0,91,92
 168 568 168 568 201 539 c 128,-1,93
 234 510 234 510 282 510 c 0,94,95
 336 510 336 510 367 538 c 128,-1,96
 398 566 398 566 398 612 c 0,97,98
 398 634 398 634 388 662 c 1,99,-1
 396 678 l 2,100,101
 406 690 406 690 426 690 c 0,102,103
 444 690 444 690 457 678 c 128,-1,104
 470 666 470 666 476 640 c 2,105,-1
 480 598 l 1,106,107
 480 528 480 528 436 482 c 0,108,109
 380 426 380 426 280 426 c 0,110,111
 202 426 202 426 138 474 c 0,112,113
 72 528 72 528 72 620 c 0,114,115
 72 724 72 724 165 789 c 128,-1,116
 258 854 258 854 412 854 c 0,117,118
 530 854 530 854 617 842 c 128,-1,119
 704 830 704 830 772 802 c 0,120,121
 970 724 970 724 970 526 c 0,122,123
 970 340 970 340 784 274 c 0,124,125
 734 258 734 258 664 250 c 128,-1,126
 594 242 594 242 486 242 c 2,127,-1
 266 242 l 2,128,129
 222 242 222 242 197 229 c 128,-1,130
 172 216 172 216 172 172 c 0,131,132
 172 136 172 136 198 116 c 0,133,134
 224 100 224 100 264 100 c 2,135,-1
 2260 100 l 2,136,137
 2312 100 2312 100 2312 48 c 0,68,69
EndSplineSet
EndChar

StartChar: tm_e
Encoding: 2958 2958 56
Width: 1350
GlyphClass: 2
Flags: W
LayerCount: 2
Fore
SplineSet
1310 786 m 0,0,1
 1310 738 1310 738 1254 738 c 2,2,-1
 1126 738 l 1,3,-1
 1126 84 l 1,4,-1
 1102 38 l 1,5,6
 1062 -10 1062 -10 990 -10 c 0,7,8
 930 -10 930 -10 896 18 c 0,9,10
 876 36 876 36 854 84 c 1,11,-1
 854 738 l 1,12,-1
 490 738 l 2,13,14
 380 738 380 738 302 680 c 0,15,16
 174 588 174 588 174 388 c 0,17,18
 174 280 174 280 228 196 c 0,19,20
 296 92 296 92 414 92 c 0,21,22
 510 92 510 92 562 144 c 0,23,24
 604 186 604 186 604 254 c 0,25,26
 604 310 604 310 570 353 c 128,-1,27
 536 396 536 396 484 396 c 0,28,29
 434 396 434 396 399 359 c 128,-1,30
 364 322 364 322 364 250 c 1,31,32
 350 240 350 240 338 240 c 0,33,34
 314 240 314 240 296 260 c 0,35,36
 284 278 284 278 274 312 c 1,37,38
 274 390 274 390 342 446 c 0,39,40
 398 490 398 490 484 490 c 0,41,42
 594 490 594 490 654 410 c 0,43,44
 700 346 700 346 700 256 c 0,45,46
 700 138 700 138 620 68 c 128,-1,47
 540 -2 540 -2 418 -2 c 0,48,49
 266 -2 266 -2 170 114 c 128,-1,50
 74 230 74 230 74 398 c 0,51,52
 74 618 74 618 232 740 c 0,53,54
 360 838 360 838 518 838 c 2,55,-1
 1258 838 l 2,56,57
 1310 838 1310 838 1310 786 c 0,0,1
EndSplineSet
EndChar

StartChar: tm_ee
Encoding: 2959 2959 57
Width: 1350
GlyphClass: 2
Flags: W
LayerCount: 2
Fore
SplineSet
1310 788 m 256,0,1
 1310 738 1310 738 1260 738 c 2,2,-1
 1126 738 l 1,3,-1
 1126 18 l 1,4,5
 1046 6 1046 6 998 -20 c 0,6,7
 922 -58 922 -58 832 -140 c 0,8,9
 792 -176 792 -176 752 -242 c 2,10,-1
 724 -290 l 1,11,-1
 712 -304 l 2,12,13
 698 -316 698 -316 678 -318 c 0,14,15
 664 -318 664 -318 644 -306 c 128,-1,16
 624 -294 624 -294 624 -262 c 2,17,-1
 626 -236 l 1,18,-1
 634 -216 l 1,19,-1
 650 -196 l 1,20,-1
 716 -114 l 1,21,-1
 782 -46 l 1,22,-1
 834 -2 l 1,23,-1
 834 738 l 1,24,-1
 490 738 l 2,25,26
 396 738 396 738 308 672 c 0,27,28
 182 572 182 572 182 372 c 0,29,30
 182 270 182 270 236 192 c 0,31,32
 304 100 304 100 422 100 c 0,33,34
 518 100 518 100 566 148 c 0,35,36
 604 190 604 190 604 254 c 0,37,38
 604 308 604 308 573 348 c 128,-1,39
 542 388 542 388 488 388 c 0,40,41
 432 388 432 388 398 354 c 128,-1,42
 364 320 364 320 364 246 c 1,43,44
 350 236 350 236 340 236 c 0,45,46
 320 236 320 236 301 252 c 128,-1,47
 282 268 282 268 274 312 c 1,48,49
 274 390 274 390 342 446 c 0,50,51
 398 490 398 490 484 490 c 0,52,53
 596 490 596 490 658 410 c 0,54,55
 708 342 708 342 708 256 c 0,56,57
 708 138 708 138 624 68 c 128,-1,58
 540 -2 540 -2 418 -2 c 0,59,60
 266 -2 266 -2 170 112 c 128,-1,61
 74 226 74 226 74 398 c 0,62,63
 74 618 74 618 232 740 c 0,64,65
 360 838 360 838 518 838 c 2,66,-1
 1258 838 l 2,67,68
 1310 838 1310 838 1310 788 c 256,0,1
EndSplineSet
EndChar

StartChar: tm_ai
Encoding: 2960 2960 58
Width: 1410
GlyphClass: 2
Flags: W
LayerCount: 2
Fore
SplineSet
1374 446 m 0,0,1
 1374 268 1374 268 1264 182 c 128,-1,2
 1154 96 1154 96 962 96 c 2,3,-1
 402 96 l 2,4,5
 298 96 298 96 238 24 c 0,6,7
 188 -38 188 -38 188 -130 c 0,8,9
 188 -232 188 -232 262 -298 c 0,10,11
 330 -354 330 -354 412 -354 c 0,12,13
 496 -354 496 -354 568 -294 c 128,-1,14
 640 -234 640 -234 640 -158 c 2,15,-1
 640 -12 l 1,16,-1
 646 12 l 1,17,18
 658 36 658 36 690 36 c 0,19,20
 718 36 718 36 734 12 c 1,21,-1
 740 -12 l 1,22,-1
 740 -156 l 2,23,24
 740 -232 740 -232 782 -292 c 0,25,26
 840 -368 840 -368 952 -368 c 0,27,28
 1024 -368 1024 -368 1072 -338 c 0,29,30
 1128 -300 1128 -300 1128 -232 c 0,31,32
 1128 -202 1128 -202 1120 -180 c 128,-1,33
 1112 -158 1112 -158 1098 -138 c 1,34,-1
 1090 -98 l 1,35,36
 1090 -62 1090 -62 1126 -20 c 0,37,38
 1146 0 1146 0 1174 14 c 0,39,40
 1190 20 1190 20 1224 24 c 1,41,-1
 1248 22 l 1,42,-1
 1264 18 l 1,43,-1
 1314 -24 l 1,44,45
 1366 -86 1366 -86 1366 -168 c 0,46,47
 1366 -348 1366 -348 1208 -420 c 0,48,49
 1108 -464 1108 -464 958 -464 c 0,50,51
 858 -464 858 -464 780 -414 c 128,-1,52
 702 -364 702 -364 686 -304 c 1,53,54
 670 -356 670 -356 587 -409 c 128,-1,55
 504 -462 504 -462 404 -462 c 0,56,57
 276 -462 276 -462 182 -376 c 0,58,59
 78 -278 78 -278 78 -126 c 0,60,61
 78 28 78 28 188 118 c 0,62,63
 284 196 284 196 432 196 c 2,64,-1
 908 196 l 2,65,66
 1028 196 1028 196 1082 274 c 0,67,68
 1126 344 1126 344 1126 476 c 0,69,70
 1126 592 1126 592 1071 661 c 128,-1,71
 1016 730 1016 730 934 730 c 0,72,73
 842 730 842 730 786 660 c 0,74,75
 740 602 740 602 740 526 c 2,76,-1
 740 318 l 2,77,78
 740 298 740 298 732 287 c 128,-1,79
 724 276 724 276 692 272 c 0,80,81
 662 272 662 272 648 294 c 1,82,-1
 640 318 l 1,83,-1
 640 526 l 2,84,85
 640 618 640 618 556 684 c 0,86,87
 484 738 484 738 408 738 c 0,88,89
 322 738 322 738 258 692 c 0,90,91
 180 638 180 638 180 532 c 0,92,93
 180 448 180 448 226 408 c 0,94,95
 264 376 264 376 308 376 c 0,96,97
 368 376 368 376 402 404 c 1,98,99
 434 436 434 436 434 478 c 0,100,101
 434 532 434 532 403 556 c 128,-1,102
 372 580 372 580 330 580 c 2,103,-1
 304 578 l 1,104,105
 296 586 296 586 296 592 c 0,106,107
 296 616 296 616 315 639 c 128,-1,108
 334 662 334 662 372 662 c 0,109,110
 432 662 432 662 478 616 c 0,111,112
 532 562 532 562 532 480 c 0,113,114
 532 390 532 390 470 335 c 128,-1,115
 408 280 408 280 312 280 c 0,116,117
 212 280 212 280 144 357 c 128,-1,118
 76 434 76 434 76 534 c 0,119,120
 76 664 76 664 167 752 c 128,-1,121
 258 840 258 840 406 840 c 0,122,123
 568 840 568 840 644 752 c 0,124,125
 668 726 668 726 688 664 c 1,126,127
 702 700 702 700 714 718 c 0,128,129
 798 838 798 838 984 838 c 0,130,131
 1158 838 1158 838 1260 744 c 0,132,133
 1374 642 1374 642 1374 446 c 0,0,1
EndSplineSet
EndChar

StartChar: tm_o
Encoding: 2962 2962 59
Width: 1470
GlyphClass: 2
Flags: W
LayerCount: 2
Fore
SplineSet
1452 346 m 0,0,1
 1452 184 1452 184 1322 122 c 0,2,3
 1248 88 1248 88 1102 88 c 0,4,5
 1016 88 1016 88 950 148 c 0,6,7
 920 178 920 178 904 212 c 128,-1,8
 888 246 888 246 888 288 c 1,9,-1
 892 322 l 1,10,11
 860 314 860 314 828 268 c 128,-1,12
 796 222 796 222 796 170 c 0,13,14
 796 64 796 64 894 10 c 0,15,16
 968 -30 968 -30 1074 -30 c 2,17,-1
 1294 -30 l 2,18,19
 1320 -30 1320 -30 1330 -40 c 128,-1,20
 1340 -50 1340 -50 1344 -82 c 1,21,22
 1344 -116 1344 -116 1312 -128 c 1,23,-1
 1294 -130 l 1,24,-1
 1118 -130 l 2,25,26
 1044 -130 1044 -130 1000 -168 c 128,-1,27
 956 -206 956 -206 924 -303 c 128,-1,28
 892 -400 892 -400 758 -442 c 0,29,30
 662 -472 662 -472 560 -472 c 0,31,32
 424 -472 424 -472 344 -432 c 0,33,34
 234 -376 234 -376 234 -266 c 0,35,36
 234 -154 234 -154 334 -104 c 0,37,38
 406 -68 406 -68 532 -68 c 1,39,-1
 586 -70 l 2,40,41
 616 -70 616 -70 632 -74 c 1,42,43
 686 -74 686 -74 686 -130 c 0,44,45
 686 -144 686 -144 677 -153 c 128,-1,46
 668 -162 668 -162 632 -166 c 1,47,-1
 566 -164 l 2,48,49
 528 -164 528 -164 508 -160 c 1,50,51
 426 -160 426 -160 378 -181 c 128,-1,52
 330 -202 330 -202 330 -266 c 0,53,54
 330 -332 330 -332 416 -364 c 0,55,56
 480 -388 480 -388 558 -388 c 0,57,58
 694 -388 694 -388 762 -348 c 128,-1,59
 830 -308 830 -308 852 -242 c 0,60,61
 870 -178 870 -178 894 -148 c 128,-1,62
 918 -118 918 -118 952 -100 c 1,63,64
 880 -100 880 -100 804 -44 c 0,65,66
 702 32 702 32 702 164 c 0,67,68
 702 326 702 326 850 402 c 0,69,70
 898 426 898 426 1000 444 c 1,71,-1
 988 416 l 2,72,73
 976 380 976 380 976 328 c 2,74,-1
 978 276 l 2,75,76
 982 252 982 252 1012 214 c 128,-1,77
 1042 176 1042 176 1088 176 c 0,78,79
 1132 176 1132 176 1164 223 c 128,-1,80
 1196 270 1196 270 1196 320 c 0,81,82
 1196 506 1196 506 1058 626 c 128,-1,83
 920 746 920 746 688 746 c 0,84,85
 472 746 472 746 334 640 c 0,86,87
 234 564 234 564 192 458 c 0,88,89
 170 402 170 402 170 338 c 0,90,91
 170 242 170 242 224 170 c 1,92,93
 280 102 280 102 360 102 c 0,94,95
 420 102 420 102 463 139 c 128,-1,96
 506 176 506 176 506 234 c 0,97,98
 506 294 506 294 475 328 c 128,-1,99
 444 362 444 362 396 362 c 0,100,101
 324 362 324 362 298 286 c 1,102,103
 268 284 268 284 252 300 c 1,104,105
 240 318 240 318 240 344 c 0,106,107
 240 362 240 362 244 372 c 0,108,109
 262 408 262 408 302 433 c 128,-1,110
 342 458 342 458 398 458 c 0,111,112
 494 458 494 458 552 388 c 0,113,114
 602 322 602 322 602 234 c 0,115,116
 602 132 602 132 534 73 c 128,-1,117
 466 14 466 14 362 14 c 0,118,119
 230 14 230 14 151 111 c 128,-1,120
 72 208 72 208 72 340 c 0,121,122
 72 550 72 550 258 696 c 128,-1,123
 444 842 444 842 712 842 c 0,124,125
 1048 842 1048 842 1250 709 c 128,-1,126
 1452 576 1452 576 1452 346 c 0,0,1
EndSplineSet
EndChar

StartChar: tm_oo
Encoding: 2963 2963 60
Width: 1520
GlyphClass: 2
Flags: W
LayerCount: 2
Fore
SplineSet
1464 370 m 0,0,1
 1464 210 1464 210 1340 134 c 0,2,3
 1246 76 1246 76 1106 76 c 0,4,5
 1008 76 1008 76 947 134 c 128,-1,6
 886 192 886 192 886 276 c 1,7,-1
 892 322 l 1,8,9
 860 314 860 314 828 268 c 128,-1,10
 796 222 796 222 796 170 c 0,11,12
 796 70 796 70 904 16 c 0,13,14
 978 -18 978 -18 1074 -18 c 2,15,-1
 1294 -18 l 2,16,17
 1316 -20 1316 -20 1330 -33 c 128,-1,18
 1344 -46 1344 -46 1344 -76 c 0,19,20
 1344 -104 1344 -104 1320 -122 c 1,21,-1
 1294 -130 l 1,22,-1
 1098 -130 l 1,23,24
 1068 -134 1068 -134 1049 -141 c 128,-1,25
 1030 -148 1030 -148 1012 -164 c 0,26,27
 960 -210 960 -210 928 -305 c 128,-1,28
 896 -400 896 -400 812 -442 c 0,29,30
 748 -472 748 -472 666 -472 c 0,31,32
 484 -472 484 -472 396 -448 c 0,33,34
 230 -402 230 -402 230 -262 c 0,35,36
 230 -174 230 -174 316 -114 c 1,37,38
 404 -60 404 -60 520 -60 c 0,39,40
 610 -60 610 -60 676 -93 c 128,-1,41
 742 -126 742 -126 768 -194 c 1,42,-1
 776 -228 l 1,43,-1
 782 -264 l 2,44,45
 782 -286 782 -286 778 -294 c 0,46,47
 768 -320 768 -320 734 -320 c 0,48,49
 712 -320 712 -320 696 -296 c 1,50,-1
 682 -238 l 2,51,52
 680 -216 680 -216 654 -196 c 128,-1,53
 628 -176 628 -176 596 -176 c 0,54,55
 560 -176 560 -176 531 -200 c 128,-1,56
 502 -224 502 -224 502 -268 c 0,57,58
 502 -322 502 -322 556 -352 c 0,59,60
 598 -376 598 -376 660 -376 c 0,61,62
 768 -376 768 -376 814 -306 c 1,63,-1
 870 -184 l 2,64,65
 884 -152 884 -152 906 -126 c 0,66,67
 926 -108 926 -108 952 -100 c 1,68,69
 878 -100 878 -100 800 -42 c 0,70,71
 692 36 692 36 692 164 c 0,72,73
 692 324 692 324 846 402 c 0,74,75
 896 426 896 426 1000 444 c 1,76,-1
 992 420 l 2,77,78
 984 384 984 384 982 376 c 0,79,80
 982 354 982 354 982 344 c 2,81,-1
 982 320 l 1,82,-1
 988 274 l 2,83,84
 988 252 988 252 1015 214 c 128,-1,85
 1042 176 1042 176 1088 176 c 0,86,87
 1130 176 1130 176 1155 221 c 128,-1,88
 1180 266 1180 266 1180 320 c 0,89,90
 1180 498 1180 498 1046 605 c 128,-1,91
 912 712 912 712 704 712 c 0,92,93
 500 712 500 712 354 620 c 0,94,95
 242 550 242 550 200 450 c 0,96,97
 176 386 176 386 176 330 c 0,98,99
 176 238 176 238 231 172 c 128,-1,100
 286 106 286 106 368 106 c 0,101,102
 426 106 426 106 467 141 c 128,-1,103
 508 176 508 176 508 234 c 256,104,105
 508 292 508 292 474 326 c 0,106,107
 444 360 444 360 398 360 c 0,108,109
 326 360 326 360 300 286 c 1,110,111
 284 282 284 282 280 282 c 0,112,113
 258 282 258 282 249 301 c 128,-1,114
 240 320 240 320 240 344 c 0,115,116
 240 364 240 364 244 372 c 0,117,118
 264 412 264 412 302 436 c 1,119,120
 342 456 342 456 392 456 c 0,121,122
 492 456 492 456 549 390 c 128,-1,123
 606 324 606 324 606 234 c 0,124,125
 606 134 606 134 540 70 c 0,126,127
 474 10 474 10 370 10 c 0,128,129
 230 10 230 10 144 116 c 0,130,131
 70 212 70 212 70 340 c 0,132,133
 70 548 70 548 266 691 c 128,-1,134
 462 834 462 834 736 834 c 0,135,136
 1024 834 1024 834 1220 736 c 0,137,138
 1464 612 1464 612 1464 370 c 0,0,1
EndSplineSet
EndChar

StartChar: tm_au
Encoding: 2964 2964 61
Width: 3288
GlyphClass: 2
Flags: W
LayerCount: 2
Fore
SplineSet
3245 790 m 0,0,1
 3245 738 3245 738 3195 738 c 2,2,-1
 3061 738 l 1,3,-1
 3061 80 l 1,4,5
 3049 44 3049 44 3027 28 c 0,6,7
 2987 0 2987 0 2925 0 c 0,8,9
 2849 0 2849 0 2801 40 c 1,10,-1
 2769 80 l 1,11,-1
 2769 738 l 1,12,-1
 2457 738 l 1,13,-1
 2457 60 l 2,14,15
 2457 32 2457 32 2445 14 c 0,16,17
 2435 4 2435 4 2407 0 c 0,18,19
 2381 0 2381 0 2367 16 c 1,20,21
 2361 30 2361 30 2357 60 c 1,22,-1
 2357 430 l 2,23,24
 2357 524 2357 524 2279 618 c 0,25,26
 2175 740 2175 740 1997 740 c 0,27,28
 1867 740 1867 740 1771 650 c 1,29,30
 1667 546 1667 546 1667 374 c 0,31,32
 1667 272 1667 272 1721 194 c 0,33,34
 1787 100 1787 100 1907 100 c 0,35,36
 2003 100 2003 100 2051 148 c 0,37,38
 2089 190 2089 190 2089 256 c 0,39,40
 2089 308 2089 308 2058 348 c 128,-1,41
 2027 388 2027 388 1973 388 c 0,42,43
 1917 388 1917 388 1883 354 c 128,-1,44
 1849 320 1849 320 1849 246 c 1,45,46
 1835 236 1835 236 1825 236 c 0,47,48
 1805 236 1805 236 1786 252 c 128,-1,49
 1767 268 1767 268 1759 312 c 1,50,51
 1759 392 1759 392 1827 448 c 0,52,53
 1883 492 1883 492 1969 492 c 0,54,55
 2081 492 2081 492 2143 410 c 0,56,57
 2193 342 2193 342 2193 256 c 0,58,59
 2193 138 2193 138 2109 68 c 128,-1,60
 2025 -2 2025 -2 1903 -2 c 0,61,62
 1753 -2 1753 -2 1656 107 c 128,-1,63
 1559 216 1559 216 1559 386 c 0,64,65
 1559 590 1559 590 1692 717 c 128,-1,66
 1825 844 1825 844 2003 844 c 0,67,68
 2145 844 2145 844 2251 778 c 0,69,70
 2329 728 2329 728 2357 658 c 1,71,-1
 2357 838 l 1,72,-1
 3193 838 l 2,73,74
 3245 838 3245 838 3245 790 c 0,0,1
1452 346 m 0,75,76
 1452 184 1452 184 1322 122 c 0,77,78
 1248 88 1248 88 1102 88 c 0,79,80
 1016 88 1016 88 950 148 c 0,81,82
 920 178 920 178 904 212 c 128,-1,83
 888 246 888 246 888 288 c 1,84,-1
 892 322 l 1,85,86
 860 314 860 314 828 268 c 128,-1,87
 796 222 796 222 796 170 c 0,88,89
 796 64 796 64 894 10 c 0,90,91
 968 -30 968 -30 1074 -30 c 2,92,-1
 1294 -30 l 2,93,94
 1320 -30 1320 -30 1330 -40 c 128,-1,95
 1340 -50 1340 -50 1344 -82 c 1,96,97
 1344 -116 1344 -116 1312 -128 c 1,98,-1
 1294 -130 l 1,99,-1
 1118 -130 l 2,100,101
 1044 -130 1044 -130 1000 -168 c 128,-1,102
 956 -206 956 -206 924 -303 c 128,-1,103
 892 -400 892 -400 758 -442 c 0,104,105
 662 -472 662 -472 560 -472 c 0,106,107
 424 -472 424 -472 344 -432 c 0,108,109
 234 -376 234 -376 234 -266 c 0,110,111
 234 -154 234 -154 334 -104 c 0,112,113
 406 -68 406 -68 532 -68 c 1,114,-1
 586 -70 l 2,115,116
 616 -70 616 -70 632 -74 c 1,117,118
 686 -74 686 -74 686 -130 c 0,119,120
 686 -144 686 -144 677 -153 c 128,-1,121
 668 -162 668 -162 632 -166 c 1,122,-1
 566 -164 l 2,123,124
 528 -164 528 -164 508 -160 c 1,125,126
 426 -160 426 -160 378 -181 c 128,-1,127
 330 -202 330 -202 330 -266 c 0,128,129
 330 -332 330 -332 416 -364 c 0,130,131
 480 -388 480 -388 558 -388 c 0,132,133
 694 -388 694 -388 762 -348 c 128,-1,134
 830 -308 830 -308 852 -242 c 0,135,136
 870 -178 870 -178 894 -148 c 128,-1,137
 918 -118 918 -118 952 -100 c 1,138,139
 880 -100 880 -100 804 -44 c 0,140,141
 702 32 702 32 702 164 c 0,142,143
 702 326 702 326 850 402 c 0,144,145
 898 426 898 426 1000 444 c 1,146,-1
 988 416 l 2,147,148
 976 380 976 380 976 328 c 2,149,-1
 978 276 l 2,150,151
 982 252 982 252 1012 214 c 128,-1,152
 1042 176 1042 176 1088 176 c 0,153,154
 1132 176 1132 176 1164 223 c 128,-1,155
 1196 270 1196 270 1196 320 c 0,156,157
 1196 506 1196 506 1058 626 c 128,-1,158
 920 746 920 746 688 746 c 0,159,160
 472 746 472 746 334 640 c 0,161,162
 234 564 234 564 192 458 c 0,163,164
 170 402 170 402 170 338 c 0,165,166
 170 242 170 242 224 170 c 1,167,168
 280 102 280 102 360 102 c 0,169,170
 420 102 420 102 463 139 c 128,-1,171
 506 176 506 176 506 234 c 0,172,173
 506 294 506 294 475 328 c 128,-1,174
 444 362 444 362 396 362 c 0,175,176
 324 362 324 362 298 286 c 1,177,178
 268 284 268 284 252 300 c 1,179,180
 240 318 240 318 240 344 c 0,181,182
 240 362 240 362 244 372 c 0,183,184
 262 408 262 408 302 433 c 128,-1,185
 342 458 342 458 398 458 c 0,186,187
 494 458 494 458 552 388 c 0,188,189
 602 322 602 322 602 234 c 0,190,191
 602 132 602 132 534 73 c 128,-1,192
 466 14 466 14 362 14 c 0,193,194
 230 14 230 14 151 111 c 128,-1,195
 72 208 72 208 72 340 c 0,196,197
 72 550 72 550 258 696 c 128,-1,198
 444 842 444 842 712 842 c 0,199,200
 1048 842 1048 842 1250 709 c 128,-1,201
 1452 576 1452 576 1452 346 c 0,75,76
EndSplineSet
EndChar

StartChar: tm_ka
Encoding: 2965 2965 62
Width: 1260
GlyphClass: 2
Flags: W
LayerCount: 2
Fore
SplineSet
1230 260 m 0,0,1
 1230 132 1230 132 1164 60 c 0,2,3
 1110 0 1110 0 1024 0 c 1,4,-1
 1002 2 l 2,5,6
 972 2 972 2 956 10 c 2,7,-1
 946 18 l 1,8,-1
 930 32 l 1,9,10
 918 48 918 48 922 76 c 0,11,12
 928 98 928 98 937 102 c 128,-1,13
 946 106 946 106 972 106 c 1,14,-1
 990 98 l 1,15,-1
 1020 94 l 1,16,17
 1078 94 1078 94 1108 148 c 1,18,19
 1128 194 1128 194 1128 262 c 0,20,21
 1128 338 1128 338 1084 376 c 0,22,23
 1048 406 1048 406 996 406 c 2,24,-1
 902 406 l 1,25,-1
 902 274 l 2,26,27
 902 164 902 164 826 100 c 0,28,29
 708 0 708 0 416 0 c 0,30,31
 276 0 276 0 182 70 c 0,32,33
 78 150 78 150 78 290 c 0,34,35
 78 402 78 402 158 458 c 0,36,37
 186 478 186 478 212 488 c 128,-1,38
 238 498 238 498 268 498 c 1,39,-1
 268 838 l 1,40,-1
 1062 838 l 2,41,42
 1090 838 1090 838 1105 828 c 128,-1,43
 1120 818 1120 818 1122 786 c 0,44,45
 1122 760 1122 760 1107 751 c 128,-1,46
 1092 742 1092 742 1060 738 c 1,47,-1
 902 738 l 1,48,-1
 902 508 l 1,49,-1
 978 508 l 2,50,51
 1100 508 1100 508 1165 444 c 128,-1,52
 1230 380 1230 380 1230 260 c 0,0,1
630 508 m 1,53,-1
 630 738 l 1,54,-1
 368 738 l 1,55,-1
 368 508 l 1,56,-1
 630 508 l 1,53,-1
630 268 m 2,57,-1
 630 406 l 1,58,-1
 324 406 l 2,59,60
 278 406 278 406 238 388 c 0,61,62
 178 358 178 358 178 284 c 0,63,64
 178 174 178 174 274 122 c 0,65,66
 338 88 338 88 416 88 c 0,67,68
 538 88 538 88 592 148 c 0,69,70
 630 192 630 192 630 268 c 2,57,-1
EndSplineSet
EndChar

StartChar: tm_nga
Encoding: 2969 2969 63
Width: 1320
GlyphClass: 2
Flags: W
LayerCount: 2
Fore
SplineSet
1264 0 m 1,0,-1
 374 0 l 1,1,-1
 352 8 l 1,2,3
 328 24 328 24 328 54 c 256,4,5
 328 84 328 84 350 96 c 1,6,-1
 374 100 l 1,7,-1
 612 100 l 1,8,9
 644 118 644 118 662 138 c 0,10,11
 712 198 712 198 712 296 c 0,12,13
 712 354 712 354 684 398 c 0,14,15
 646 460 646 460 578 460 c 256,16,17
 510 460 510 460 470 426 c 0,18,19
 458 416 458 416 444 392 c 1,20,-1
 444 232 l 1,21,-1
 436 212 l 1,22,23
 420 192 420 192 386 192 c 0,24,25
 358 192 358 192 340 212 c 1,26,-1
 332 232 l 1,27,-1
 332 738 l 1,28,-1
 178 738 l 1,29,-1
 178 54 l 2,30,31
 178 34 178 34 174 28 c 0,32,33
 162 0 162 0 128 0 c 256,34,35
 94 0 94 0 82 36 c 2,36,-1
 78 54 l 1,37,-1
 78 838 l 1,38,-1
 796 838 l 2,39,40
 810 838 810 838 816 834 c 0,41,42
 838 822 838 822 838 786 c 0,43,44
 838 760 838 760 828 750 c 1,45,-1
 796 738 l 1,46,-1
 444 738 l 1,47,-1
 444 522 l 1,48,49
 456 542 456 542 484 552 c 0,50,51
 526 570 526 570 580 570 c 0,52,53
 696 570 696 570 766 476 c 0,54,55
 828 392 828 392 828 292 c 0,56,57
 828 220 828 220 803 166 c 128,-1,58
 778 112 778 112 754 100 c 1,59,-1
 972 100 l 1,60,-1
 972 758 l 1,61,62
 978 784 978 784 992 798 c 0,63,64
 1032 840 1032 840 1118 840 c 0,65,66
 1206 840 1206 840 1244 800 c 0,67,68
 1254 790 1254 790 1264 758 c 1,69,-1
 1264 0 l 1,0,-1
EndSplineSet
EndChar

StartChar: tm_ca
Encoding: 2970 2970 64
Width: 1160
GlyphClass: 2
Flags: W
LayerCount: 2
Fore
SplineSet
1120 454 m 0,0,1
 1120 432 1120 432 1102 416 c 0,2,3
 1090 410 1090 410 1058 406 c 1,4,-1
 902 406 l 1,5,-1
 902 274 l 2,6,7
 902 164 902 164 826 100 c 0,8,9
 708 0 708 0 416 0 c 0,10,11
 276 0 276 0 182 70 c 0,12,13
 78 150 78 150 78 290 c 0,14,15
 78 402 78 402 158 458 c 0,16,17
 186 478 186 478 212 488 c 128,-1,18
 238 498 238 498 268 498 c 1,19,-1
 268 838 l 1,20,-1
 1062 838 l 2,21,22
 1088 838 1088 838 1101 827 c 128,-1,23
 1114 816 1114 816 1118 784 c 0,24,25
 1118 756 1118 756 1102 746 c 1,26,-1
 1060 738 l 1,27,-1
 902 738 l 1,28,-1
 902 508 l 1,29,-1
 1058 508 l 2,30,31
 1120 508 1120 508 1120 454 c 0,0,1
630 508 m 1,32,-1
 630 738 l 1,33,-1
 368 738 l 1,34,-1
 368 508 l 1,35,-1
 630 508 l 1,32,-1
630 268 m 2,36,-1
 630 406 l 1,37,-1
 324 406 l 2,38,39
 278 406 278 406 238 388 c 0,40,41
 178 358 178 358 178 284 c 0,42,43
 178 174 178 174 274 122 c 0,44,45
 338 88 338 88 416 88 c 0,46,47
 538 88 538 88 592 148 c 0,48,49
 630 192 630 192 630 268 c 2,36,-1
EndSplineSet
EndChar

StartChar: tm_ja
Encoding: 2972 2972 65
Width: 1410
GlyphClass: 2
Flags: W
LayerCount: 2
Fore
SplineSet
1374 446 m 0,0,1
 1374 268 1374 268 1264 182 c 128,-1,2
 1154 96 1154 96 962 96 c 2,3,-1
 414 96 l 2,4,5
 310 96 310 96 242 20 c 0,6,7
 184 -48 184 -48 184 -138 c 0,8,9
 184 -242 184 -242 256 -312 c 0,10,11
 324 -374 324 -374 404 -374 c 0,12,13
 500 -374 500 -374 554 -344 c 0,14,15
 620 -308 620 -308 620 -216 c 0,16,17
 620 -96 620 -96 746 -36 c 0,18,19
 844 8 844 8 964 8 c 0,20,21
 1174 8 1174 8 1276 -64 c 0,22,23
 1366 -128 1366 -128 1366 -242 c 0,24,25
 1366 -362 1366 -362 1289 -416 c 128,-1,26
 1212 -470 1212 -470 1036 -470 c 0,27,28
 942 -470 942 -470 890 -424 c 128,-1,29
 838 -378 838 -378 838 -314 c 0,30,31
 838 -244 838 -244 878 -244 c 0,32,33
 900 -244 900 -244 914 -256 c 128,-1,34
 928 -268 928 -268 934 -304 c 128,-1,35
 940 -340 940 -340 969 -358 c 128,-1,36
 998 -376 998 -376 1034 -376 c 0,37,38
 1092 -376 1092 -376 1115 -339 c 128,-1,39
 1138 -302 1138 -302 1138 -244 c 0,40,41
 1138 -176 1138 -176 1091 -132 c 128,-1,42
 1044 -88 1044 -88 964 -88 c 0,43,44
 910 -88 910 -88 871 -94 c 128,-1,45
 832 -100 832 -100 800 -116 c 0,46,47
 716 -156 716 -156 716 -254 c 256,48,49
 716 -352 716 -352 634 -410 c 0,50,51
 556 -470 556 -470 412 -470 c 0,52,53
 274 -470 274 -470 180 -384 c 0,54,55
 78 -290 78 -290 78 -134 c 256,56,57
 78 22 78 22 188 114 c 0,58,59
 286 196 286 196 422 196 c 2,60,-1
 908 196 l 2,61,62
 1028 196 1028 196 1082 274 c 0,63,64
 1126 344 1126 344 1126 476 c 0,65,66
 1126 592 1126 592 1071 661 c 128,-1,67
 1016 730 1016 730 934 730 c 0,68,69
 842 730 842 730 786 660 c 0,70,71
 740 602 740 602 740 526 c 2,72,-1
 740 318 l 2,73,74
 740 298 740 298 732 287 c 128,-1,75
 724 276 724 276 692 272 c 0,76,77
 662 272 662 272 648 294 c 1,78,-1
 640 318 l 1,79,-1
 640 526 l 2,80,81
 640 618 640 618 556 684 c 0,82,83
 484 738 484 738 408 738 c 0,84,85
 322 738 322 738 258 692 c 0,86,87
 180 638 180 638 180 532 c 0,88,89
 180 448 180 448 226 408 c 0,90,91
 264 376 264 376 308 376 c 0,92,93
 368 376 368 376 402 404 c 1,94,95
 434 436 434 436 434 478 c 0,96,97
 434 532 434 532 403 556 c 128,-1,98
 372 580 372 580 330 580 c 2,99,-1
 304 578 l 1,100,101
 296 586 296 586 296 592 c 0,102,103
 296 616 296 616 315 639 c 128,-1,104
 334 662 334 662 372 662 c 0,105,106
 432 662 432 662 478 616 c 0,107,108
 532 562 532 562 532 480 c 0,109,110
 532 390 532 390 470 335 c 128,-1,111
 408 280 408 280 312 280 c 0,112,113
 212 280 212 280 144 357 c 128,-1,114
 76 434 76 434 76 534 c 0,115,116
 76 664 76 664 167 752 c 128,-1,117
 258 840 258 840 406 840 c 0,118,119
 568 840 568 840 644 752 c 0,120,121
 668 726 668 726 688 664 c 1,122,123
 702 700 702 700 714 718 c 0,124,125
 798 838 798 838 984 838 c 0,126,127
 1158 838 1158 838 1260 744 c 0,128,129
 1374 642 1374 642 1374 446 c 0,0,1
EndSplineSet
EndChar

StartChar: tm_nya
Encoding: 2974 2974 66
Width: 1780
GlyphClass: 2
Flags: W
LayerCount: 2
Fore
SplineSet
1742 196 m 0,0,1
 1742 -120 1742 -120 1470 -290 c 0,2,3
 1244 -430 1244 -430 928 -430 c 0,4,5
 774 -430 774 -430 596 -364 c 0,6,7
 376 -280 376 -280 240 -118 c 0,8,9
 74 82 74 82 74 374 c 0,10,11
 74 506 74 506 115 636 c 128,-1,12
 156 766 156 766 218 824 c 0,13,14
 242 848 242 848 268 850 c 0,15,16
 316 850 316 850 316 800 c 0,17,18
 316 778 316 778 302 756 c 0,19,20
 230 672 230 672 200 544 c 0,21,22
 180 448 180 448 180 346 c 0,23,24
 180 58 180 58 420 -144 c 0,25,26
 642 -330 642 -330 930 -330 c 0,27,28
 1222 -330 1222 -330 1420 -198 c 0,29,30
 1636 -54 1636 -54 1636 196 c 0,31,32
 1636 228 1636 228 1628 265 c 128,-1,33
 1620 302 1620 302 1602 338 c 0,34,35
 1556 436 1556 436 1474 436 c 0,36,37
 1412 436 1412 436 1378 404 c 1,38,-1
 1344 356 l 1,39,-1
 1344 80 l 1,40,-1
 1320 40 l 1,41,42
 1280 0 1280 0 1204 0 c 0,43,44
 1120 0 1120 0 1078 40 c 0,45,46
 1066 52 1066 52 1052 80 c 1,47,-1
 1052 738 l 1,48,-1
 732 738 l 2,49,50
 638 738 638 738 548 672 c 0,51,52
 420 572 420 572 420 372 c 0,53,54
 420 270 420 270 474 192 c 0,55,56
 542 100 542 100 660 100 c 0,57,58
 756 100 756 100 804 148 c 0,59,60
 842 190 842 190 842 254 c 0,61,62
 842 308 842 308 811 348 c 128,-1,63
 780 388 780 388 726 388 c 0,64,65
 670 388 670 388 636 354 c 128,-1,66
 602 320 602 320 602 246 c 1,67,68
 588 236 588 236 578 236 c 0,69,70
 558 236 558 236 539 252 c 128,-1,71
 520 268 520 268 512 312 c 1,72,73
 512 390 512 390 580 446 c 0,74,75
 636 490 636 490 722 490 c 0,76,77
 834 490 834 490 896 410 c 0,78,79
 946 342 946 342 946 256 c 0,80,81
 946 138 946 138 862 68 c 128,-1,82
 778 -2 778 -2 656 -2 c 0,83,84
 502 -2 502 -2 408 110 c 128,-1,85
 314 222 314 222 314 396 c 0,86,87
 314 616 314 616 466 738 c 0,88,89
 594 838 594 838 748 838 c 2,90,-1
 1476 838 l 2,91,92
 1528 838 1528 838 1528 786 c 0,93,94
 1528 738 1528 738 1478 738 c 2,95,-1
 1344 738 l 1,96,-1
 1344 478 l 1,97,98
 1356 500 1356 500 1384 518 c 0,99,100
 1416 534 1416 534 1480 534 c 0,101,102
 1596 534 1596 534 1669 440 c 128,-1,103
 1742 346 1742 346 1742 196 c 0,0,1
EndSplineSet
EndChar

StartChar: tm_tta
Encoding: 2975 2975 67
Width: 1090
GlyphClass: 2
Flags: W
LayerCount: 2
Fore
SplineSet
1008 0 m 2,0,-1
 80 0 l 1,1,-1
 80 758 l 1,2,-1
 86 782 l 1,3,4
 116 840 116 840 228 840 c 0,5,6
 312 840 312 840 350 800 c 0,7,8
 358 792 358 792 372 758 c 1,9,-1
 372 100 l 1,10,-1
 1006 100 l 2,11,12
 1054 100 1054 100 1054 48 c 0,13,14
 1054 0 1054 0 1008 0 c 2,0,-1
EndSplineSet
EndChar

StartChar: tm_nna
Encoding: 2979 2979 68
Width: 2350
GlyphClass: 2
Flags: W
LayerCount: 2
Fore
SplineSet
2318 786 m 0,0,1
 2318 760 2318 760 2302 750 c 0,2,3
 2290 738 2290 738 2262 738 c 2,4,-1
 2150 738 l 1,5,-1
 2150 80 l 1,6,7
 2146 62 2146 62 2140 52 c 0,8,9
 2104 -12 2104 -12 2014 -12 c 0,10,11
 1930 -12 1930 -12 1886 34 c 0,12,13
 1876 44 1876 44 1858 80 c 1,14,-1
 1858 738 l 1,15,-1
 1740 738 l 2,16,17
 1670 738 1670 738 1624 722 c 0,18,19
 1608 716 1608 716 1588 710 c 128,-1,20
 1568 704 1568 704 1544 688 c 1,21,22
 1592 660 1592 660 1650 562 c 0,23,24
 1716 448 1716 448 1716 334 c 0,25,26
 1716 136 1716 136 1638 52 c 0,27,28
 1584 -6 1584 -6 1494 -6 c 0,29,30
 1398 -6 1398 -6 1338 93 c 128,-1,31
 1278 192 1278 192 1278 324 c 0,32,33
 1278 418 1278 418 1314 523 c 128,-1,34
 1350 628 1350 628 1402 674 c 1,35,36
 1360 700 1360 700 1298 719 c 128,-1,37
 1236 738 1236 738 1182 738 c 0,38,39
 1096 738 1096 738 1038 720 c 0,40,41
 1006 710 1006 710 972 688 c 1,42,43
 1026 652 1026 652 1076 560 c 0,44,45
 1138 442 1138 442 1138 334 c 0,46,47
 1138 142 1138 142 1060 54 c 0,48,49
 1006 -6 1006 -6 918 -6 c 0,50,51
 822 -6 822 -6 761 91 c 128,-1,52
 700 188 700 188 700 324 c 0,53,54
 700 422 700 422 739 524 c 128,-1,55
 778 626 778 626 826 674 c 1,56,57
 782 704 782 704 708 726 c 0,58,59
 676 734 676 734 639 740 c 128,-1,60
 602 746 602 746 566 746 c 0,61,62
 386 746 386 746 277 636 c 128,-1,63
 168 526 168 526 168 366 c 0,64,65
 168 274 168 274 200 204 c 0,66,67
 252 90 252 90 372 90 c 0,68,69
 430 90 430 90 468 137 c 128,-1,70
 506 184 506 184 506 248 c 0,71,72
 506 300 506 300 475 339 c 128,-1,73
 444 378 444 378 392 378 c 0,74,75
 350 378 350 378 324 352 c 128,-1,76
 298 326 298 326 298 286 c 1,77,-1
 304 254 l 1,78,79
 288 242 288 242 262 271 c 128,-1,80
 236 300 236 300 236 338 c 0,81,82
 236 360 236 360 244 382 c 0,83,84
 262 422 262 422 300 452 c 1,85,86
 340 478 340 478 390 478 c 0,87,88
 488 478 488 478 547 410 c 128,-1,89
 606 342 606 342 606 248 c 0,90,91
 606 138 606 138 545 68 c 128,-1,92
 484 -2 484 -2 370 -2 c 0,93,94
 248 -2 248 -2 164 90 c 0,95,96
 74 192 74 192 74 370 c 0,97,98
 74 562 74 562 210 700 c 128,-1,99
 346 838 346 838 578 838 c 0,100,101
 686 838 686 838 764 810 c 0,102,103
 834 788 834 788 890 746 c 1,104,105
 928 778 928 778 988 804 c 0,106,107
 1074 838 1074 838 1176 838 c 0,108,109
 1230 838 1230 838 1273 832 c 128,-1,110
 1316 826 1316 826 1368 808 c 128,-1,111
 1420 790 1420 790 1470 750 c 1,112,113
 1494 772 1494 772 1541 793 c 128,-1,114
 1588 814 1588 814 1616 820 c 128,-1,115
 1644 826 1644 826 1670 830 c 128,-1,116
 1696 834 1696 834 1734 834 c 2,117,-1
 1840 838 l 1,118,-1
 2266 838 l 2,119,120
 2318 838 2318 838 2318 786 c 0,0,1
1612 328 m 0,121,122
 1612 406 1612 406 1569 491 c 128,-1,123
 1526 576 1526 576 1472 618 c 1,124,125
 1450 596 1450 596 1414 512 c 0,126,127
 1394 460 1394 460 1384 417 c 128,-1,128
 1374 374 1374 374 1374 328 c 0,129,130
 1374 244 1374 244 1400 174 c 0,131,132
 1434 88 1434 88 1490 88 c 0,133,134
 1556 88 1556 88 1588 170 c 0,135,136
 1612 234 1612 234 1612 328 c 0,121,122
1032 340 m 0,137,138
 1032 406 1032 406 992 491 c 128,-1,139
 952 576 952 576 898 618 c 1,140,141
 872 600 872 600 834 506 c 128,-1,142
 796 412 796 412 796 328 c 0,143,144
 796 248 796 248 826 168 c 128,-1,145
 856 88 856 88 914 88 c 0,146,147
 968 88 968 88 1000 147 c 128,-1,148
 1032 206 1032 206 1032 340 c 0,137,138
EndSplineSet
EndChar

StartChar: tm_ta
Encoding: 2980 2980 69
Width: 1240
GlyphClass: 2
Flags: W
LayerCount: 2
Fore
SplineSet
1220 146 m 0,0,1
 1220 -50 1220 -50 1098 -158 c 1,2,3
 988 -250 988 -250 820 -250 c 2,4,-1
 278 -250 l 2,5,6
 234 -250 234 -250 204 -262 c 0,7,8
 182 -274 182 -274 170 -326 c 0,9,10
 164 -356 164 -356 178 -384 c 128,-1,11
 192 -412 192 -412 228 -427 c 128,-1,12
 264 -442 264 -442 264 -478 c 1,13,-1
 258 -498 l 1,14,15
 244 -524 244 -524 212 -524 c 0,16,17
 178 -524 178 -524 141 -495 c 128,-1,18
 104 -466 104 -466 86 -426 c 1,19,20
 72 -384 72 -384 72 -336 c 0,21,22
 72 -252 72 -252 129 -201 c 128,-1,23
 186 -150 186 -150 288 -150 c 2,24,-1
 796 -150 l 2,25,26
 970 -150 970 -150 1048 -46 c 0,27,28
 1104 28 1104 28 1104 144 c 0,29,30
 1104 290 1104 290 1054 354 c 0,31,32
 1014 406 1014 406 940 406 c 2,33,-1
 902 406 l 1,34,-1
 902 278 l 2,35,36
 902 164 902 164 826 100 c 0,37,38
 708 0 708 0 416 0 c 0,39,40
 276 0 276 0 182 70 c 0,41,42
 78 150 78 150 78 290 c 0,43,44
 78 402 78 402 158 458 c 0,45,46
 186 478 186 478 212 488 c 128,-1,47
 238 498 238 498 268 498 c 1,48,-1
 268 838 l 1,49,-1
 1042 838 l 2,50,51
 1070 838 1070 838 1085 828 c 128,-1,52
 1100 818 1100 818 1102 786 c 0,53,54
 1102 760 1102 760 1087 751 c 128,-1,55
 1072 742 1072 742 1040 738 c 1,56,-1
 902 738 l 1,57,-1
 902 508 l 1,58,-1
 956 508 l 2,59,60
 1096 508 1096 508 1168 382 c 0,61,62
 1220 288 1220 288 1220 146 c 0,0,1
630 508 m 1,63,-1
 630 738 l 1,64,-1
 368 738 l 1,65,-1
 368 508 l 1,66,-1
 630 508 l 1,63,-1
630 272 m 2,67,-1
 630 406 l 1,68,-1
 324 406 l 2,69,70
 278 406 278 406 238 388 c 0,71,72
 178 358 178 358 178 284 c 0,73,74
 178 174 178 174 274 122 c 0,75,76
 338 88 338 88 416 88 c 0,77,78
 538 88 538 88 592 150 c 0,79,80
 630 198 630 198 630 272 c 2,67,-1
EndSplineSet
EndChar

StartChar: tm_na
Encoding: 2984 2984 70
Width: 1080
GlyphClass: 2
Flags: W
LayerCount: 2
Fore
SplineSet
1040 146 m 0,0,1
 1040 -50 1040 -50 918 -158 c 1,2,3
 808 -250 808 -250 640 -250 c 2,4,-1
 278 -250 l 2,5,6
 234 -250 234 -250 204 -262 c 0,7,8
 182 -274 182 -274 170 -326 c 0,9,10
 164 -356 164 -356 178 -384 c 128,-1,11
 192 -412 192 -412 228 -427 c 128,-1,12
 264 -442 264 -442 264 -478 c 1,13,-1
 258 -498 l 1,14,15
 244 -524 244 -524 212 -524 c 0,16,17
 178 -524 178 -524 141 -495 c 128,-1,18
 104 -466 104 -466 86 -426 c 1,19,20
 72 -384 72 -384 72 -336 c 0,21,22
 72 -252 72 -252 129 -201 c 128,-1,23
 186 -150 186 -150 288 -150 c 2,24,-1
 616 -150 l 2,25,26
 790 -150 790 -150 868 -46 c 0,27,28
 924 28 924 28 924 144 c 0,29,30
 924 290 924 290 874 354 c 0,31,32
 834 406 834 406 760 406 c 2,33,-1
 722 406 l 1,34,-1
 722 78 l 1,35,36
 716 52 716 52 706 40 c 0,37,38
 672 0 672 0 592 0 c 0,39,40
 528 0 528 0 488 24 c 0,41,42
 468 36 468 36 450 80 c 1,43,-1
 450 738 l 1,44,-1
 208 738 l 1,45,-1
 208 68 l 1,46,-1
 208 34 l 1,47,48
 202 0 202 0 160 0 c 0,49,50
 122 0 122 0 110 34 c 1,51,-1
 108 68 l 1,52,-1
 108 838 l 1,53,-1
 860 838 l 2,54,55
 890 838 890 838 904 829 c 128,-1,56
 918 820 918 820 922 786 c 0,57,58
 922 758 922 758 904 746 c 1,59,-1
 860 738 l 1,60,-1
 722 738 l 1,61,-1
 722 508 l 1,62,-1
 776 508 l 2,63,64
 916 508 916 508 988 382 c 0,65,66
 1040 288 1040 288 1040 146 c 0,0,1
EndSplineSet
EndChar

StartChar: tm_nnna
Encoding: 2985 2985 71
Width: 1760
GlyphClass: 2
Flags: W
LayerCount: 2
Fore
SplineSet
1730 786 m 0,0,1
 1730 760 1730 760 1714 750 c 0,2,3
 1702 738 1702 738 1674 738 c 2,4,-1
 1562 738 l 1,5,-1
 1562 80 l 1,6,7
 1552 50 1552 50 1540 34 c 0,8,9
 1504 -12 1504 -12 1416 -12 c 0,10,11
 1348 -12 1348 -12 1312 16 c 0,12,13
 1288 32 1288 32 1270 80 c 1,14,-1
 1270 738 l 1,15,-1
 1152 738 l 2,16,17
 1082 738 1082 738 1036 722 c 0,18,19
 1020 716 1020 716 1000 710 c 128,-1,20
 980 704 980 704 956 688 c 1,21,22
 1002 666 1002 666 1065 559 c 128,-1,23
 1128 452 1128 452 1128 334 c 0,24,25
 1128 136 1128 136 1050 52 c 0,26,27
 996 -6 996 -6 908 -6 c 0,28,29
 812 -6 812 -6 751 91 c 128,-1,30
 690 188 690 188 690 324 c 0,31,32
 690 418 690 418 726 523 c 128,-1,33
 762 628 762 628 814 674 c 1,34,35
 770 704 770 704 696 726 c 0,36,37
 666 734 666 734 629 740 c 128,-1,38
 592 746 592 746 556 746 c 0,39,40
 380 746 380 746 264 630 c 0,41,42
 158 520 158 520 158 364 c 0,43,44
 158 230 158 230 211 160 c 128,-1,45
 264 90 264 90 362 90 c 0,46,47
 420 90 420 90 458 137 c 128,-1,48
 496 184 496 184 496 248 c 0,49,50
 496 300 496 300 465 339 c 128,-1,51
 434 378 434 378 382 378 c 0,52,53
 340 378 340 378 314 352 c 128,-1,54
 288 326 288 326 288 286 c 1,55,-1
 294 254 l 1,56,57
 278 242 278 242 252 271 c 128,-1,58
 226 300 226 300 226 338 c 0,59,60
 226 360 226 360 234 382 c 0,61,62
 252 422 252 422 290 452 c 1,63,64
 330 478 330 478 380 478 c 0,65,66
 478 478 478 478 537 410 c 128,-1,67
 596 342 596 342 596 248 c 0,68,69
 596 138 596 138 535 68 c 128,-1,70
 474 -2 474 -2 360 -2 c 0,71,72
 238 -2 238 -2 154 90 c 0,73,74
 64 192 64 192 64 370 c 0,75,76
 64 572 64 572 196 702 c 0,77,78
 336 838 336 838 568 838 c 0,79,80
 622 838 622 838 665 832 c 128,-1,81
 708 826 708 826 761 807 c 128,-1,82
 814 788 814 788 874 746 c 1,83,84
 936 798 936 798 1036 822 c 0,85,86
 1046 824 1046 824 1079 829 c 128,-1,87
 1112 834 1112 834 1146 834 c 2,88,-1
 1252 838 l 1,89,-1
 1678 838 l 2,90,91
 1730 838 1730 838 1730 786 c 0,0,1
1022 340 m 0,92,93
 1022 410 1022 410 977 499 c 128,-1,94
 932 588 932 588 884 618 c 1,95,96
 862 596 862 596 826 512 c 0,97,98
 806 460 806 460 796 417 c 128,-1,99
 786 374 786 374 786 328 c 0,100,101
 786 248 786 248 816 168 c 128,-1,102
 846 88 846 88 904 88 c 0,103,104
 958 88 958 88 990 147 c 128,-1,105
 1022 206 1022 206 1022 340 c 0,92,93
EndSplineSet
EndChar

StartChar: tm_pa
Encoding: 2986 2986 72
Width: 870
GlyphClass: 2
Flags: W
LayerCount: 2
Fore
SplineSet
832 0 m 1,0,-1
 80 0 l 1,1,-1
 80 764 l 2,2,3
 80 792 80 792 84 802 c 0,4,5
 96 840 96 840 132 840 c 0,6,7
 164 840 164 840 176 802 c 1,8,-1
 180 764 l 1,9,-1
 180 100 l 1,10,-1
 540 100 l 1,11,-1
 540 758 l 1,12,13
 552 796 552 796 572 814 c 0,14,15
 582 820 582 820 609 830 c 128,-1,16
 636 840 636 840 676 840 c 0,17,18
 770 840 770 840 810 800 c 0,19,20
 818 792 818 792 832 758 c 1,21,-1
 832 0 l 1,0,-1
EndSplineSet
EndChar

StartChar: tm_ma
Encoding: 2990 2990 73
Width: 1060
GlyphClass: 2
Flags: W
LayerCount: 2
Fore
SplineSet
1034 370 m 0,0,1
 1034 184 1034 184 944 92 c 128,-1,2
 854 0 854 0 688 0 c 2,3,-1
 80 0 l 1,4,-1
 80 758 l 1,5,-1
 82 802 l 1,6,7
 92 846 92 846 130 846 c 0,8,9
 170 846 170 846 180 786 c 1,10,-1
 180 758 l 1,11,-1
 180 96 l 1,12,-1
 412 96 l 1,13,-1
 412 530 l 2,14,15
 412 680 412 680 486 766 c 0,16,17
 552 842 552 842 656 842 c 0,18,19
 866 842 866 842 958 702 c 0,20,21
 1034 586 1034 586 1034 370 c 0,0,1
784 380 m 0,22,23
 784 544 784 544 766 616 c 0,24,25
 736 738 736 738 644 738 c 0,26,27
 578 738 578 738 545 691 c 128,-1,28
 512 644 512 644 512 572 c 2,29,-1
 512 96 l 1,30,31
 630 96 630 96 684 130 c 0,32,33
 784 190 784 190 784 380 c 0,22,23
EndSplineSet
EndChar

StartChar: tm_ya
Encoding: 2991 2991 74
Width: 1260
GlyphClass: 2
Flags: W
LayerCount: 2
Fore
SplineSet
1218 0 m 1,0,-1
 486 0 l 1,1,-1
 486 152 l 1,2,3
 480 104 480 104 434 58 c 0,4,5
 374 -2 374 -2 286 -2 c 0,6,7
 174 -2 174 -2 122 92 c 0,8,9
 80 168 80 168 80 294 c 2,10,-1
 80 758 l 2,11,12
 80 792 80 792 87 819 c 128,-1,13
 94 846 94 846 130 846 c 0,14,15
 160 846 160 846 176 804 c 1,16,-1
 180 760 l 1,17,-1
 180 310 l 1,18,-1
 180 278 l 2,19,20
 180 200 180 200 196 160 c 0,21,22
 220 92 220 92 290 92 c 0,23,24
 394 92 394 92 450 216 c 0,25,26
 486 300 486 300 486 372 c 2,27,-1
 486 758 l 2,28,29
 486 792 486 792 490 802 c 0,30,31
 502 848 502 848 536 848 c 0,32,33
 572 848 572 848 584 804 c 1,34,-1
 586 758 l 1,35,-1
 586 100 l 1,36,-1
 946 100 l 1,37,-1
 946 758 l 1,38,39
 952 786 952 786 964 802 c 0,40,41
 1000 848 1000 848 1086 848 c 0,42,43
 1158 848 1158 848 1196 804 c 0,44,45
 1206 794 1206 794 1218 758 c 1,46,-1
 1218 0 l 1,0,-1
EndSplineSet
EndChar

StartChar: tm_ra
Encoding: 2992 2992 75
Width: 1090
GlyphClass: 2
Flags: W
LayerCount: 2
Fore
SplineSet
1044 788 m 0,0,1
 1044 762 1044 762 1028 748 c 0,2,3
 1016 742 1016 742 982 738 c 1,4,-1
 784 738 l 1,5,-1
 784 18 l 1,6,7
 704 6 704 6 656 -20 c 0,8,9
 580 -58 580 -58 490 -140 c 0,10,11
 450 -180 450 -180 408 -240 c 1,12,-1
 380 -288 l 1,13,-1
 368 -302 l 1,14,15
 354 -312 354 -312 332 -316 c 0,16,17
 320 -316 320 -316 300 -305 c 128,-1,18
 280 -294 280 -294 280 -266 c 1,19,-1
 284 -240 l 1,20,-1
 294 -218 l 1,21,-1
 308 -196 l 1,22,-1
 370 -116 l 1,23,-1
 440 -44 l 1,24,-1
 492 2 l 1,25,-1
 492 738 l 1,26,-1
 180 738 l 1,27,-1
 180 74 l 1,28,-1
 178 36 l 1,29,30
 168 -4 168 -4 130 -4 c 0,31,32
 96 -4 96 -4 84 34 c 1,33,-1
 80 74 l 1,34,-1
 80 838 l 1,35,-1
 982 838 l 2,36,37
 1010 838 1010 838 1027 828 c 128,-1,38
 1044 818 1044 818 1044 788 c 0,0,1
EndSplineSet
EndChar

StartChar: tm_rra
Encoding: 2993 2993 76
Width: 1130
GlyphClass: 2
Flags: W
LayerCount: 2
Fore
SplineSet
1060 330 m 0,0,1
 1060 -10 1060 -10 900 -144 c 0,2,3
 772 -250 772 -250 508 -250 c 2,4,-1
 262 -250 l 2,5,6
 218 -250 218 -250 188 -262 c 0,7,8
 166 -274 166 -274 154 -326 c 0,9,10
 148 -356 148 -356 162 -384 c 128,-1,11
 176 -412 176 -412 212 -427 c 128,-1,12
 248 -442 248 -442 248 -478 c 1,13,-1
 242 -498 l 1,14,15
 228 -524 228 -524 196 -524 c 0,16,17
 162 -524 162 -524 125 -495 c 128,-1,18
 88 -466 88 -466 70 -426 c 1,19,20
 56 -384 56 -384 56 -336 c 0,21,22
 56 -252 56 -252 113 -201 c 128,-1,23
 170 -150 170 -150 272 -150 c 2,24,-1
 512 -150 l 2,25,26
 670 -150 670 -150 732 -50 c 128,-1,27
 794 50 794 50 794 336 c 2,28,-1
 794 416 l 2,29,30
 794 558 794 558 772 630 c 0,31,32
 738 746 738 746 646 746 c 0,33,34
 592 746 592 746 555 709 c 128,-1,35
 518 672 518 672 518 596 c 2,36,-1
 518 50 l 2,37,38
 518 30 518 30 514 22 c 0,39,40
 502 -6 502 -6 468 -6 c 0,41,42
 438 -6 438 -6 424 22 c 1,43,-1
 418 50 l 1,44,-1
 418 600 l 2,45,46
 418 686 418 686 378 720 c 0,47,48
 348 746 348 746 306 746 c 0,49,50
 252 746 252 746 222 718 c 0,51,52
 180 682 180 682 180 604 c 2,53,-1
 180 44 l 1,54,-1
 172 18 l 1,55,56
 160 -6 160 -6 128 -8 c 0,57,58
 98 -8 98 -8 86 18 c 1,59,-1
 80 46 l 1,60,-1
 80 612 l 2,61,62
 80 694 80 694 124 758 c 0,63,64
 154 800 154 800 196 822 c 128,-1,65
 238 844 238 844 296 844 c 0,66,67
 368 844 368 844 419 809 c 128,-1,68
 470 774 470 774 470 726 c 1,69,70
 478 780 478 780 542 813 c 128,-1,71
 606 846 606 846 672 846 c 0,72,73
 892 846 892 846 988 694 c 0,74,75
 1060 574 1060 574 1060 330 c 0,0,1
EndSplineSet
EndChar

StartChar: tm_la
Encoding: 2994 2994 77
Width: 1470
GlyphClass: 2
Flags: W
LayerCount: 2
Fore
SplineSet
1436 430 m 0,0,1
 1436 206 1436 206 1348 106 c 0,2,3
 1254 -4 1254 -4 1032 -4 c 0,4,5
 912 -4 912 -4 846 68 c 128,-1,6
 780 140 780 140 780 252 c 2,7,-1
 780 488 l 2,8,9
 780 598 780 598 693 670 c 128,-1,10
 606 742 606 742 476 742 c 0,11,12
 418 742 418 742 368 720 c 128,-1,13
 318 698 318 698 267 650 c 128,-1,14
 216 602 216 602 190 539 c 128,-1,15
 164 476 164 476 164 392 c 0,16,17
 164 282 164 282 212 198 c 0,18,19
 272 92 272 92 392 92 c 0,20,21
 482 92 482 92 526 144 c 0,22,23
 560 188 560 188 560 256 c 0,24,25
 560 312 560 312 532 352 c 0,26,27
 498 400 498 400 440 400 c 0,28,29
 334 400 334 400 334 246 c 1,30,31
 320 236 320 236 308 236 c 0,32,33
 286 236 286 236 267 252 c 128,-1,34
 248 268 248 268 240 312 c 1,35,36
 240 368 240 368 284 420 c 0,37,38
 344 490 344 490 450 490 c 0,39,40
 552 490 552 490 614 414 c 0,41,42
 666 346 666 346 666 258 c 0,43,44
 666 134 666 134 593 64 c 128,-1,45
 520 -6 520 -6 400 -6 c 0,46,47
 250 -6 250 -6 156 109 c 128,-1,48
 62 224 62 224 62 400 c 0,49,50
 62 594 62 594 204 724 c 0,51,52
 332 842 332 842 492 842 c 0,53,54
 656 842 656 842 768 746 c 128,-1,55
 880 650 880 650 880 484 c 2,56,-1
 880 266 l 2,57,58
 880 184 880 184 916 136 c 0,59,60
 952 94 952 94 1018 94 c 0,61,62
 1112 94 1112 94 1154 198 c 0,63,64
 1182 276 1182 276 1182 430 c 0,65,66
 1182 542 1182 542 1140 636 c 0,67,68
 1092 744 1092 744 996 744 c 1,69,-1
 966 746 l 2,70,71
 946 746 946 746 946 786 c 0,72,73
 946 820 946 820 976 838 c 1,74,-1
 1008 848 l 1,75,76
 1038 848 1038 848 1060 848 c 128,-1,77
 1082 848 1082 848 1132 838 c 128,-1,78
 1182 828 1182 828 1232 804 c 128,-1,79
 1282 780 1282 780 1324 740 c 0,80,81
 1436 632 1436 632 1436 430 c 0,0,1
EndSplineSet
EndChar

StartChar: tm_lla
Encoding: 2995 2995 78
Width: 1780
GlyphClass: 2
Flags: W
LayerCount: 2
Fore
SplineSet
1760 790 m 0,0,1
 1760 738 1760 738 1710 738 c 2,2,-1
 1576 738 l 1,3,-1
 1576 80 l 1,4,5
 1564 44 1564 44 1542 28 c 0,6,7
 1502 0 1502 0 1440 0 c 0,8,9
 1364 0 1364 0 1316 40 c 1,10,-1
 1284 80 l 1,11,-1
 1284 738 l 1,12,-1
 972 738 l 1,13,-1
 972 60 l 2,14,15
 972 32 972 32 960 14 c 0,16,17
 950 4 950 4 922 0 c 0,18,19
 896 0 896 0 882 16 c 1,20,21
 876 30 876 30 872 60 c 1,22,-1
 872 430 l 2,23,24
 872 524 872 524 794 618 c 0,25,26
 690 740 690 740 512 740 c 0,27,28
 382 740 382 740 286 650 c 1,29,30
 182 546 182 546 182 374 c 0,31,32
 182 272 182 272 236 194 c 0,33,34
 302 100 302 100 422 100 c 0,35,36
 518 100 518 100 566 148 c 0,37,38
 604 190 604 190 604 256 c 0,39,40
 604 308 604 308 573 348 c 128,-1,41
 542 388 542 388 488 388 c 0,42,43
 432 388 432 388 398 354 c 128,-1,44
 364 320 364 320 364 246 c 1,45,46
 350 236 350 236 340 236 c 0,47,48
 320 236 320 236 301 252 c 128,-1,49
 282 268 282 268 274 312 c 1,50,51
 274 392 274 392 342 448 c 0,52,53
 398 492 398 492 484 492 c 0,54,55
 596 492 596 492 658 410 c 0,56,57
 708 342 708 342 708 256 c 0,58,59
 708 138 708 138 624 68 c 128,-1,60
 540 -2 540 -2 418 -2 c 0,61,62
 268 -2 268 -2 171 107 c 128,-1,63
 74 216 74 216 74 386 c 0,64,65
 74 590 74 590 207 717 c 128,-1,66
 340 844 340 844 518 844 c 0,67,68
 660 844 660 844 766 778 c 0,69,70
 844 728 844 728 872 658 c 1,71,-1
 872 838 l 1,72,-1
 1708 838 l 2,73,74
 1760 838 1760 838 1760 790 c 0,0,1
EndSplineSet
EndChar

StartChar: tm_llla
Encoding: 2996 2996 79
Width: 1072
GlyphClass: 2
Flags: W
LayerCount: 2
Fore
SplineSet
1034 370 m 0,0,1
 1034 184 1034 184 944 92 c 128,-1,2
 854 0 854 0 688 0 c 2,3,-1
 522 0 l 1,4,5
 522 -18 522 -18 531 -41 c 128,-1,6
 540 -64 540 -64 552 -72 c 0,7,8
 592 -108 592 -108 658 -129 c 128,-1,9
 724 -150 724 -150 812 -150 c 2,10,-1
 936 -150 l 2,11,12
 962 -150 962 -150 973 -159 c 128,-1,13
 984 -168 984 -168 988 -202 c 1,14,15
 988 -250 988 -250 938 -250 c 2,16,-1
 830 -250 l 2,17,18
 748 -250 748 -250 726 -256 c 0,19,20
 676 -272 676 -272 676 -328 c 0,21,22
 676 -394 676 -394 626 -438 c 0,23,24
 550 -504 550 -504 376 -504 c 0,25,26
 248 -504 248 -504 168 -460 c 0,27,28
 76 -408 76 -408 76 -298 c 0,29,30
 76 -208 76 -208 133 -159 c 128,-1,31
 190 -110 190 -110 266 -110 c 1,32,-1
 288 -112 l 2,33,34
 370 -122 370 -122 410 -152 c 0,35,36
 440 -176 440 -176 440 -206 c 0,37,38
 440 -218 440 -218 431 -226 c 128,-1,39
 422 -234 422 -234 402 -238 c 1,40,41
 382 -232 382 -232 372 -228 c 2,42,-1
 334 -210 l 1,43,-1
 288 -198 l 2,44,45
 250 -192 250 -192 205 -217 c 128,-1,46
 160 -242 160 -242 160 -296 c 0,47,48
 160 -364 160 -364 226 -398 c 0,49,50
 250 -408 250 -408 291 -416 c 128,-1,51
 332 -424 332 -424 376 -424 c 0,52,53
 474 -424 474 -424 520 -404 c 0,54,55
 584 -380 584 -380 584 -318 c 0,56,57
 584 -272 584 -272 608 -240 c 128,-1,58
 632 -208 632 -208 670 -208 c 1,59,60
 612 -208 612 -208 559 -181 c 128,-1,61
 506 -154 506 -154 464 -106 c 0,62,63
 448 -86 448 -86 432 -56 c 1,64,-1
 414 0 l 1,65,-1
 80 0 l 1,66,-1
 80 758 l 1,67,-1
 82 802 l 1,68,69
 92 846 92 846 130 846 c 0,70,71
 170 846 170 846 180 786 c 1,72,-1
 180 758 l 1,73,-1
 180 100 l 1,74,-1
 412 100 l 1,75,-1
 412 530 l 2,76,77
 412 680 412 680 486 766 c 0,78,79
 552 842 552 842 656 842 c 0,80,81
 866 842 866 842 958 702 c 0,82,83
 1034 586 1034 586 1034 370 c 0,0,1
784 380 m 0,84,85
 784 544 784 544 766 616 c 0,86,87
 736 738 736 738 644 738 c 0,88,89
 578 738 578 738 545 691 c 128,-1,90
 512 644 512 644 512 572 c 2,91,-1
 512 100 l 1,92,93
 632 100 632 100 684 132 c 0,94,95
 784 192 784 192 784 380 c 0,84,85
EndSplineSet
EndChar

StartChar: tm_va
Encoding: 2997 2997 80
Width: 1510
GlyphClass: 2
Flags: W
LayerCount: 2
Fore
SplineSet
1476 0 m 1,0,-1
 778 0 l 1,1,-1
 758 8 l 1,2,3
 742 20 742 20 738 50 c 1,4,5
 738 100 738 100 780 100 c 1,6,7
 814 106 814 106 844 132 c 1,8,-1
 862 162 l 2,9,10
 868 176 868 176 872 210 c 1,11,-1
 872 388 l 2,12,13
 872 558 872 558 781 648 c 128,-1,14
 690 738 690 738 530 738 c 0,15,16
 372 738 372 738 277 646 c 128,-1,17
 182 554 182 554 182 394 c 0,18,19
 182 286 182 286 236 202 c 0,20,21
 302 96 302 96 422 96 c 0,22,23
 518 96 518 96 566 146 c 0,24,25
 604 188 604 188 604 254 c 0,26,27
 604 308 604 308 573 348 c 128,-1,28
 542 388 542 388 488 388 c 0,29,30
 432 388 432 388 398 354 c 128,-1,31
 364 320 364 320 364 246 c 1,32,33
 350 236 350 236 340 236 c 0,34,35
 320 236 320 236 301 252 c 128,-1,36
 282 268 282 268 274 312 c 1,37,38
 274 390 274 390 342 446 c 0,39,40
 398 490 398 490 484 490 c 0,41,42
 596 490 596 490 658 410 c 0,43,44
 708 342 708 342 708 256 c 0,45,46
 708 134 708 134 627 64 c 128,-1,47
 546 -6 546 -6 422 -6 c 0,48,49
 270 -6 270 -6 173 107 c 128,-1,50
 76 220 76 220 76 394 c 0,51,52
 76 594 76 594 214 724 c 0,53,54
 342 842 342 842 530 842 c 0,55,56
 730 842 730 842 851 730 c 128,-1,57
 972 618 972 618 972 418 c 2,58,-1
 972 262 l 2,59,60
 972 188 972 188 954 146 c 0,61,62
 946 124 946 124 910 100 c 1,63,-1
 1184 100 l 1,64,-1
 1184 758 l 1,65,66
 1194 786 1194 786 1206 798 c 0,67,68
 1248 840 1248 840 1332 840 c 0,69,70
 1418 840 1418 840 1456 800 c 0,71,72
 1466 790 1466 790 1476 758 c 1,73,-1
 1476 0 l 1,0,-1
EndSplineSet
EndChar

StartChar: tm_ssa
Encoding: 2999 2999 81
Width: 2190
GlyphClass: 2
Flags: W
LayerCount: 2
Fore
SplineSet
2158 0 m 1,0,-1
 1766 0 l 1,1,-1
 1766 -276 l 1,2,3
 1754 -310 1754 -310 1730 -328 c 0,4,5
 1686 -356 1686 -356 1620 -356 c 0,6,7
 1538 -356 1538 -356 1498 -316 c 0,8,9
 1484 -302 1484 -302 1474 -276 c 1,10,-1
 1474 0 l 1,11,-1
 778 0 l 1,12,-1
 758 8 l 1,13,14
 742 20 742 20 738 50 c 1,15,16
 738 100 738 100 780 100 c 1,17,18
 814 106 814 106 844 132 c 1,19,-1
 862 162 l 2,20,21
 868 176 868 176 872 210 c 1,22,-1
 872 388 l 2,23,24
 872 558 872 558 781 648 c 128,-1,25
 690 738 690 738 530 738 c 0,26,27
 372 738 372 738 277 646 c 128,-1,28
 182 554 182 554 182 394 c 0,29,30
 182 286 182 286 236 202 c 0,31,32
 302 96 302 96 422 96 c 0,33,34
 518 96 518 96 566 146 c 0,35,36
 604 188 604 188 604 254 c 0,37,38
 604 308 604 308 573 348 c 128,-1,39
 542 388 542 388 488 388 c 0,40,41
 432 388 432 388 398 354 c 128,-1,42
 364 320 364 320 364 246 c 1,43,44
 350 236 350 236 340 236 c 0,45,46
 320 236 320 236 301 252 c 128,-1,47
 282 268 282 268 274 312 c 1,48,49
 274 390 274 390 342 446 c 0,50,51
 398 490 398 490 484 490 c 0,52,53
 596 490 596 490 658 410 c 0,54,55
 708 342 708 342 708 256 c 0,56,57
 708 134 708 134 627 64 c 128,-1,58
 546 -6 546 -6 422 -6 c 0,59,60
 270 -6 270 -6 173 107 c 128,-1,61
 76 220 76 220 76 394 c 0,62,63
 76 594 76 594 214 724 c 0,64,65
 342 842 342 842 530 842 c 0,66,67
 730 842 730 842 851 730 c 128,-1,68
 972 618 972 618 972 418 c 2,69,-1
 972 262 l 2,70,71
 972 188 972 188 954 146 c 0,72,73
 946 124 946 124 910 100 c 1,74,-1
 1474 100 l 1,75,-1
 1474 256 l 1,76,-1
 1446 254 l 2,77,78
 1426 254 1426 254 1414 258 c 1,79,80
 1310 258 1310 258 1230 304 c 0,81,82
 1102 378 1102 378 1102 536 c 0,83,84
 1102 662 1102 662 1182 748 c 0,85,86
 1270 842 1270 842 1420 842 c 0,87,88
 1552 842 1552 842 1640 800 c 0,89,90
 1766 740 1766 740 1766 590 c 2,91,-1
 1766 382 l 1,92,-1
 1838 400 l 2,93,94
 1864 408 1864 408 1882 417 c 128,-1,95
 1900 426 1900 426 1908 430 c 0,96,97
 1960 454 1960 454 1996 482 c 0,98,99
 2048 518 2048 518 2056 548 c 1,100,101
 2056 568 2056 568 2072 581 c 128,-1,102
 2088 594 2088 594 2108 594 c 0,103,104
 2138 594 2138 594 2150 572 c 1,105,-1
 2158 548 l 1,106,-1
 2158 0 l 1,0,-1
1474 348 m 1,107,-1
 1474 588 l 2,108,109
 1474 646 1474 646 1452 684 c 0,110,111
 1424 736 1424 736 1364 736 c 256,112,113
 1304 736 1304 736 1255 681 c 128,-1,114
 1206 626 1206 626 1206 534 c 0,115,116
 1206 440 1206 440 1278 388 c 0,117,118
 1336 348 1336 348 1412 348 c 2,119,-1
 1474 348 l 1,107,-1
2056 100 m 1,120,-1
 2056 400 l 1,121,122
 2042 386 2042 386 1998 364 c 2,123,-1
 1906 322 l 1,124,-1
 1834 296 l 1,125,-1
 1766 284 l 1,126,-1
 1766 100 l 1,127,-1
 2056 100 l 1,120,-1
EndSplineSet
EndChar

StartChar: tm_sa
Encoding: 3000 3000 82
Width: 2020
GlyphClass: 2
Flags: W
LayerCount: 2
Fore
SplineSet
1976 430 m 0,0,1
 1976 206 1976 206 1888 106 c 0,2,3
 1794 -4 1794 -4 1572 -4 c 0,4,5
 1452 -4 1452 -4 1386 68 c 128,-1,6
 1320 140 1320 140 1320 252 c 2,7,-1
 1320 502 l 2,8,9
 1320 630 1320 630 1272 684 c 128,-1,10
 1224 738 1224 738 1142 738 c 0,11,12
 1056 738 1056 738 1008 678 c 0,13,14
 972 630 972 630 972 560 c 2,15,-1
 972 58 l 2,16,17
 972 0 972 0 922 0 c 0,18,19
 896 0 896 0 882 16 c 1,20,21
 876 30 876 30 872 60 c 1,22,-1
 872 430 l 2,23,24
 872 524 872 524 794 618 c 0,25,26
 690 740 690 740 512 740 c 0,27,28
 374 740 374 740 284 652 c 0,29,30
 178 552 178 552 178 378 c 0,31,32
 178 276 178 276 234 194 c 0,33,34
 302 96 302 96 422 96 c 0,35,36
 518 96 518 96 566 146 c 0,37,38
 604 190 604 190 604 256 c 0,39,40
 604 308 604 308 573 348 c 128,-1,41
 542 388 542 388 488 388 c 0,42,43
 432 388 432 388 398 354 c 128,-1,44
 364 320 364 320 364 246 c 1,45,46
 350 236 350 236 340 236 c 0,47,48
 320 236 320 236 301 252 c 128,-1,49
 282 268 282 268 274 312 c 1,50,51
 274 392 274 392 342 448 c 0,52,53
 398 492 398 492 484 492 c 0,54,55
 596 492 596 492 658 410 c 0,56,57
 708 342 708 342 708 256 c 0,58,59
 708 138 708 138 624 68 c 128,-1,60
 540 -2 540 -2 418 -2 c 0,61,62
 268 -2 268 -2 171 107 c 128,-1,63
 74 216 74 216 74 382 c 0,64,65
 74 584 74 584 207 714 c 128,-1,66
 340 844 340 844 518 844 c 0,67,68
 660 844 660 844 774 772 c 0,69,70
 862 712 862 712 890 640 c 1,71,72
 890 692 890 692 944 758 c 0,73,74
 1016 842 1016 842 1142 842 c 0,75,76
 1286 842 1286 842 1358 746 c 0,77,78
 1420 660 1420 660 1420 504 c 2,79,-1
 1420 266 l 2,80,81
 1420 184 1420 184 1456 136 c 0,82,83
 1492 94 1492 94 1558 94 c 0,84,85
 1652 94 1652 94 1694 198 c 0,86,87
 1722 276 1722 276 1722 430 c 0,88,89
 1722 542 1722 542 1680 636 c 0,90,91
 1632 744 1632 744 1536 744 c 0,92,93
 1514 744 1514 744 1504 750 c 0,94,95
 1486 762 1486 762 1486 790 c 0,96,97
 1486 824 1486 824 1516 840 c 1,98,-1
 1548 848 l 1,99,100
 1578 848 1578 848 1600 848 c 128,-1,101
 1622 848 1622 848 1672 838 c 128,-1,102
 1722 828 1722 828 1772 804 c 128,-1,103
 1822 780 1822 780 1864 740 c 0,104,105
 1976 632 1976 632 1976 430 c 0,0,1
EndSplineSet
EndChar

StartChar: tm_ha
Encoding: 3001 3001 83
Width: 2180
GlyphClass: 2
Flags: W
LayerCount: 2
Fore
SplineSet
2160 330 m 0,0,1
 2160 -10 2160 -10 2000 -144 c 0,2,3
 1872 -250 1872 -250 1608 -250 c 2,4,-1
 282 -250 l 2,5,6
 238 -250 238 -250 208 -262 c 0,7,8
 186 -274 186 -274 174 -326 c 0,9,10
 168 -356 168 -356 182 -384 c 128,-1,11
 196 -412 196 -412 232 -427 c 128,-1,12
 268 -442 268 -442 268 -478 c 1,13,-1
 262 -498 l 1,14,15
 248 -524 248 -524 216 -524 c 0,16,17
 182 -524 182 -524 145 -495 c 128,-1,18
 108 -466 108 -466 90 -426 c 1,19,20
 76 -384 76 -384 76 -336 c 0,21,22
 76 -252 76 -252 133 -201 c 128,-1,23
 190 -150 190 -150 292 -150 c 2,24,-1
 1612 -150 l 2,25,26
 1770 -150 1770 -150 1832 -50 c 128,-1,27
 1894 50 1894 50 1894 336 c 2,28,-1
 1894 416 l 2,29,30
 1894 558 1894 558 1872 630 c 0,31,32
 1838 746 1838 746 1746 746 c 0,33,34
 1692 746 1692 746 1655 709 c 128,-1,35
 1618 672 1618 672 1618 596 c 2,36,-1
 1618 50 l 2,37,38
 1618 30 1618 30 1614 22 c 0,39,40
 1602 -6 1602 -6 1568 -6 c 0,41,42
 1538 -6 1538 -6 1524 22 c 1,43,-1
 1518 50 l 1,44,-1
 1518 600 l 2,45,46
 1518 686 1518 686 1478 720 c 0,47,48
 1448 746 1448 746 1406 746 c 0,49,50
 1352 746 1352 746 1322 718 c 0,51,52
 1280 682 1280 682 1280 604 c 2,53,-1
 1280 0 l 1,54,-1
 778 0 l 1,55,-1
 758 8 l 1,56,57
 742 20 742 20 738 50 c 1,58,59
 738 100 738 100 780 100 c 1,60,61
 814 106 814 106 844 132 c 1,62,-1
 862 162 l 2,63,64
 868 176 868 176 872 210 c 1,65,-1
 872 388 l 2,66,67
 872 558 872 558 781 648 c 128,-1,68
 690 738 690 738 530 738 c 0,69,70
 372 738 372 738 277 646 c 128,-1,71
 182 554 182 554 182 394 c 0,72,73
 182 286 182 286 236 202 c 0,74,75
 302 96 302 96 422 96 c 0,76,77
 518 96 518 96 566 146 c 0,78,79
 604 188 604 188 604 254 c 0,80,81
 604 308 604 308 573 348 c 128,-1,82
 542 388 542 388 488 388 c 0,83,84
 432 388 432 388 398 354 c 128,-1,85
 364 320 364 320 364 246 c 1,86,87
 350 236 350 236 340 236 c 0,88,89
 320 236 320 236 301 252 c 128,-1,90
 282 268 282 268 274 312 c 1,91,92
 274 390 274 390 342 446 c 0,93,94
 398 490 398 490 484 490 c 0,95,96
 596 490 596 490 658 410 c 0,97,98
 708 342 708 342 708 256 c 0,99,100
 708 134 708 134 627 64 c 128,-1,101
 546 -6 546 -6 422 -6 c 0,102,103
 270 -6 270 -6 173 107 c 128,-1,104
 76 220 76 220 76 394 c 0,105,106
 76 594 76 594 214 724 c 0,107,108
 342 842 342 842 530 842 c 0,109,110
 730 842 730 842 851 730 c 128,-1,111
 972 618 972 618 972 418 c 2,112,-1
 972 262 l 2,113,114
 972 188 972 188 954 146 c 0,115,116
 946 124 946 124 910 100 c 1,117,-1
 1180 100 l 1,118,-1
 1180 612 l 2,119,120
 1180 694 1180 694 1224 758 c 0,121,122
 1254 800 1254 800 1296 822 c 128,-1,123
 1338 844 1338 844 1396 844 c 0,124,125
 1468 844 1468 844 1519 809 c 128,-1,126
 1570 774 1570 774 1570 726 c 1,127,128
 1578 780 1578 780 1642 813 c 128,-1,129
 1706 846 1706 846 1772 846 c 0,130,131
 1992 846 1992 846 2088 694 c 0,132,133
 2160 574 2160 574 2160 330 c 0,0,1
EndSplineSet
EndChar

StartChar: tm_aakaar
Encoding: 3006 3006 84
Width: 1020
GlyphClass: 2
Flags: W
LayerCount: 2
Fore
SplineSet
1004 788 m 0,0,1
 1004 762 1004 762 988 748 c 0,2,3
 976 742 976 742 942 738 c 1,4,-1
 784 738 l 1,5,-1
 784 90 l 1,6,7
 776 46 776 46 754 28 c 128,-1,8
 732 10 732 10 705 2 c 128,-1,9
 678 -6 678 -6 636 -6 c 0,10,11
 552 -6 552 -6 514 40 c 0,12,13
 504 50 504 50 492 86 c 1,14,-1
 492 738 l 1,15,-1
 180 738 l 1,16,-1
 180 74 l 1,17,-1
 178 36 l 1,18,19
 168 -4 168 -4 130 -4 c 0,20,21
 96 -4 96 -4 84 34 c 1,22,-1
 80 74 l 1,23,-1
 80 838 l 1,24,-1
 942 838 l 2,25,26
 970 838 970 838 987 828 c 128,-1,27
 1004 818 1004 818 1004 788 c 0,0,1
EndSplineSet
EndChar

StartChar: tm_ikaar
Encoding: 3007 3007 85
Width: 400
GlyphClass: 2
Flags: W
LayerCount: 2
Fore
SplineSet
340 80 m 1,0,1
 334 42 334 42 310 24 c 0,2,3
 272 -4 272 -4 198 -4 c 0,4,5
 96 -4 96 -4 60 38 c 0,6,7
 52 48 52 48 46 80 c 1,8,-1
 46 922 l 2,9,10
 46 1042 46 1042 -4 1116 c 0,11,12
 -64 1204 -64 1204 -192 1204 c 0,13,14
 -288 1204 -288 1204 -349 1138 c 128,-1,15
 -410 1072 -410 1072 -410 982 c 0,16,17
 -410 934 -410 934 -400 895 c 128,-1,18
 -390 856 -390 856 -374 838 c 1,19,-1
 -476 838 l 1,20,21
 -478 842 -478 842 -486 863 c 128,-1,22
 -494 884 -494 884 -500 909 c 128,-1,23
 -506 934 -506 934 -507 953 c 128,-1,24
 -508 972 -508 972 -508 984 c 0,25,26
 -508 1120 -508 1120 -404 1215 c 128,-1,27
 -300 1310 -300 1310 -146 1310 c 0,28,29
 74 1310 74 1310 192 1222 c 0,30,31
 340 1110 340 1110 340 858 c 2,32,-1
 340 80 l 1,0,1
EndSplineSet
EndChar

StartChar: tm_iikaar
Encoding: 3008 3008 86
Width: 60
GlyphClass: 4
Flags: W
LayerCount: 2
Fore
SplineSet
36 1110 m 0,0,1
 36 1014 36 1014 -31 961 c 128,-1,2
 -98 908 -98 908 -194 908 c 0,3,4
 -282 908 -282 908 -337 954 c 128,-1,5
 -392 1000 -392 1000 -392 1094 c 0,6,7
 -392 1118 -392 1118 -379 1137 c 128,-1,8
 -366 1156 -366 1156 -338 1156 c 0,9,10
 -318 1156 -318 1156 -302 1142 c 0,11,12
 -292 1134 -292 1134 -292 1092 c 1,13,14
 -298 1058 -298 1058 -267 1029 c 128,-1,15
 -236 1000 -236 1000 -190 1000 c 0,16,17
 -128 1000 -128 1000 -96 1032 c 1,18,19
 -68 1066 -68 1066 -68 1108 c 0,20,21
 -68 1168 -68 1168 -112 1212 c 0,22,23
 -168 1264 -168 1264 -270 1264 c 0,24,25
 -378 1264 -378 1264 -445 1199 c 128,-1,26
 -512 1134 -512 1134 -512 1054 c 0,27,28
 -512 968 -512 968 -478 906 c 0,29,30
 -454 858 -454 858 -420 838 c 1,31,-1
 -542 838 l 1,32,33
 -566 856 -566 856 -590 922 c 128,-1,34
 -614 988 -614 988 -614 1052 c 0,35,36
 -614 1162 -614 1162 -524 1256 c 0,37,38
 -420 1360 -420 1360 -264 1360 c 0,39,40
 -122 1360 -122 1360 -43 1293 c 128,-1,41
 36 1226 36 1226 36 1110 c 0,0,1
EndSplineSet
EndChar

StartChar: tm_ukaar
Encoding: 3009 3009 87
Width: 1060
GlyphClass: 4
Flags: W
LayerCount: 2
Fore
SplineSet
944 536 m 0,0,1
 944 366 944 366 796 294 c 0,2,3
 696 246 696 246 522 246 c 0,4,5
 372 246 372 246 288 329 c 128,-1,6
 204 412 204 412 204 558 c 2,7,-1
 204 738 l 1,8,-1
 -150 738 l 2,9,10
 -170 738 -170 738 -178 742 c 0,11,12
 -206 752 -206 752 -206 788 c 0,13,14
 -206 822 -206 822 -178 834 c 1,15,-1
 -150 838 l 1,16,-1
 550 838 l 2,17,18
 732 838 732 838 802 804 c 0,19,20
 944 738 944 738 944 536 c 0,0,1
704 536 m 0,21,22
 704 644 704 644 640 700 c 0,23,24
 592 738 592 738 534 738 c 2,25,-1
 304 738 l 1,26,-1
 304 544 l 2,27,28
 304 450 304 450 356 392 c 1,29,30
 412 336 412 336 522 336 c 0,31,32
 612 336 612 336 662 404 c 0,33,34
 704 462 704 462 704 536 c 0,21,22
EndSplineSet
EndChar

StartChar: tm_uukaar
Encoding: 3010 3010 88
Width: 1430
GlyphClass: 4
Flags: W
LayerCount: 2
Fore
SplineSet
1284 678 m 0,0,1
 1284 348 1284 348 1121 161 c 128,-1,2
 958 -26 958 -26 640 -26 c 0,3,4
 396 -26 396 -26 218 94 c 0,5,6
 162 134 162 134 92 214 c 1,7,-1
 86 226 l 1,8,-1
 78 258 l 1,9,10
 78 280 78 280 91 295 c 128,-1,11
 104 310 104 310 126 310 c 0,12,13
 142 310 142 310 150 306 c 2,14,-1
 170 298 l 1,15,16
 232 224 232 224 280 190 c 0,17,18
 356 136 356 136 443 108 c 128,-1,19
 530 80 530 80 632 80 c 0,20,21
 894 80 894 80 1034 236 c 128,-1,22
 1174 392 1174 392 1174 674 c 0,23,24
 1174 892 1174 892 1036 1053 c 128,-1,25
 898 1214 898 1214 704 1214 c 0,26,27
 496 1214 496 1214 368 1084 c 0,28,29
 258 970 258 970 258 838 c 1,30,-1
 484 838 l 2,31,32
 668 838 668 838 740 808 c 0,33,34
 886 748 886 748 886 544 c 0,35,36
 886 374 886 374 742 302 c 0,37,38
 646 254 646 254 472 254 c 0,39,40
 330 254 330 254 242 339 c 128,-1,41
 154 424 154 424 154 566 c 2,42,-1
 154 738 l 1,43,-1
 -200 738 l 2,44,45
 -220 738 -220 738 -228 742 c 0,46,47
 -256 752 -256 752 -256 788 c 0,48,49
 -256 822 -256 822 -228 834 c 1,50,-1
 -200 838 l 1,51,-1
 156 838 l 1,52,53
 156 980 156 980 272 1122 c 0,54,55
 428 1314 428 1314 708 1314 c 0,56,57
 948 1314 948 1314 1116 1129 c 128,-1,58
 1284 944 1284 944 1284 678 c 0,0,1
650 536 m 0,59,60
 650 644 650 644 588 700 c 0,61,62
 544 738 544 738 484 738 c 2,63,-1
 254 738 l 1,64,-1
 254 560 l 2,65,66
 254 468 254 468 308 406 c 128,-1,67
 362 344 362 344 472 344 c 0,68,69
 564 344 564 344 610 408 c 0,70,71
 630 436 630 436 640 466 c 128,-1,72
 650 496 650 496 650 536 c 0,59,60
EndSplineSet
EndChar

StartChar: tm_ekaar
Encoding: 3014 3014 89
Width: 1248
GlyphClass: 2
Flags: W
LayerCount: 2
Fore
SplineSet
1192 94 m 2,0,1
 1192 72 1192 72 1188 62 c 0,2,3
 1164 -14 1164 -14 1052 -14 c 0,4,5
 964 -14 964 -14 922 40 c 0,6,7
 914 52 914 52 900 94 c 1,8,-1
 900 822 l 2,9,10
 900 994 900 994 819 1110 c 128,-1,11
 738 1226 738 1226 592 1226 c 0,12,13
 408 1226 408 1226 284 1040 c 0,14,15
 174 868 174 868 174 654 c 0,16,17
 174 428 174 428 248 268 c 0,18,19
 336 78 336 78 496 78 c 0,20,21
 584 78 584 78 638 132 c 1,22,23
 688 188 688 188 688 294 c 0,24,25
 688 352 688 352 660 400 c 0,26,27
 622 462 622 462 554 462 c 0,28,29
 504 462 504 462 468 428 c 0,30,31
 422 386 422 386 422 310 c 1,32,-1
 428 250 l 2,33,34
 430 220 430 220 410 206 c 1,35,-1
 384 198 l 1,36,37
 344 198 344 198 336 236 c 2,38,-1
 328 312 l 1,39,40
 328 422 328 422 394 488 c 128,-1,41
 460 554 460 554 552 554 c 0,42,43
 666 554 666 554 732 470 c 0,44,45
 788 396 788 396 788 292 c 0,46,47
 788 144 788 144 709 65 c 128,-1,48
 630 -14 630 -14 502 -14 c 0,49,50
 306 -14 306 -14 191 173 c 128,-1,51
 76 360 76 360 76 654 c 0,52,53
 76 916 76 916 212 1108 c 0,54,55
 362 1322 362 1322 608 1322 c 0,56,57
 848 1322 848 1322 1004 1208 c 0,58,59
 1192 1068 1192 1068 1192 804 c 2,60,-1
 1192 94 l 2,0,1
EndSplineSet
EndChar

StartChar: tm_eekaar
Encoding: 3015 3015 90
Width: 970
GlyphClass: 2
Flags: W
LayerCount: 2
Fore
SplineSet
946 292 m 0,0,1
 946 154 946 154 849 63 c 128,-1,2
 752 -28 752 -28 580 -28 c 0,3,4
 360 -28 360 -28 210 178 c 0,5,6
 72 370 72 370 72 640 c 256,7,8
 72 910 72 910 213 1107 c 128,-1,9
 354 1304 354 1304 580 1304 c 0,10,11
 752 1304 752 1304 852 1210 c 0,12,13
 946 1122 946 1122 946 984 c 256,14,15
 946 846 946 846 846 776 c 0,16,17
 802 746 802 746 751 732 c 128,-1,18
 700 718 700 718 626 718 c 0,19,20
 526 718 526 718 457 785 c 128,-1,21
 388 852 388 852 388 952 c 0,22,23
 388 1006 388 1006 412 1066 c 0,24,25
 424 1098 424 1098 464 1098 c 256,26,27
 504 1098 504 1098 504 1050 c 1,28,29
 474 1004 474 1004 474 952 c 0,30,31
 474 894 474 894 509 853 c 128,-1,32
 544 812 544 812 590 812 c 0,33,34
 668 812 668 812 704 878 c 0,35,36
 726 922 726 922 726 984 c 0,37,38
 726 1068 726 1068 686 1130 c 0,39,40
 638 1208 638 1208 546 1208 c 0,41,42
 376 1208 376 1208 270 1024 c 0,43,44
 172 852 172 852 172 636 c 256,45,46
 172 420 172 420 268 252 c 0,47,48
 374 68 374 68 546 68 c 0,49,50
 634 68 634 68 686 146 c 0,51,52
 726 208 726 208 726 292 c 0,53,54
 726 358 726 358 706 398 c 0,55,56
 672 464 672 464 590 464 c 0,57,58
 548 464 548 464 508 422 c 0,59,60
 474 382 474 382 474 324 c 1,61,-1
 480 274 l 2,62,63
 486 250 486 250 504 226 c 1,64,65
 504 196 504 196 486 184 c 0,66,67
 476 178 476 178 464 178 c 0,68,69
 426 178 426 178 412 210 c 0,70,71
 388 270 388 270 388 326 c 0,72,73
 388 424 388 424 455 491 c 128,-1,74
 522 558 522 558 626 558 c 0,75,76
 762 558 762 558 844 502 c 0,77,78
 946 436 946 436 946 292 c 0,0,1
EndSplineSet
EndChar

StartChar: tm_aikaar
Encoding: 3016 3016 91
Width: 1620
GlyphClass: 2
Flags: W
LayerCount: 2
Fore
SplineSet
1604 346 m 0,0,1
 1604 192 1604 192 1512 80 c 0,2,3
 1484 46 1484 46 1398 -18 c 1,4,-1
 1380 -24 l 1,5,-1
 1354 -26 l 2,6,7
 1326 -26 1326 -26 1305 -13 c 128,-1,8
 1284 0 1284 0 1278 14 c 1,9,-1
 1278 46 l 1,10,11
 1302 58 1302 58 1343 162 c 128,-1,12
 1384 266 1384 266 1396 372 c 1,13,-1
 1398 408 l 1,14,15
 1398 530 1398 530 1341 629 c 128,-1,16
 1284 728 1284 728 1190 746 c 1,17,-1
 1154 750 l 1,18,19
 1104 750 1104 750 1058 730 c 0,20,21
 1030 718 1030 718 996 692 c 1,22,23
 1042 664 1042 664 1099 553 c 128,-1,24
 1156 442 1156 442 1156 330 c 0,25,26
 1156 132 1156 132 1080 50 c 0,27,28
 1028 -6 1028 -6 942 -6 c 0,29,30
 846 -6 846 -6 787 91 c 128,-1,31
 728 188 728 188 728 324 c 0,32,33
 728 422 728 422 766 523 c 128,-1,34
 804 624 804 624 856 676 c 1,35,36
 808 708 808 708 745 727 c 128,-1,37
 682 746 682 746 604 746 c 0,38,39
 426 746 426 746 297 633 c 128,-1,40
 168 520 168 520 168 366 c 0,41,42
 168 274 168 274 200 204 c 0,43,44
 252 90 252 90 372 90 c 0,45,46
 430 90 430 90 468 137 c 128,-1,47
 506 184 506 184 506 248 c 0,48,49
 506 300 506 300 475 339 c 128,-1,50
 444 378 444 378 392 378 c 0,51,52
 350 378 350 378 324 352 c 128,-1,53
 298 326 298 326 298 286 c 1,54,-1
 304 254 l 1,55,56
 288 242 288 242 262 271 c 128,-1,57
 236 300 236 300 236 338 c 0,58,59
 236 360 236 360 244 382 c 0,60,61
 262 422 262 422 300 452 c 1,62,63
 340 478 340 478 390 478 c 0,64,65
 488 478 488 478 547 410 c 128,-1,66
 606 342 606 342 606 248 c 0,67,68
 606 138 606 138 545 68 c 128,-1,69
 484 -2 484 -2 370 -2 c 0,70,71
 248 -2 248 -2 164 90 c 0,72,73
 74 192 74 192 74 370 c 0,74,75
 74 562 74 562 218 700 c 128,-1,76
 362 838 362 838 596 838 c 0,77,78
 704 838 704 838 804 808 c 0,79,80
 880 782 880 782 924 750 c 1,81,82
 954 784 954 784 1016 810 c 0,83,84
 1096 844 1096 844 1196 844 c 0,85,86
 1386 844 1386 844 1498 696 c 0,87,88
 1604 556 1604 556 1604 346 c 0,0,1
1054 324 m 0,89,90
 1054 370 1054 370 1046 407 c 128,-1,91
 1038 444 1038 444 1014 496 c 0,92,93
 974 586 974 586 926 618 c 1,94,95
 900 592 900 592 866 512 c 0,96,97
 824 410 824 410 824 328 c 0,98,99
 824 244 824 244 850 174 c 0,100,101
 884 88 884 88 940 88 c 0,102,103
 990 88 990 88 1022 140 c 0,104,105
 1054 198 1054 198 1054 324 c 0,89,90
EndSplineSet
EndChar

StartChar: tm_halant
Encoding: 3021 3021 95
Width: 20
GlyphClass: 4
Flags: W
LayerCount: 2
Fore
SplineSet
-334 1154 m 0,0,1
 -334 1090 -334 1090 -382 1040 c 128,-1,2
 -430 990 -430 990 -500 990 c 256,3,4
 -570 990 -570 990 -618 1036 c 128,-1,5
 -666 1082 -666 1082 -666 1154 c 0,6,7
 -666 1220 -666 1220 -618 1270 c 128,-1,8
 -570 1320 -570 1320 -500 1320 c 0,9,10
 -434 1320 -434 1320 -384 1272 c 128,-1,11
 -334 1224 -334 1224 -334 1154 c 0,0,1
EndSplineSet
EndChar

StartChar: tm_two
Encoding: 3048 3048 98
Width: 1425
GlyphClass: 2
Flags: W
LayerCount: 2
Fore
SplineSet
1244 70 m 1,0,-1
 1226 0 l 1,1,-1
 586 0 l 2,2,3
 429 0 429 0 429 106 c 0,4,5
 429 153 429 153 478 181.5 c 128,-1,6
 527 210 527 210 586 210 c 2,7,-1
 779 210 l 2,8,9
 867 210 867 210 928 271.5 c 128,-1,10
 989 333 989 333 989 420 c 0,11,12
 989 500 989 500 945 560.5 c 128,-1,13
 901 621 901 621 831 621 c 0,14,15
 793 621 793 621 744 595 c 1,16,17
 814 555 814 555 814 437 c 0,18,19
 814 382 814 382 772.5 344.5 c 128,-1,20
 731 307 731 307 675 307 c 0,21,22
 618 307 618 307 580 351 c 128,-1,23
 542 395 542 395 542 455 c 0,24,25
 542 565 542 565 646.5 632.5 c 128,-1,26
 751 700 751 700 884 700 c 0,27,28
 987 700 987 700 1058 629 c 128,-1,29
 1129 558 1129 558 1129 455 c 0,30,31
 1129 321 1129 321 1025.5 230.5 c 128,-1,32
 922 140 922 140 779 140 c 2,33,-1
 595 140 l 2,34,35
 551 140 551 140 551 106 c 0,36,37
 551 70 551 70 604 70 c 2,38,-1
 1244 70 l 1,0,-1
675 560 m 1,39,40
 621 516 621 516 621 473 c 0,41,42
 621 386 621 386 666 386 c 0,43,44
 709 386 709 386 709 473 c 0,45,46
 709 518 709 518 675 560 c 1,39,40
EndSplineSet
EndChar

StartChar: tm_three
Encoding: 3049 3049 99
Width: 1424
GlyphClass: 2
Flags: W
LayerCount: 2
Fore
SplineSet
1270 70 m 1,0,-1
 1252 0 l 1,1,-1
 640 0 l 1,2,-1
 657 70 l 1,3,-1
 780 70 l 2,4,5
 874 70 874 70 941 130.5 c 128,-1,6
 1008 191 1008 191 1008 280 c 0,7,8
 1008 317 1008 317 982.5 342.5 c 128,-1,9
 957 368 957 368 920 368 c 0,10,11
 890 368 890 368 865 341 c 128,-1,12
 840 314 840 314 833 280 c 2,13,-1
 815 193 l 1,14,-1
 675 193 l 1,15,-1
 764 630 l 1,16,-1
 571 630 l 1,17,-1
 444 0 l 1,18,-1
 378 0 l 1,19,-1
 517 700 l 1,20,-1
 1095 700 l 1,21,-1
 1077 630 l 1,22,-1
 902 630 l 1,23,-1
 859 403 l 1,24,25
 918 455 918 455 990 455 c 0,26,27
 1057 455 1057 455 1102.5 403.5 c 128,-1,28
 1148 352 1148 352 1148 280 c 0,29,30
 1148 209 1148 209 1090 151 c 128,-1,31
 1032 93 1032 93 947 70 c 1,32,-1
 1270 70 l 1,0,-1
EndSplineSet
EndChar

StartChar: tm_four
Encoding: 3050 3050 100
Width: 1427
GlyphClass: 2
Flags: W
LayerCount: 2
Fore
SplineSet
915 316 m 1,0,-1
 644 316 l 2,1,2
 601 316 601 316 570.5 291 c 128,-1,3
 540 266 540 266 540 228 c 0,4,5
 540 158 540 158 609.5 114 c 128,-1,6
 679 70 679 70 766 70 c 0,7,8
 811 70 811 70 844 99.5 c 128,-1,9
 877 129 877 129 887 175 c 2,10,-1
 915 316 l 1,0,-1
979 630 m 1,11,-1
 784 630 l 1,12,-1
 735 386 l 1,13,-1
 930 386 l 1,14,-1
 979 630 l 1,11,-1
1042 245 m 2,15,16
 1017 125 1017 125 940 62.5 c 128,-1,17
 863 0 863 0 766 0 c 0,18,19
 651 0 651 0 559.5 64 c 128,-1,20
 468 128 468 128 468 228 c 0,21,22
 468 294 468 294 520.5 340 c 128,-1,23
 573 386 573 386 644 386 c 2,24,-1
 669 386 l 1,25,-1
 731 700 l 1,26,-1
 1344 700 l 1,27,-1
 1329 630 l 1,28,-1
 1118 630 l 1,29,-1
 1068 386 l 1,30,-1
 1232 386 l 1,31,-1
 1248 464 l 1,32,-1
 1309 464 l 1,33,-1
 1279 316 l 1,34,-1
 1055 316 l 1,35,-1
 1042 245 l 2,15,16
EndSplineSet
EndChar

StartChar: tm_five
Encoding: 3051 3051 101
Width: 1424
GlyphClass: 2
Flags: W
LayerCount: 2
Fore
SplineSet
1412 517 m 1,0,-1
 1359 526 l 1,1,2
 1369 563 1369 563 1369 598 c 0,3,4
 1369 723 1369 723 1253.5 825.5 c 128,-1,5
 1138 928 1138 928 965 928 c 0,6,7
 728 928 728 928 575.5 716 c 128,-1,8
 423 504 423 504 423 228 c 0,9,10
 423 -43 423 -43 515 -179.5 c 128,-1,11
 607 -316 607 -316 790 -316 c 0,12,13
 979 -316 979 -316 1103.5 -163.5 c 128,-1,14
 1228 -11 1228 -11 1228 193 c 0,15,16
 1228 257 1228 257 1200 304.5 c 128,-1,17
 1172 352 1172 352 1126 352 c 0,18,19
 1099 352 1099 352 1072.5 336.5 c 128,-1,20
 1046 321 1046 321 1039 298 c 2,21,-1
 980 0 l 1,22,-1
 840 0 l 1,23,-1
 965 630 l 1,24,-1
 759 630 l 1,25,-1
 634 0 l 1,26,-1
 566 0 l 1,27,-1
 706 700 l 1,28,-1
 1237 700 l 1,29,-1
 1219 630 l 1,30,-1
 1105 630 l 1,31,-1
 1057 386 l 1,32,33
 1101 437 1101 437 1171 437 c 0,34,35
 1261 437 1261 437 1314.5 368.5 c 128,-1,36
 1368 300 1368 300 1368 193 c 0,37,38
 1368 -47 1368 -47 1202.5 -216 c 128,-1,39
 1037 -385 1037 -385 799 -385 c 0,40,41
 589 -385 589 -385 471.5 -223 c 128,-1,42
 354 -61 354 -61 354 193 c 0,43,44
 354 513 354 513 519 764 c 128,-1,45
 684 1015 684 1015 948 1015 c 0,46,47
 1152 1015 1152 1015 1288.5 889.5 c 128,-1,48
 1425 764 1425 764 1425 613 c 0,49,50
 1425 566 1425 566 1412 517 c 1,0,-1
EndSplineSet
EndChar

StartChar: tm_six
Encoding: 3052 3052 102
Width: 1424
GlyphClass: 2
Flags: W
LayerCount: 2
Fore
SplineSet
784 316 m 1,0,-1
 513 316 l 2,1,2
 469 316 469 316 438 291 c 128,-1,3
 407 266 407 266 407 228 c 0,4,5
 407 158 407 158 477 114 c 128,-1,6
 547 70 547 70 635 70 c 0,7,8
 680 70 680 70 713 99.5 c 128,-1,9
 746 129 746 129 756 175 c 2,10,-1
 784 316 l 1,0,-1
846 630 m 1,11,-1
 653 630 l 1,12,-1
 603 386 l 1,13,-1
 798 386 l 1,14,-1
 846 630 l 1,11,-1
910 245 m 2,15,16
 884 125 884 125 808 62.5 c 128,-1,17
 732 0 732 0 635 0 c 0,18,19
 518 0 518 0 428 64 c 128,-1,20
 338 128 338 128 338 228 c 0,21,22
 338 294 338 294 389.5 340 c 128,-1,23
 441 386 441 386 513 386 c 2,24,-1
 537 386 l 1,25,-1
 600 700 l 1,26,-1
 1229 700 l 1,27,-1
 1213 630 l 1,28,-1
 988 630 l 1,29,-1
 938 386 l 1,30,-1
 1422 386 l 1,31,-1
 1410 316 l 1,32,-1
 1353 316 l 1,33,-1
 1291 0 l 1,34,-1
 1151 0 l 1,35,-1
 1213 316 l 1,36,-1
 1116 316 l 1,37,-1
 1055 0 l 1,38,-1
 967 0 l 1,39,-1
 1028 316 l 1,40,-1
 924 316 l 1,41,-1
 910 245 l 2,15,16
EndSplineSet
EndChar

StartChar: tm_seven
Encoding: 3053 3053 103
Width: 1425
GlyphClass: 2
Flags: W
LayerCount: 2
Fore
SplineSet
643 88 m 1,0,1
 706 88 706 88 753 128 c 128,-1,2
 800 168 800 168 800 228 c 0,3,4
 800 269 800 269 781 301 c 128,-1,5
 762 333 762 333 729 333 c 0,6,7
 684 333 684 333 654.5 296.5 c 128,-1,8
 625 260 625 260 625 210 c 0,9,10
 625 135 625 135 643 88 c 1,0,1
1042 0 m 1,11,-1
 1167 630 l 1,12,-1
 852 630 l 2,13,14
 704 630 704 630 594.5 540.5 c 128,-1,15
 485 451 485 451 485 316 c 0,16,17
 485 247 485 247 507 194.5 c 128,-1,18
 529 142 529 142 572 106 c 1,19,20
 555 135 555 135 555 228 c 256,21,22
 555 321 555 321 614.5 388 c 128,-1,23
 674 455 674 455 765 455 c 0,24,25
 837 455 837 455 884 398 c 128,-1,26
 931 341 931 341 931 263 c 0,27,28
 931 155 931 155 863 77.5 c 128,-1,29
 795 0 795 0 695 0 c 0,30,31
 576 0 576 0 495.5 94 c 128,-1,32
 415 188 415 188 415 316 c 0,33,34
 415 481 415 481 545.5 590.5 c 128,-1,35
 676 700 676 700 852 700 c 2,36,-1
 1430 700 l 1,37,-1
 1412 630 l 1,38,-1
 1307 630 l 1,39,-1
 1181 0 l 1,40,-1
 1042 0 l 1,11,-1
EndSplineSet
EndChar

StartChar: tm_eight
Encoding: 3054 3054 104
Width: 1427
GlyphClass: 2
Flags: W
LayerCount: 2
Fore
SplineSet
849 629 m 1,0,1
 745 611 745 611 670 548.5 c 128,-1,2
 595 486 595 486 595 402 c 0,3,4
 595 338 595 338 638.5 291 c 128,-1,5
 682 244 682 244 744 244 c 0,6,7
 817 244 817 244 864 307.5 c 128,-1,8
 911 371 911 371 911 454 c 0,9,10
 911 580 911 580 849 629 c 1,0,1
1024 140 m 1,11,-1
 411 140 l 2,12,13
 381 140 381 140 357 125 c 128,-1,14
 333 110 333 110 333 87 c 0,15,16
 333 43 333 43 412 -13.5 c 128,-1,17
 491 -70 491 -70 639 -70 c 0,18,19
 743 -70 743 -70 839.5 -18 c 128,-1,20
 936 34 936 34 1024 140 c 1,11,-1
1414 -245 m 1,21,-1
 1269 -245 l 1,22,-1
 1348 140 l 1,23,-1
 1164 140 l 1,24,25
 1051 4 1051 4 915 -63.5 c 128,-1,26
 779 -131 779 -131 621 -131 c 0,27,28
 421 -131 421 -131 311.5 -52.5 c 128,-1,29
 202 26 202 26 202 123 c 0,30,31
 202 160 202 160 233 184.5 c 128,-1,32
 264 209 264 209 307 209 c 2,33,-1
 666 209 l 1,34,35
 604 231 604 231 565 284.5 c 128,-1,36
 526 338 526 338 526 402 c 0,37,38
 526 534 526 534 652 617 c 128,-1,39
 778 700 778 700 937 700 c 0,40,41
 1069 700 1069 700 1169 620.5 c 128,-1,42
 1269 541 1269 541 1269 420 c 0,43,44
 1269 306 1269 306 1213 209 c 1,45,-1
 1364 209 l 1,46,-1
 1463 700 l 1,47,-1
 1603 700 l 1,48,-1
 1414 -245 l 1,21,-1
989 620 m 1,49,50
 1042 530 1042 530 1042 411 c 0,51,52
 1042 267 1042 267 919 209 c 1,53,-1
 1077 209 l 1,54,55
 1146 308 1146 308 1146 402 c 0,56,57
 1146 486 1146 486 1103 553 c 128,-1,58
 1060 620 1060 620 989 620 c 1,49,50
EndSplineSet
EndChar

StartChar: tm_nine
Encoding: 3055 3055 105
Width: 1427
GlyphClass: 2
Flags: W
LayerCount: 2
Fore
SplineSet
692 316 m 1,0,-1
 422 316 l 2,1,2
 379 316 379 316 348 291 c 128,-1,3
 317 266 317 266 317 228 c 0,4,5
 317 158 317 158 387 114 c 128,-1,6
 457 70 457 70 544 70 c 0,7,8
 589 70 589 70 622 99.5 c 128,-1,9
 655 129 655 129 665 175 c 2,10,-1
 692 316 l 1,0,-1
756 630 m 1,11,-1
 562 630 l 1,12,-1
 513 386 l 1,13,-1
 707 386 l 1,14,-1
 756 630 l 1,11,-1
1157 175 m 0,15,16
 1157 259 1157 259 1052 298 c 1,17,18
 982 240 982 240 982 158 c 0,19,20
 982 121 982 121 1007.5 95.5 c 128,-1,21
 1033 70 1033 70 1068 70 c 0,22,23
 1107 70 1107 70 1132 101.5 c 128,-1,24
 1157 133 1157 133 1157 175 c 0,15,16
1297 0 m 1,25,26
 1375 93 1375 93 1375 193 c 0,27,28
 1375 263 1375 263 1332.5 315.5 c 128,-1,29
 1290 368 1290 368 1226 368 c 0,30,31
 1163 368 1163 368 1113 342 c 1,32,33
 1167 322 1167 322 1201 276.5 c 128,-1,34
 1235 231 1235 231 1235 175 c 0,35,36
 1235 104 1235 104 1187 52 c 128,-1,37
 1139 0 1139 0 1068 0 c 0,38,39
 1005 0 1005 0 958.5 46.5 c 128,-1,40
 912 93 912 93 912 158 c 0,41,42
 912 257 912 257 982 316 c 1,43,-1
 833 316 l 1,44,-1
 819 245 l 2,45,46
 795 125 795 125 718.5 62.5 c 128,-1,47
 642 0 642 0 544 0 c 0,48,49
 428 0 428 0 337 64 c 128,-1,50
 246 128 246 128 246 228 c 0,51,52
 246 294 246 294 299 340 c 128,-1,53
 352 386 352 386 422 386 c 2,54,-1
 446 386 l 1,55,-1
 508 700 l 1,56,-1
 1122 700 l 1,57,-1
 1104 630 l 1,58,-1
 896 630 l 1,59,-1
 847 386 l 1,60,-1
 947 386 l 2,61,62
 1014 386 1014 386 1052 368 c 1,63,64
 1111 420 1111 420 1226 420 c 0,65,66
 1327 420 1327 420 1399.5 354.5 c 128,-1,67
 1472 289 1472 289 1472 193 c 0,68,69
 1472 109 1472 109 1410 0 c 1,70,-1
 1297 0 l 1,25,26
EndSplineSet
EndChar

StartChar: tm_ten
Encoding: 3056 3056 106
Width: 1260
GlyphClass: 2
Flags: W
LayerCount: 2
Fore
SplineSet
597 149 m 1,0,1
 558 74 558 74 508 37 c 128,-1,2
 458 0 458 0 395 0 c 0,3,4
 302 0 302 0 242 64 c 128,-1,5
 182 128 182 128 182 200 c 0,6,7
 182 224 182 224 186 244 c 2,8,-1
 279 700 l 1,9,-1
 419 700 l 1,10,-1
 325 244 l 2,11,12
 320 223 320 223 320 205 c 0,13,14
 320 155 320 155 346.5 112.5 c 128,-1,15
 373 70 373 70 413 70 c 0,16,17
 472 70 472 70 525 146 c 128,-1,18
 578 222 578 222 606 359 c 2,19,-1
 675 700 l 1,20,-1
 815 700 l 1,21,-1
 746 351 l 2,22,23
 728 262 728 262 728 204 c 0,24,25
 728 150 728 150 760.5 110 c 128,-1,26
 793 70 793 70 841 70 c 0,27,28
 957 70 957 70 1026 204 c 128,-1,29
 1095 338 1095 338 1095 500 c 0,30,31
 1095 691 1095 691 995.5 840 c 128,-1,32
 896 989 896 989 737 989 c 1,33,-1
 755 1042 l 1,34,35
 960 1042 960 1042 1097.5 880.5 c 128,-1,36
 1235 719 1235 719 1235 500 c 0,37,38
 1235 300 1235 300 1118.5 150 c 128,-1,39
 1002 0 1002 0 824 0 c 0,40,41
 739 0 739 0 673.5 40.5 c 128,-1,42
 608 81 608 81 597 149 c 1,0,1
EndSplineSet
EndChar

StartChar: tm_hundred
Encoding: 3057 3057 107
Width: 1166
GlyphClass: 2
Flags: W
LayerCount: 2
Fore
SplineSet
1284 700 m 1,0,-1
 1267 629 l 1,1,-1
 1117 629 l 1,2,-1
 991 0 l 1,3,-1
 851 0 l 1,4,-1
 977 629 l 1,5,-1
 770 629 l 1,6,-1
 644 0 l 1,7,-1
 504 0 l 1,8,-1
 599 472 l 2,9,10
 606 507 606 507 606 534 c 0,11,12
 606 579 606 579 589 613 c 128,-1,13
 572 647 572 647 540 647 c 0,14,15
 483 647 483 647 440 595.5 c 128,-1,16
 397 544 397 544 382 472 c 2,17,-1
 285 0 l 1,18,-1
 146 0 l 1,19,-1
 242 472 l 2,20,21
 263 577 263 577 336.5 647 c 128,-1,22
 410 717 410 717 503 717 c 0,23,24
 567 717 567 717 614 679.5 c 128,-1,25
 661 642 661 642 661 585 c 1,26,-1
 685 700 l 1,27,-1
 1284 700 l 1,0,-1
EndSplineSet
EndChar

StartChar: tm_thousand
Encoding: 3058 3058 108
Width: 1256
GlyphClass: 2
Flags: W
LayerCount: 2
Fore
SplineSet
551 316 m 1,0,-1
 280 316 l 2,1,2
 237 316 237 316 206 291 c 128,-1,3
 175 266 175 266 175 228 c 0,4,5
 175 158 175 158 245.5 114 c 128,-1,6
 316 70 316 70 402 70 c 0,7,8
 447 70 447 70 480 99.5 c 128,-1,9
 513 129 513 129 523 175 c 2,10,-1
 551 316 l 1,0,-1
615 630 m 1,11,-1
 420 630 l 1,12,-1
 371 386 l 1,13,-1
 565 386 l 1,14,-1
 615 630 l 1,11,-1
677 245 m 2,15,16
 653 125 653 125 576 62.5 c 128,-1,17
 499 0 499 0 402 0 c 0,18,19
 285 0 285 0 195 64 c 128,-1,20
 105 128 105 128 105 228 c 0,21,22
 105 294 105 294 156.5 340 c 128,-1,23
 208 386 208 386 280 386 c 2,24,-1
 304 386 l 1,25,-1
 367 700 l 1,26,-1
 997 700 l 1,27,-1
 983 630 l 1,28,-1
 755 630 l 1,29,-1
 705 386 l 1,30,-1
 1120 386 l 1,31,-1
 1105 316 l 1,32,-1
 971 316 l 1,33,-1
 945 175 l 1,34,35
 990 228 990 228 1067 228 c 0,36,37
 1134 228 1134 228 1179.5 176 c 128,-1,38
 1225 124 1225 124 1225 53 c 0,39,40
 1225 -78 1225 -78 1108 -161 c 128,-1,41
 991 -244 991 -244 840 -244 c 0,42,43
 740 -244 740 -244 542 -205 c 0,44,45
 346 -167 346 -167 244 -167 c 0,46,47
 181 -167 181 -167 134 -206.5 c 128,-1,48
 87 -246 87 -246 87 -307 c 0,49,50
 87 -384 87 -384 158 -411 c 1,51,-1
 149 -445 l 1,52,53
 82 -433 82 -433 36.5 -387 c 128,-1,54
 -9 -341 -9 -341 -9 -280 c 0,55,56
 -9 -205 -9 -205 70.5 -159.5 c 128,-1,57
 150 -114 150 -114 244 -114 c 0,58,59
 346 -114 346 -114 542 -153 c 0,60,61
 740 -192 740 -192 840 -192 c 0,62,63
 938 -192 938 -192 1011.5 -135 c 128,-1,64
 1085 -78 1085 -78 1085 9 c 0,65,66
 1085 61 1085 61 1061 100.5 c 128,-1,67
 1037 140 1037 140 997 140 c 256,68,69
 957 140 957 140 927 88 c 1,70,-1
 910 0 l 1,71,-1
 769 0 l 1,72,-1
 831 316 l 1,73,-1
 691 316 l 1,74,-1
 677 245 l 2,15,16
EndSplineSet
EndChar

StartChar: zerowidthnonjoiner
Encoding: 8204 8204 109
Width: 0
GlyphClass: 2
Flags: W
LayerCount: 2
Fore
SplineSet
315 1225 m 1,0,-1
 -34 -516 l 1,1,-1
 -103 -516 l 1,2,-1
 244 1225 l 1,3,-1
 315 1225 l 1,0,-1
EndSplineSet
EndChar

StartChar: zerowidthjoiner
Encoding: 8205 8205 110
Width: 0
GlyphClass: 2
Flags: W
LayerCount: 2
Fore
SplineSet
415 997 m 1,0,-1
 363 953 l 1,1,-1
 270 1073 l 1,2,-1
 -24 -441 l 1,3,-1
 -87 -441 l 1,4,-1
 206 1073 l 1,5,-1
 65 953 l 1,6,-1
 32 997 l 1,7,-1
 210 1145 l 1,8,-1
 89 1292 l 1,9,-1
 140 1334 l 1,10,-1
 260 1185 l 1,11,-1
 437 1334 l 1,12,-1
 472 1292 l 1,13,-1
 294 1145 l 1,14,-1
 415 997 l 1,0,-1
EndSplineSet
EndChar

StartChar: u2013
Encoding: 8211 8211 111
Width: 722
GlyphClass: 2
Flags: W
LayerCount: 2
Fore
SplineSet
733 319 m 1,0,-1
 -12 319 l 1,1,-1
 -12 370 l 1,2,-1
 733 370 l 1,3,-1
 733 319 l 1,0,-1
EndSplineSet
EndChar

StartChar: u2014
Encoding: 8212 8212 112
Width: 1284
GlyphClass: 2
Flags: W
LayerCount: 2
Fore
SplineSet
1296 318 m 1,0,-1
 -13 319 l 1,1,-1
 -13 371 l 1,2,-1
 1296 370 l 1,3,-1
 1296 318 l 1,0,-1
EndSplineSet
EndChar

StartChar: u2018
Encoding: 65539 -1 113
Width: 400
GlyphClass: 2
Flags: W
LayerCount: 2
Fore
SplineSet
282 1072 m 1,0,-1
 282 890 l 1,1,-1
 114 890 l 1,2,-1
 114 1034 l 1,3,-1
 118 1134 l 2,4,5
 122 1154 122 1154 126 1167 c 128,-1,6
 130 1180 130 1180 140 1204 c 0,7,8
 178 1268 178 1268 258 1310 c 1,9,-1
 296 1250 l 1,10,11
 250 1232 250 1232 225 1188 c 128,-1,12
 200 1144 200 1144 200 1072 c 1,13,-1
 282 1072 l 1,0,-1
EndSplineSet
EndChar

StartChar: u2019
Encoding: 65540 -1 114
Width: 400
GlyphClass: 2
Flags: W
LayerCount: 2
Fore
SplineSet
110 1118 m 1,0,-1
 110 1302 l 1,1,-1
 278 1302 l 1,2,-1
 278 1158 l 2,3,4
 278 1044 278 1044 252 986 c 1,5,6
 218 924 218 924 134 880 c 1,7,-1
 96 942 l 1,8,9
 136 956 136 956 163 1001 c 128,-1,10
 190 1046 190 1046 190 1118 c 1,11,-1
 110 1118 l 1,0,-1
EndSplineSet
EndChar

StartChar: u201C
Encoding: 65541 -1 115
Width: 600
GlyphClass: 2
Flags: W
LayerCount: 2
Fore
SplineSet
242 1072 m 1,0,-1
 242 890 l 1,1,-1
 74 890 l 1,2,-1
 74 1034 l 2,3,4
 74 1094 74 1094 80 1134 c 0,5,6
 80 1150 80 1150 85 1165 c 128,-1,7
 90 1180 90 1180 100 1204 c 0,8,9
 138 1268 138 1268 218 1310 c 1,10,-1
 258 1250 l 1,11,12
 212 1232 212 1232 186 1186 c 128,-1,13
 160 1140 160 1140 160 1072 c 1,14,-1
 242 1072 l 1,0,-1
514 1072 m 1,15,-1
 514 890 l 1,16,-1
 346 890 l 1,17,-1
 346 1034 l 2,18,19
 346 1160 346 1160 377 1214 c 128,-1,20
 408 1268 408 1268 490 1310 c 1,21,-1
 530 1250 l 1,22,23
 484 1232 484 1232 458 1186 c 0,24,25
 432 1146 432 1146 432 1072 c 1,26,-1
 514 1072 l 1,15,-1
EndSplineSet
EndChar

StartChar: u201D
Encoding: 65542 -1 116
Width: 600
GlyphClass: 2
Flags: W
LayerCount: 2
Fore
SplineSet
76 1118 m 1,0,-1
 76 1302 l 1,1,-1
 246 1302 l 1,2,-1
 246 1158 l 2,3,4
 246 1044 246 1044 220 986 c 1,5,6
 186 922 186 922 100 880 c 1,7,-1
 62 942 l 1,8,9
 104 956 104 956 131 1001 c 128,-1,10
 158 1046 158 1046 158 1118 c 1,11,-1
 76 1118 l 1,0,-1
350 1118 m 1,12,-1
 350 1302 l 1,13,-1
 518 1302 l 1,14,-1
 518 1158 l 2,15,16
 518 1044 518 1044 492 986 c 1,17,18
 454 922 454 922 374 880 c 1,19,-1
 334 942 l 1,20,21
 378 956 378 956 405 1003 c 128,-1,22
 432 1050 432 1050 432 1118 c 1,23,-1
 350 1118 l 1,12,-1
EndSplineSet
EndChar

StartChar: u2026
Encoding: 8230 8230 117
Width: 1283
GlyphClass: 2
Flags: W
LayerCount: 2
Fore
SplineSet
265 136 m 0,0,1
 298 136 298 136 320.5 114 c 128,-1,2
 343 92 343 92 343 58 c 0,3,4
 343 26 343 26 320.5 3 c 128,-1,5
 298 -20 298 -20 265 -20 c 0,6,7
 233 -20 233 -20 210 3 c 128,-1,8
 187 26 187 26 187 58 c 0,9,10
 187 92 187 92 210 114 c 128,-1,11
 233 136 233 136 265 136 c 0,0,1
638 136 m 256,12,13
 670 136 670 136 693 114 c 128,-1,14
 716 92 716 92 716 58 c 0,15,16
 716 26 716 26 692.5 3 c 128,-1,17
 669 -20 669 -20 638 -20 c 0,18,19
 606 -20 606 -20 583 3 c 128,-1,20
 560 26 560 26 560 58 c 0,21,22
 560 92 560 92 583 114 c 128,-1,23
 606 136 606 136 638 136 c 256,12,13
1010 136 m 0,24,25
 1043 136 1043 136 1066 114 c 128,-1,26
 1089 92 1089 92 1089 58 c 0,27,28
 1089 26 1089 26 1065.5 3 c 128,-1,29
 1042 -20 1042 -20 1010 -20 c 256,30,31
 978 -20 978 -20 955.5 3 c 128,-1,32
 933 26 933 26 933 58 c 0,33,34
 933 92 933 92 955.5 114 c 128,-1,35
 978 136 978 136 1010 136 c 0,24,25
EndSplineSet
EndChar

StartChar: u2212
Encoding: 8722 8722 118
Width: 974
GlyphClass: 2
Flags: W
LayerCount: 2
Fore
SplineSet
133 450 m 1,0,-1
 133 508 l 1,1,-1
 894 508 l 1,2,-1
 894 450 l 1,3,-1
 133 450 l 1,0,-1
EndSplineSet
EndChar

StartChar: u25CC
Encoding: 9676 9676 119
Width: 1167
GlyphClass: 2
Flags: W
LayerCount: 2
Fore
SplineSet
654 665 m 0,0,1
 626 665 626 665 612 679 c 128,-1,2
 598 693 598 693 598 724 c 0,3,4
 598 746 598 746 615 762.5 c 128,-1,5
 632 779 632 779 654 779 c 0,6,7
 683 779 683 779 697.5 765 c 128,-1,8
 712 751 712 751 712 724 c 0,9,10
 712 693 712 693 697.5 679 c 128,-1,11
 683 665 683 665 654 665 c 0,0,1
840 616 m 0,12,13
 811 616 811 616 796.5 630.5 c 128,-1,14
 782 645 782 645 782 674 c 0,15,16
 782 701 782 701 796.5 715 c 128,-1,17
 811 729 811 729 840 729 c 0,18,19
 862 729 862 729 879 713 c 128,-1,20
 896 697 896 697 896 674 c 0,21,22
 896 645 896 645 882 630.5 c 128,-1,23
 868 616 868 616 840 616 c 0,12,13
470 616 m 0,24,25
 442 616 442 616 428 630.5 c 128,-1,26
 414 645 414 645 414 674 c 0,27,28
 414 697 414 697 431 713 c 128,-1,29
 448 729 448 729 470 729 c 0,30,31
 494 729 494 729 510 713 c 128,-1,32
 526 697 526 697 526 674 c 0,33,34
 526 645 526 645 512.5 630.5 c 128,-1,35
 499 616 499 616 470 616 c 0,24,25
973 482 m 0,36,37
 951 482 951 482 933.5 498 c 128,-1,38
 916 514 916 514 916 538 c 0,39,40
 916 567 916 567 930.5 581 c 128,-1,41
 945 595 945 595 973 595 c 256,42,43
 1001 595 1001 595 1014.5 581 c 128,-1,44
 1028 567 1028 567 1028 538 c 0,45,46
 1028 514 1028 514 1012 498 c 128,-1,47
 996 482 996 482 973 482 c 0,36,37
336 482 m 0,48,49
 307 482 307 482 293 495.5 c 128,-1,50
 279 509 279 509 279 538 c 256,51,52
 279 567 279 567 293 581 c 128,-1,53
 307 595 307 595 336 595 c 0,54,55
 364 595 364 595 378 581 c 128,-1,56
 392 567 392 567 392 538 c 0,57,58
 392 514 392 514 375 498 c 128,-1,59
 358 482 358 482 336 482 c 0,48,49
1024 298 m 0,60,61
 994 298 994 298 979.5 311.5 c 128,-1,62
 965 325 965 325 965 354 c 0,63,64
 965 382 965 382 979.5 396 c 128,-1,65
 994 410 994 410 1024 410 c 0,66,67
 1046 410 1046 410 1063 393 c 128,-1,68
 1080 376 1080 376 1080 354 c 0,69,70
 1080 331 1080 331 1063 314.5 c 128,-1,71
 1046 298 1046 298 1024 298 c 0,60,61
287 298 m 0,72,73
 257 298 257 298 243 311.5 c 128,-1,74
 229 325 229 325 229 354 c 0,75,76
 229 382 229 382 243 396 c 128,-1,77
 257 410 257 410 287 410 c 0,78,79
 310 410 310 410 326.5 393 c 128,-1,80
 343 376 343 376 343 354 c 0,81,82
 343 331 343 331 326.5 314.5 c 128,-1,83
 310 298 310 298 287 298 c 0,72,73
973 112 m 256,84,85
 945 112 945 112 930.5 126.5 c 128,-1,86
 916 141 916 141 916 169 c 0,87,88
 916 193 916 193 933.5 209.5 c 128,-1,89
 951 226 951 226 973 226 c 0,90,91
 996 226 996 226 1012 209.5 c 128,-1,92
 1028 193 1028 193 1028 169 c 0,93,94
 1028 141 1028 141 1014.5 126.5 c 128,-1,95
 1001 112 1001 112 973 112 c 256,84,85
336 112 m 0,96,97
 307 112 307 112 293 126.5 c 128,-1,98
 279 141 279 141 279 169 c 0,99,100
 279 198 279 198 293 212 c 128,-1,101
 307 226 307 226 336 226 c 0,102,103
 358 226 358 226 375 209.5 c 128,-1,104
 392 193 392 193 392 169 c 0,105,106
 392 141 392 141 378 126.5 c 128,-1,107
 364 112 364 112 336 112 c 0,96,97
840 -22 m 0,108,109
 811 -22 811 -22 796.5 -8 c 128,-1,110
 782 6 782 6 782 34 c 0,111,112
 782 63 782 63 796.5 78 c 128,-1,113
 811 93 811 93 840 93 c 0,114,115
 863 93 863 93 879.5 75 c 128,-1,116
 896 57 896 57 896 34 c 256,117,118
 896 11 896 11 879 -5.5 c 128,-1,119
 862 -22 862 -22 840 -22 c 0,108,109
470 -22 m 0,120,121
 448 -22 448 -22 431 -5.5 c 128,-1,122
 414 11 414 11 414 34 c 256,123,124
 414 57 414 57 430.5 75 c 128,-1,125
 447 93 447 93 470 93 c 0,126,127
 495 93 495 93 510.5 75 c 128,-1,128
 526 57 526 57 526 34 c 256,129,130
 526 11 526 11 510 -5.5 c 128,-1,131
 494 -22 494 -22 470 -22 c 0,120,121
654 -72 m 0,132,133
 632 -72 632 -72 615 -55 c 128,-1,134
 598 -38 598 -38 598 -16 c 0,135,136
 598 14 598 14 612 28.5 c 128,-1,137
 626 43 626 43 654 43 c 0,138,139
 683 43 683 43 697.5 28.5 c 128,-1,140
 712 14 712 14 712 -16 c 0,141,142
 712 -44 712 -44 697.5 -58 c 128,-1,143
 683 -72 683 -72 654 -72 c 0,132,133
EndSplineSet
EndChar

StartChar: tm_k_ikaar
Encoding: 65543 -1 120
Width: 1680
GlyphClass: 2
Flags: W
LayerCount: 2
Fore
SplineSet
1646 80 m 1,0,1
 1640 42 1640 42 1616 24 c 0,2,3
 1578 -4 1578 -4 1504 -4 c 0,4,5
 1402 -4 1402 -4 1366 38 c 0,6,7
 1358 48 1358 48 1352 80 c 1,8,-1
 1352 922 l 2,9,10
 1352 1040 1352 1040 1288 1116 c 0,11,12
 1216 1204 1216 1204 1076 1204 c 0,13,14
 974 1204 974 1204 897 1138 c 128,-1,15
 820 1072 820 1072 820 982 c 0,16,17
 820 928 820 928 831 891 c 128,-1,18
 842 854 842 854 856 838 c 1,19,-1
 1062 838 l 2,20,21
 1090 838 1090 838 1105 828 c 128,-1,22
 1120 818 1120 818 1122 786 c 0,23,24
 1122 760 1122 760 1107 751 c 128,-1,25
 1092 742 1092 742 1060 738 c 1,26,-1
 902 738 l 1,27,-1
 902 508 l 1,28,-1
 978 508 l 2,29,30
 1100 508 1100 508 1165 444 c 128,-1,31
 1230 380 1230 380 1230 260 c 0,32,33
 1230 132 1230 132 1164 60 c 0,34,35
 1110 0 1110 0 1024 0 c 1,36,-1
 1002 2 l 2,37,38
 972 2 972 2 956 10 c 2,39,-1
 946 18 l 1,40,-1
 930 32 l 1,41,42
 918 48 918 48 922 76 c 0,43,44
 928 98 928 98 937 102 c 128,-1,45
 946 106 946 106 972 106 c 1,46,-1
 990 98 l 1,47,-1
 1020 94 l 1,48,49
 1078 94 1078 94 1108 148 c 1,50,51
 1128 194 1128 194 1128 262 c 0,52,53
 1128 338 1128 338 1084 376 c 0,54,55
 1048 406 1048 406 996 406 c 2,56,-1
 902 406 l 1,57,-1
 902 274 l 2,58,59
 902 164 902 164 826 100 c 0,60,61
 708 0 708 0 416 0 c 0,62,63
 276 0 276 0 182 70 c 0,64,65
 78 150 78 150 78 290 c 0,66,67
 78 402 78 402 158 458 c 0,68,69
 186 478 186 478 212 488 c 128,-1,70
 238 498 238 498 268 498 c 1,71,-1
 268 838 l 1,72,-1
 746 838 l 1,73,-1
 726 898 l 1,74,75
 716 944 716 944 716 982 c 0,76,77
 716 1114 716 1114 830 1214 c 128,-1,78
 944 1314 944 1314 1102 1314 c 0,79,80
 1334 1314 1334 1314 1472 1224 c 0,81,82
 1646 1110 1646 1110 1646 858 c 2,83,-1
 1646 80 l 1,0,1
630 508 m 1,84,-1
 630 738 l 1,85,-1
 368 738 l 1,86,-1
 368 508 l 1,87,-1
 630 508 l 1,84,-1
630 268 m 2,88,-1
 630 406 l 1,89,-1
 324 406 l 2,90,91
 278 406 278 406 238 388 c 0,92,93
 178 358 178 358 178 284 c 0,94,95
 178 174 178 174 274 122 c 0,96,97
 338 88 338 88 416 88 c 0,98,99
 538 88 538 88 592 148 c 0,100,101
 630 192 630 192 630 268 c 2,88,-1
EndSplineSet
Ligature2: "'psts' Post Base Substitutions lookup 8 subtable" tm_ka tm_ikaar
EndChar

StartChar: tm_ng_ikaar
Encoding: 65544 -1 121
Width: 1810
GlyphClass: 2
Flags: W
LayerCount: 2
Fore
SplineSet
1776 80 m 1,0,1
 1770 42 1770 42 1746 24 c 0,2,3
 1708 -4 1708 -4 1634 -4 c 0,4,5
 1532 -4 1532 -4 1496 38 c 0,6,7
 1488 48 1488 48 1482 80 c 1,8,-1
 1482 916 l 2,9,10
 1482 1030 1482 1030 1416 1112 c 0,11,12
 1340 1204 1340 1204 1200 1204 c 0,13,14
 1088 1204 1088 1204 1003 1107 c 128,-1,15
 918 1010 918 1010 918 874 c 0,16,17
 918 728 918 728 962 652 c 0,18,19
 988 606 988 606 1032 588 c 1,20,-1
 1032 758 l 1,21,22
 1038 784 1038 784 1052 798 c 0,23,24
 1092 840 1092 840 1178 840 c 0,25,26
 1266 840 1266 840 1304 800 c 0,27,28
 1314 790 1314 790 1324 758 c 1,29,-1
 1324 0 l 1,30,-1
 374 0 l 1,31,-1
 352 8 l 1,32,33
 328 24 328 24 328 54 c 256,34,35
 328 84 328 84 350 96 c 1,36,-1
 374 100 l 1,37,-1
 612 100 l 1,38,39
 644 118 644 118 662 138 c 0,40,41
 712 198 712 198 712 296 c 0,42,43
 712 354 712 354 684 398 c 0,44,45
 646 460 646 460 578 460 c 256,46,47
 510 460 510 460 470 426 c 0,48,49
 458 416 458 416 444 392 c 1,50,-1
 444 232 l 1,51,-1
 436 212 l 1,52,53
 420 192 420 192 386 192 c 0,54,55
 358 192 358 192 340 212 c 1,56,-1
 332 232 l 1,57,-1
 332 738 l 1,58,-1
 178 738 l 1,59,-1
 178 54 l 2,60,61
 178 34 178 34 174 28 c 0,62,63
 162 0 162 0 128 0 c 256,64,65
 94 0 94 0 82 36 c 2,66,-1
 78 54 l 1,67,-1
 78 838 l 1,68,-1
 696 838 l 2,69,70
 710 838 710 838 716 834 c 0,71,72
 738 822 738 822 738 786 c 0,73,74
 738 760 738 760 728 750 c 1,75,-1
 696 738 l 1,76,-1
 444 738 l 1,77,-1
 444 522 l 1,78,79
 456 542 456 542 484 552 c 0,80,81
 526 570 526 570 580 570 c 0,82,83
 696 570 696 570 766 476 c 0,84,85
 828 392 828 392 828 292 c 0,86,87
 828 220 828 220 803 166 c 128,-1,88
 778 112 778 112 754 100 c 1,89,-1
 1032 100 l 1,90,-1
 1032 488 l 1,91,92
 940 508 940 508 882 616 c 128,-1,93
 824 724 824 724 824 880 c 0,94,95
 824 1046 824 1046 932 1176 c 0,96,97
 1050 1314 1050 1314 1234 1314 c 0,98,99
 1466 1314 1466 1314 1604 1224 c 0,100,101
 1776 1110 1776 1110 1776 858 c 2,102,-1
 1776 80 l 1,0,1
EndSplineSet
Ligature2: "'psts' Post Base Substitutions lookup 8 subtable" tm_nga tm_ikaar
EndChar

StartChar: tm_c_ikaar
Encoding: 65545 -1 122
Width: 1580
GlyphClass: 2
Flags: W
LayerCount: 2
Fore
SplineSet
1546 80 m 1,0,1
 1540 42 1540 42 1516 24 c 0,2,3
 1478 -4 1478 -4 1404 -4 c 0,4,5
 1302 -4 1302 -4 1266 38 c 0,6,7
 1258 48 1258 48 1252 80 c 1,8,-1
 1252 922 l 2,9,10
 1252 1046 1252 1046 1210 1116 c 0,11,12
 1156 1204 1156 1204 1030 1204 c 0,13,14
 934 1204 934 1204 877 1139 c 128,-1,15
 820 1074 820 1074 820 982 c 0,16,17
 820 928 820 928 831 891 c 128,-1,18
 842 854 842 854 856 838 c 1,19,-1
 1066 838 l 2,20,21
 1090 838 1090 838 1106 822 c 0,22,23
 1120 812 1120 812 1122 788 c 0,24,25
 1122 738 1122 738 1064 738 c 2,26,-1
 902 738 l 1,27,-1
 902 508 l 1,28,-1
 1076 508 l 2,29,30
 1100 508 1100 508 1114 495 c 128,-1,31
 1128 482 1128 482 1132 456 c 1,32,33
 1132 406 1132 406 1074 406 c 2,34,-1
 902 406 l 1,35,-1
 902 274 l 2,36,37
 902 164 902 164 826 100 c 0,38,39
 708 0 708 0 416 0 c 0,40,41
 276 0 276 0 182 70 c 0,42,43
 78 150 78 150 78 290 c 0,44,45
 78 402 78 402 158 458 c 0,46,47
 186 478 186 478 212 488 c 128,-1,48
 238 498 238 498 268 498 c 1,49,-1
 268 838 l 1,50,-1
 746 838 l 1,51,52
 738 850 738 850 728 894 c 128,-1,53
 718 938 718 938 717 956 c 128,-1,54
 716 974 716 974 716 986 c 0,55,56
 716 1118 716 1118 812 1216 c 128,-1,57
 908 1314 908 1314 1060 1314 c 0,58,59
 1278 1314 1278 1314 1398 1224 c 0,60,61
 1546 1112 1546 1112 1546 858 c 2,62,-1
 1546 80 l 1,0,1
630 508 m 1,63,-1
 630 738 l 1,64,-1
 368 738 l 1,65,-1
 368 508 l 1,66,-1
 630 508 l 1,63,-1
630 268 m 2,67,-1
 630 406 l 1,68,-1
 324 406 l 2,69,70
 278 406 278 406 238 388 c 0,71,72
 178 358 178 358 178 284 c 0,73,74
 178 174 178 174 274 122 c 0,75,76
 338 88 338 88 416 88 c 0,77,78
 538 88 538 88 592 148 c 0,79,80
 630 192 630 192 630 268 c 2,67,-1
EndSplineSet
Ligature2: "'psts' Post Base Substitutions lookup 8 subtable" tm_ca tm_ikaar
EndChar

StartChar: tm_j_ikaar
Encoding: 65546 -1 123
Width: 1840
GlyphClass: 2
Flags: W
LayerCount: 2
Fore
SplineSet
1810 84 m 1,0,1
 1804 70 1804 70 1795 55 c 128,-1,2
 1786 40 1786 40 1782 36 c 0,3,4
 1740 -12 1740 -12 1680 -12 c 0,5,6
 1610 -12 1610 -12 1564 36 c 1,7,-1
 1536 84 l 1,8,-1
 1536 910 l 2,9,10
 1536 1030 1536 1030 1480 1112 c 0,11,12
 1412 1210 1412 1210 1278 1210 c 0,13,14
 1176 1210 1176 1210 1106 1145 c 128,-1,15
 1036 1080 1036 1080 1036 982 c 1,16,-1
 1042 890 l 2,17,18
 1048 856 1048 856 1066 832 c 1,19,20
 1202 808 1202 808 1286 716 c 1,21,22
 1374 612 1374 612 1374 446 c 0,23,24
 1374 268 1374 268 1264 182 c 128,-1,25
 1154 96 1154 96 962 96 c 2,26,-1
 414 96 l 2,27,28
 310 96 310 96 242 20 c 0,29,30
 184 -48 184 -48 184 -138 c 0,31,32
 184 -242 184 -242 256 -312 c 0,33,34
 324 -374 324 -374 404 -374 c 0,35,36
 500 -374 500 -374 554 -344 c 0,37,38
 620 -308 620 -308 620 -216 c 0,39,40
 620 -96 620 -96 746 -36 c 0,41,42
 844 8 844 8 964 8 c 0,43,44
 1174 8 1174 8 1276 -64 c 0,45,46
 1366 -128 1366 -128 1366 -242 c 0,47,48
 1366 -362 1366 -362 1289 -416 c 128,-1,49
 1212 -470 1212 -470 1036 -470 c 0,50,51
 942 -470 942 -470 890 -424 c 128,-1,52
 838 -378 838 -378 838 -314 c 0,53,54
 838 -244 838 -244 878 -244 c 0,55,56
 900 -244 900 -244 914 -256 c 128,-1,57
 928 -268 928 -268 934 -304 c 128,-1,58
 940 -340 940 -340 969 -358 c 128,-1,59
 998 -376 998 -376 1034 -376 c 0,60,61
 1092 -376 1092 -376 1115 -339 c 128,-1,62
 1138 -302 1138 -302 1138 -244 c 0,63,64
 1138 -176 1138 -176 1091 -132 c 128,-1,65
 1044 -88 1044 -88 964 -88 c 0,66,67
 910 -88 910 -88 871 -94 c 128,-1,68
 832 -100 832 -100 800 -116 c 0,69,70
 716 -156 716 -156 716 -254 c 256,71,72
 716 -352 716 -352 634 -410 c 0,73,74
 556 -470 556 -470 412 -470 c 0,75,76
 274 -470 274 -470 180 -384 c 0,77,78
 78 -290 78 -290 78 -134 c 256,79,80
 78 22 78 22 188 114 c 0,81,82
 286 196 286 196 422 196 c 2,83,-1
 908 196 l 2,84,85
 1028 196 1028 196 1082 274 c 0,86,87
 1126 344 1126 344 1126 476 c 0,88,89
 1126 592 1126 592 1071 661 c 128,-1,90
 1016 730 1016 730 934 730 c 0,91,92
 842 730 842 730 786 660 c 0,93,94
 740 602 740 602 740 526 c 2,95,-1
 740 318 l 2,96,97
 740 298 740 298 732 287 c 128,-1,98
 724 276 724 276 692 272 c 0,99,100
 662 272 662 272 648 294 c 1,101,-1
 640 318 l 1,102,-1
 640 526 l 2,103,104
 640 618 640 618 556 684 c 0,105,106
 484 738 484 738 408 738 c 0,107,108
 322 738 322 738 258 692 c 0,109,110
 180 638 180 638 180 532 c 0,111,112
 180 448 180 448 226 408 c 0,113,114
 264 376 264 376 308 376 c 0,115,116
 368 376 368 376 402 404 c 1,117,118
 434 436 434 436 434 478 c 0,119,120
 434 532 434 532 403 556 c 128,-1,121
 372 580 372 580 330 580 c 2,122,-1
 304 578 l 1,123,124
 296 586 296 586 296 592 c 0,125,126
 296 616 296 616 315 639 c 128,-1,127
 334 662 334 662 372 662 c 0,128,129
 432 662 432 662 478 616 c 0,130,131
 532 562 532 562 532 480 c 0,132,133
 532 390 532 390 470 335 c 128,-1,134
 408 280 408 280 312 280 c 0,135,136
 212 280 212 280 144 357 c 128,-1,137
 76 434 76 434 76 534 c 0,138,139
 76 664 76 664 167 752 c 128,-1,140
 258 840 258 840 406 840 c 0,141,142
 568 840 568 840 644 752 c 0,143,144
 668 726 668 726 688 664 c 1,145,146
 712 722 712 722 738 750 c 0,147,148
 820 838 820 838 964 838 c 1,149,150
 954 860 954 860 944 900 c 1,151,-1
 938 980 l 1,152,153
 938 1124 938 1124 1047 1219 c 128,-1,154
 1156 1314 1156 1314 1310 1314 c 0,155,156
 1530 1314 1530 1314 1658 1216 c 0,157,158
 1810 1100 1810 1100 1810 854 c 2,159,-1
 1810 84 l 1,0,1
EndSplineSet
Ligature2: "'psts' Post Base Substitutions lookup 8 subtable" tm_ja tm_ikaar
EndChar

StartChar: tm_ny_ikaar
Encoding: 65547 -1 124
Width: 2200
GlyphClass: 2
Flags: W
LayerCount: 2
Fore
SplineSet
2158 80 m 1,0,1
 2152 42 2152 42 2128 24 c 0,2,3
 2090 -4 2090 -4 2016 -4 c 0,4,5
 1914 -4 1914 -4 1878 38 c 0,6,7
 1870 48 1870 48 1864 80 c 1,8,-1
 1864 922 l 2,9,10
 1864 1036 1864 1036 1778 1116 c 0,11,12
 1684 1204 1684 1204 1532 1204 c 0,13,14
 1414 1204 1414 1204 1333 1136 c 128,-1,15
 1252 1068 1252 1068 1252 978 c 0,16,17
 1252 928 1252 928 1260 894 c 128,-1,18
 1268 860 1268 860 1284 838 c 1,19,-1
 1476 838 l 2,20,21
 1528 838 1528 838 1528 786 c 0,22,23
 1528 738 1528 738 1478 738 c 2,24,-1
 1344 738 l 1,25,-1
 1344 478 l 1,26,27
 1356 500 1356 500 1384 518 c 0,28,29
 1416 534 1416 534 1480 534 c 0,30,31
 1596 534 1596 534 1669 440 c 128,-1,32
 1742 346 1742 346 1742 196 c 0,33,34
 1742 -120 1742 -120 1470 -290 c 0,35,36
 1244 -430 1244 -430 928 -430 c 0,37,38
 774 -430 774 -430 596 -364 c 0,39,40
 376 -280 376 -280 240 -118 c 0,41,42
 74 82 74 82 74 374 c 0,43,44
 74 506 74 506 115 636 c 128,-1,45
 156 766 156 766 218 824 c 0,46,47
 242 848 242 848 268 850 c 0,48,49
 316 850 316 850 316 800 c 0,50,51
 316 778 316 778 302 756 c 0,52,53
 230 672 230 672 200 544 c 0,54,55
 180 448 180 448 180 346 c 0,56,57
 180 58 180 58 420 -144 c 0,58,59
 642 -330 642 -330 930 -330 c 0,60,61
 1222 -330 1222 -330 1420 -198 c 0,62,63
 1636 -54 1636 -54 1636 196 c 0,64,65
 1636 228 1636 228 1628 265 c 128,-1,66
 1620 302 1620 302 1602 338 c 0,67,68
 1556 436 1556 436 1474 436 c 0,69,70
 1412 436 1412 436 1378 404 c 1,71,-1
 1344 356 l 1,72,-1
 1344 80 l 1,73,-1
 1320 40 l 1,74,75
 1280 0 1280 0 1204 0 c 0,76,77
 1120 0 1120 0 1078 40 c 0,78,79
 1066 52 1066 52 1052 80 c 1,80,-1
 1052 738 l 1,81,-1
 732 738 l 2,82,83
 638 738 638 738 548 672 c 0,84,85
 420 572 420 572 420 372 c 0,86,87
 420 270 420 270 474 192 c 0,88,89
 542 100 542 100 660 100 c 0,90,91
 756 100 756 100 804 148 c 0,92,93
 842 190 842 190 842 254 c 0,94,95
 842 308 842 308 811 348 c 128,-1,96
 780 388 780 388 726 388 c 0,97,98
 670 388 670 388 636 354 c 128,-1,99
 602 320 602 320 602 246 c 1,100,101
 588 236 588 236 578 236 c 0,102,103
 558 236 558 236 539 252 c 128,-1,104
 520 268 520 268 512 312 c 1,105,106
 512 390 512 390 580 446 c 0,107,108
 636 490 636 490 722 490 c 0,109,110
 834 490 834 490 896 410 c 0,111,112
 946 342 946 342 946 256 c 0,113,114
 946 138 946 138 862 68 c 128,-1,115
 778 -2 778 -2 656 -2 c 0,116,117
 502 -2 502 -2 408 110 c 128,-1,118
 314 222 314 222 314 396 c 0,119,120
 314 616 314 616 466 738 c 0,121,122
 594 838 594 838 748 838 c 2,123,-1
 1174 838 l 1,124,-1
 1154 908 l 1,125,-1
 1148 978 l 1,126,127
 1148 1118 1148 1118 1254 1212 c 0,128,129
 1368 1314 1368 1314 1550 1314 c 0,130,131
 1796 1314 1796 1314 1952 1224 c 0,132,133
 2158 1106 2158 1106 2158 858 c 2,134,-1
 2158 80 l 1,0,1
EndSplineSet
Ligature2: "'psts' Post Base Substitutions lookup 8 subtable" tm_nya tm_ikaar
EndChar

StartChar: tm_tt_ikaar
Encoding: 65548 -1 125
Width: 1410
GlyphClass: 2
Flags: W
LayerCount: 2
Fore
SplineSet
1290 0 m 2,0,-1
 1108 0 l 1,1,-1
 1108 -394 l 1,2,3
 1102 -436 1102 -436 1080 -452 c 0,4,5
 1042 -480 1042 -480 968 -480 c 0,6,7
 878 -480 878 -480 836 -438 c 0,8,9
 826 -428 826 -428 814 -394 c 1,10,-1
 814 0 l 1,11,-1
 80 0 l 1,12,-1
 80 758 l 1,13,-1
 104 798 l 1,14,15
 146 840 146 840 228 840 c 0,16,17
 314 840 314 840 352 800 c 0,18,19
 362 790 362 790 372 758 c 1,20,-1
 372 100 l 1,21,-1
 530 100 l 1,22,23
 518 118 518 118 506 176 c 1,24,-1
 496 272 l 1,25,26
 496 406 496 406 568 495 c 128,-1,27
 640 584 640 584 764 584 c 0,28,29
 926 584 926 584 1010 494 c 0,30,31
 1108 390 1108 390 1108 158 c 2,32,-1
 1108 100 l 1,33,-1
 1290 100 l 2,34,35
 1338 100 1338 100 1338 50 c 256,36,37
 1338 0 1338 0 1290 0 c 2,0,-1
814 100 m 1,38,-1
 814 222 l 2,39,40
 814 350 814 350 798 396 c 0,41,42
 776 464 776 464 714 464 c 0,43,44
 662 464 662 464 631 406 c 128,-1,45
 600 348 600 348 600 276 c 0,46,47
 600 250 600 250 602 222 c 128,-1,48
 604 194 604 194 612 155 c 128,-1,49
 620 116 620 116 634 100 c 1,50,-1
 814 100 l 1,38,-1
EndSplineSet
Ligature2: "'psts' Post Base Substitutions lookup 8 subtable" tm_tta tm_ikaar
EndChar

StartChar: tm_nn_ikaar
Encoding: 65549 -1 126
Width: 2760
GlyphClass: 2
Flags: W
LayerCount: 2
Fore
SplineSet
2726 80 m 1,0,-1
 2726 52 l 1,1,2
 2708 -12 2708 -12 2580 -12 c 0,3,4
 2490 -12 2490 -12 2452 34 c 0,5,6
 2440 46 2440 46 2432 80 c 1,7,-1
 2432 922 l 2,8,9
 2432 1048 2432 1048 2408 1108 c 0,10,11
 2368 1204 2368 1204 2250 1204 c 0,12,13
 2174 1204 2174 1204 2114 1138 c 0,14,15
 2060 1074 2060 1074 2060 982 c 0,16,17
 2060 924 2060 924 2070 889 c 128,-1,18
 2080 854 2080 854 2096 838 c 1,19,-1
 2266 838 l 2,20,21
 2318 838 2318 838 2318 786 c 0,22,23
 2318 760 2318 760 2302 750 c 0,24,25
 2290 738 2290 738 2262 738 c 2,26,-1
 2150 738 l 1,27,-1
 2150 80 l 1,28,29
 2146 62 2146 62 2140 52 c 0,30,31
 2104 -12 2104 -12 2014 -12 c 0,32,33
 1930 -12 1930 -12 1886 34 c 0,34,35
 1876 44 1876 44 1858 80 c 1,36,-1
 1858 738 l 1,37,-1
 1740 738 l 2,38,39
 1670 738 1670 738 1624 722 c 0,40,41
 1608 716 1608 716 1588 710 c 128,-1,42
 1568 704 1568 704 1544 688 c 1,43,44
 1592 660 1592 660 1650 562 c 0,45,46
 1716 448 1716 448 1716 334 c 0,47,48
 1716 136 1716 136 1638 52 c 0,49,50
 1584 -6 1584 -6 1494 -6 c 0,51,52
 1398 -6 1398 -6 1338 93 c 128,-1,53
 1278 192 1278 192 1278 324 c 0,54,55
 1278 418 1278 418 1314 523 c 128,-1,56
 1350 628 1350 628 1402 674 c 1,57,58
 1360 700 1360 700 1298 719 c 128,-1,59
 1236 738 1236 738 1182 738 c 0,60,61
 1096 738 1096 738 1038 720 c 0,62,63
 1006 710 1006 710 972 688 c 1,64,65
 1026 652 1026 652 1076 560 c 0,66,67
 1138 442 1138 442 1138 334 c 0,68,69
 1138 142 1138 142 1060 54 c 0,70,71
 1006 -6 1006 -6 918 -6 c 0,72,73
 822 -6 822 -6 761 91 c 128,-1,74
 700 188 700 188 700 324 c 0,75,76
 700 422 700 422 739 524 c 128,-1,77
 778 626 778 626 826 674 c 1,78,79
 782 704 782 704 708 726 c 0,80,81
 676 734 676 734 639 740 c 128,-1,82
 602 746 602 746 566 746 c 0,83,84
 386 746 386 746 277 636 c 128,-1,85
 168 526 168 526 168 366 c 0,86,87
 168 274 168 274 200 204 c 0,88,89
 252 90 252 90 372 90 c 0,90,91
 430 90 430 90 468 137 c 128,-1,92
 506 184 506 184 506 248 c 0,93,94
 506 300 506 300 475 339 c 128,-1,95
 444 378 444 378 392 378 c 0,96,97
 350 378 350 378 324 352 c 128,-1,98
 298 326 298 326 298 286 c 1,99,-1
 304 254 l 1,100,101
 288 242 288 242 262 271 c 128,-1,102
 236 300 236 300 236 338 c 0,103,104
 236 360 236 360 244 382 c 0,105,106
 262 422 262 422 300 452 c 1,107,108
 340 478 340 478 390 478 c 0,109,110
 488 478 488 478 547 410 c 128,-1,111
 606 342 606 342 606 248 c 0,112,113
 606 138 606 138 545 68 c 128,-1,114
 484 -2 484 -2 370 -2 c 0,115,116
 248 -2 248 -2 164 90 c 0,117,118
 74 192 74 192 74 370 c 0,119,120
 74 562 74 562 210 700 c 128,-1,121
 346 838 346 838 578 838 c 0,122,123
 686 838 686 838 764 810 c 0,124,125
 834 788 834 788 890 746 c 1,126,127
 928 778 928 778 988 804 c 0,128,129
 1074 838 1074 838 1176 838 c 0,130,131
 1230 838 1230 838 1273 832 c 128,-1,132
 1316 826 1316 826 1368 808 c 128,-1,133
 1420 790 1420 790 1470 750 c 1,134,135
 1494 772 1494 772 1541 793 c 128,-1,136
 1588 814 1588 814 1616 820 c 128,-1,137
 1644 826 1644 826 1670 830 c 128,-1,138
 1696 834 1696 834 1734 834 c 2,139,-1
 1840 838 l 1,140,-1
 1986 838 l 1,141,-1
 1966 896 l 1,142,143
 1958 936 1958 936 1957 954 c 128,-1,144
 1956 972 1956 972 1956 982 c 0,145,146
 1956 1114 1956 1114 2045 1214 c 128,-1,147
 2134 1314 2134 1314 2266 1314 c 0,148,149
 2480 1314 2480 1314 2592 1220 c 0,150,151
 2726 1108 2726 1108 2726 858 c 2,152,-1
 2726 80 l 1,0,-1
1612 328 m 0,153,154
 1612 406 1612 406 1569 491 c 128,-1,155
 1526 576 1526 576 1472 618 c 1,156,157
 1450 596 1450 596 1414 512 c 0,158,159
 1394 460 1394 460 1384 417 c 128,-1,160
 1374 374 1374 374 1374 328 c 0,161,162
 1374 244 1374 244 1400 174 c 0,163,164
 1434 88 1434 88 1490 88 c 0,165,166
 1556 88 1556 88 1588 170 c 0,167,168
 1612 234 1612 234 1612 328 c 0,153,154
1032 340 m 0,169,170
 1032 406 1032 406 992 491 c 128,-1,171
 952 576 952 576 898 618 c 1,172,173
 872 600 872 600 834 506 c 128,-1,174
 796 412 796 412 796 328 c 0,175,176
 796 248 796 248 826 168 c 128,-1,177
 856 88 856 88 914 88 c 0,178,179
 968 88 968 88 1000 147 c 128,-1,180
 1032 206 1032 206 1032 340 c 0,169,170
EndSplineSet
Ligature2: "'psts' Post Base Substitutions lookup 8 subtable" tm_nna tm_ikaar
EndChar

StartChar: tm_t_ikaar
Encoding: 65550 -1 127
Width: 1680
GlyphClass: 2
Flags: W
LayerCount: 2
Fore
SplineSet
1646 80 m 1,0,1
 1640 42 1640 42 1616 24 c 0,2,3
 1578 -4 1578 -4 1504 -4 c 0,4,5
 1402 -4 1402 -4 1366 38 c 0,6,7
 1358 48 1358 48 1352 80 c 1,8,-1
 1352 922 l 2,9,10
 1352 1040 1352 1040 1288 1116 c 0,11,12
 1216 1204 1216 1204 1076 1204 c 0,13,14
 974 1204 974 1204 897 1138 c 128,-1,15
 820 1072 820 1072 820 982 c 0,16,17
 820 936 820 936 829 895 c 128,-1,18
 838 854 838 854 850 838 c 1,19,-1
 1042 838 l 2,20,21
 1070 838 1070 838 1085 828 c 128,-1,22
 1100 818 1100 818 1102 786 c 0,23,24
 1102 760 1102 760 1087 751 c 128,-1,25
 1072 742 1072 742 1040 738 c 1,26,-1
 902 738 l 1,27,-1
 902 508 l 1,28,-1
 956 508 l 2,29,30
 1096 508 1096 508 1168 382 c 0,31,32
 1220 288 1220 288 1220 146 c 0,33,34
 1220 -50 1220 -50 1098 -158 c 1,35,36
 988 -250 988 -250 820 -250 c 2,37,-1
 278 -250 l 2,38,39
 234 -250 234 -250 204 -262 c 0,40,41
 182 -274 182 -274 170 -326 c 0,42,43
 164 -356 164 -356 178 -384 c 128,-1,44
 192 -412 192 -412 228 -427 c 128,-1,45
 264 -442 264 -442 264 -478 c 1,46,-1
 258 -498 l 1,47,48
 244 -524 244 -524 212 -524 c 0,49,50
 178 -524 178 -524 141 -495 c 128,-1,51
 104 -466 104 -466 86 -426 c 1,52,53
 72 -384 72 -384 72 -336 c 0,54,55
 72 -252 72 -252 129 -201 c 128,-1,56
 186 -150 186 -150 288 -150 c 2,57,-1
 796 -150 l 2,58,59
 970 -150 970 -150 1048 -46 c 0,60,61
 1104 28 1104 28 1104 144 c 0,62,63
 1104 290 1104 290 1054 354 c 0,64,65
 1014 406 1014 406 940 406 c 2,66,-1
 902 406 l 1,67,-1
 902 278 l 2,68,69
 902 164 902 164 826 100 c 0,70,71
 708 0 708 0 416 0 c 0,72,73
 276 0 276 0 182 70 c 0,74,75
 78 150 78 150 78 290 c 0,76,77
 78 402 78 402 158 458 c 0,78,79
 186 478 186 478 212 488 c 128,-1,80
 238 498 238 498 268 498 c 1,81,-1
 268 838 l 1,82,-1
 742 838 l 1,83,84
 732 858 732 858 722 898 c 1,85,-1
 716 982 l 1,86,87
 716 1114 716 1114 830 1214 c 128,-1,88
 944 1314 944 1314 1102 1314 c 0,89,90
 1334 1314 1334 1314 1472 1224 c 0,91,92
 1646 1110 1646 1110 1646 858 c 2,93,-1
 1646 80 l 1,0,1
630 508 m 1,94,-1
 630 738 l 1,95,-1
 368 738 l 1,96,-1
 368 508 l 1,97,-1
 630 508 l 1,94,-1
630 272 m 2,98,-1
 630 406 l 1,99,-1
 324 406 l 2,100,101
 278 406 278 406 238 388 c 0,102,103
 178 358 178 358 178 284 c 0,104,105
 178 174 178 174 274 122 c 0,106,107
 338 88 338 88 416 88 c 0,108,109
 538 88 538 88 592 150 c 0,110,111
 630 198 630 198 630 272 c 2,98,-1
EndSplineSet
Ligature2: "'psts' Post Base Substitutions lookup 8 subtable" tm_ta tm_ikaar
EndChar

StartChar: tm_n_ikaar
Encoding: 65551 -1 128
Width: 1500
GlyphClass: 2
Flags: W
LayerCount: 2
Fore
SplineSet
1480 80 m 1,0,1
 1474 42 1474 42 1450 24 c 0,2,3
 1412 -4 1412 -4 1338 -4 c 0,4,5
 1236 -4 1236 -4 1200 38 c 0,6,7
 1192 48 1192 48 1186 80 c 1,8,-1
 1186 922 l 2,9,10
 1186 1040 1186 1040 1122 1116 c 0,11,12
 1050 1204 1050 1204 910 1204 c 0,13,14
 806 1204 806 1204 730 1140 c 128,-1,15
 654 1076 654 1076 654 982 c 0,16,17
 654 890 654 890 680 838 c 1,18,-1
 860 838 l 2,19,20
 890 838 890 838 904 829 c 128,-1,21
 918 820 918 820 922 786 c 0,22,23
 922 758 922 758 904 746 c 1,24,-1
 860 738 l 1,25,-1
 722 738 l 1,26,-1
 722 508 l 1,27,-1
 776 508 l 2,28,29
 916 508 916 508 988 382 c 0,30,31
 1040 288 1040 288 1040 146 c 0,32,33
 1040 -50 1040 -50 918 -158 c 1,34,35
 808 -250 808 -250 640 -250 c 2,36,-1
 278 -250 l 2,37,38
 234 -250 234 -250 204 -262 c 0,39,40
 182 -274 182 -274 170 -326 c 0,41,42
 164 -356 164 -356 178 -384 c 128,-1,43
 192 -412 192 -412 228 -427 c 128,-1,44
 264 -442 264 -442 264 -478 c 1,45,-1
 258 -498 l 1,46,47
 244 -524 244 -524 212 -524 c 0,48,49
 178 -524 178 -524 141 -495 c 128,-1,50
 104 -466 104 -466 86 -426 c 1,51,52
 72 -384 72 -384 72 -336 c 0,53,54
 72 -252 72 -252 129 -201 c 128,-1,55
 186 -150 186 -150 288 -150 c 2,56,-1
 616 -150 l 2,57,58
 790 -150 790 -150 868 -46 c 0,59,60
 924 28 924 28 924 144 c 0,61,62
 924 290 924 290 874 354 c 0,63,64
 834 406 834 406 760 406 c 2,65,-1
 722 406 l 1,66,-1
 722 78 l 1,67,68
 716 52 716 52 706 40 c 0,69,70
 672 0 672 0 592 0 c 0,71,72
 528 0 528 0 488 24 c 0,73,74
 468 36 468 36 450 80 c 1,75,-1
 450 738 l 1,76,-1
 208 738 l 1,77,-1
 208 68 l 1,78,-1
 208 34 l 1,79,80
 202 0 202 0 160 0 c 0,81,82
 122 0 122 0 110 34 c 1,83,-1
 108 68 l 1,84,-1
 108 838 l 1,85,-1
 574 838 l 1,86,87
 564 856 564 856 554 894 c 1,88,-1
 550 982 l 1,89,90
 550 1120 550 1120 661 1217 c 128,-1,91
 772 1314 772 1314 936 1314 c 0,92,93
 1168 1314 1168 1314 1306 1224 c 0,94,95
 1480 1110 1480 1110 1480 858 c 2,96,-1
 1480 80 l 1,0,1
EndSplineSet
Ligature2: "'psts' Post Base Substitutions lookup 8 subtable" tm_na tm_ikaar
EndChar

StartChar: tm_nnn_ikaar
Encoding: 65552 -1 129
Width: 2260
GlyphClass: 2
Flags: W
LayerCount: 2
Fore
SplineSet
2204 80 m 1,0,1
 2198 42 2198 42 2174 24 c 0,2,3
 2136 -4 2136 -4 2062 -4 c 0,4,5
 1960 -4 1960 -4 1924 38 c 0,6,7
 1916 48 1916 48 1910 80 c 1,8,-1
 1910 922 l 2,9,10
 1910 1046 1910 1046 1864 1116 c 0,11,12
 1806 1204 1806 1204 1674 1204 c 0,13,14
 1578 1204 1578 1204 1514 1138 c 0,15,16
 1456 1074 1456 1074 1456 978 c 0,17,18
 1456 930 1456 930 1460 900 c 128,-1,19
 1464 870 1464 870 1478 838 c 1,20,-1
 1678 838 l 2,21,22
 1730 838 1730 838 1730 786 c 0,23,24
 1730 760 1730 760 1714 750 c 0,25,26
 1702 738 1702 738 1674 738 c 2,27,-1
 1562 738 l 1,28,-1
 1562 80 l 1,29,30
 1558 62 1558 62 1552 52 c 0,31,32
 1516 -12 1516 -12 1426 -12 c 0,33,34
 1342 -12 1342 -12 1298 34 c 0,35,36
 1288 44 1288 44 1270 80 c 1,37,-1
 1270 738 l 1,38,-1
 1152 738 l 2,39,40
 1082 738 1082 738 1036 722 c 0,41,42
 1020 716 1020 716 1000 710 c 128,-1,43
 980 704 980 704 956 688 c 1,44,45
 1002 666 1002 666 1065 559 c 128,-1,46
 1128 452 1128 452 1128 334 c 0,47,48
 1128 136 1128 136 1050 52 c 0,49,50
 996 -6 996 -6 908 -6 c 0,51,52
 812 -6 812 -6 751 91 c 128,-1,53
 690 188 690 188 690 324 c 0,54,55
 690 418 690 418 726 523 c 128,-1,56
 762 628 762 628 814 674 c 1,57,58
 770 704 770 704 696 726 c 0,59,60
 666 734 666 734 629 740 c 128,-1,61
 592 746 592 746 556 746 c 0,62,63
 380 746 380 746 264 630 c 0,64,65
 158 520 158 520 158 364 c 0,66,67
 158 230 158 230 211 160 c 128,-1,68
 264 90 264 90 362 90 c 0,69,70
 420 90 420 90 458 137 c 128,-1,71
 496 184 496 184 496 248 c 0,72,73
 496 300 496 300 465 339 c 128,-1,74
 434 378 434 378 382 378 c 0,75,76
 340 378 340 378 314 352 c 128,-1,77
 288 326 288 326 288 286 c 1,78,-1
 294 254 l 1,79,80
 278 242 278 242 252 271 c 128,-1,81
 226 300 226 300 226 338 c 0,82,83
 226 360 226 360 234 382 c 0,84,85
 252 422 252 422 290 452 c 1,86,87
 330 478 330 478 380 478 c 0,88,89
 478 478 478 478 537 410 c 128,-1,90
 596 342 596 342 596 248 c 0,91,92
 596 138 596 138 535 68 c 128,-1,93
 474 -2 474 -2 360 -2 c 0,94,95
 238 -2 238 -2 154 90 c 0,96,97
 64 192 64 192 64 370 c 0,98,99
 64 572 64 572 196 702 c 0,100,101
 336 838 336 838 568 838 c 0,102,103
 622 838 622 838 665 832 c 128,-1,104
 708 826 708 826 761 807 c 128,-1,105
 814 788 814 788 874 746 c 1,106,107
 936 798 936 798 1036 822 c 0,108,109
 1046 824 1046 824 1079 829 c 128,-1,110
 1112 834 1112 834 1146 834 c 2,111,-1
 1252 838 l 1,112,-1
 1372 838 l 1,113,-1
 1358 904 l 1,114,-1
 1352 978 l 1,115,116
 1352 1124 1352 1124 1446 1219 c 128,-1,117
 1540 1314 1540 1314 1700 1314 c 0,118,119
 1924 1314 1924 1314 2050 1224 c 0,120,121
 2204 1112 2204 1112 2204 858 c 2,122,-1
 2204 80 l 1,0,1
1022 340 m 0,123,124
 1022 410 1022 410 977 499 c 128,-1,125
 932 588 932 588 884 618 c 1,126,127
 862 596 862 596 826 512 c 0,128,129
 806 460 806 460 796 417 c 128,-1,130
 786 374 786 374 786 328 c 0,131,132
 786 248 786 248 816 168 c 128,-1,133
 846 88 846 88 904 88 c 0,134,135
 958 88 958 88 990 147 c 128,-1,136
 1022 206 1022 206 1022 340 c 0,123,124
EndSplineSet
Ligature2: "'psts' Post Base Substitutions lookup 8 subtable" tm_nnna tm_ikaar
EndChar

StartChar: tm_p_ikaar
Encoding: 65553 -1 130
Width: 1320
GlyphClass: 2
Flags: W
LayerCount: 2
Fore
SplineSet
1290 80 m 1,0,1
 1284 42 1284 42 1260 24 c 0,2,3
 1222 -4 1222 -4 1148 -4 c 0,4,5
 1046 -4 1046 -4 1010 38 c 0,6,7
 1002 48 1002 48 996 80 c 1,8,-1
 996 916 l 2,9,10
 996 1030 996 1030 930 1112 c 0,11,12
 854 1204 854 1204 714 1204 c 0,13,14
 602 1204 602 1204 517 1107 c 128,-1,15
 432 1010 432 1010 432 874 c 0,16,17
 432 728 432 728 476 652 c 0,18,19
 502 606 502 606 546 588 c 1,20,-1
 546 758 l 1,21,22
 552 784 552 784 566 798 c 0,23,24
 606 840 606 840 692 840 c 0,25,26
 780 840 780 840 818 800 c 0,27,28
 828 790 828 790 838 758 c 1,29,-1
 838 0 l 1,30,-1
 80 0 l 1,31,-1
 80 764 l 2,32,33
 80 792 80 792 84 802 c 0,34,35
 96 840 96 840 132 840 c 0,36,37
 164 840 164 840 176 802 c 1,38,-1
 180 764 l 1,39,-1
 180 100 l 1,40,-1
 546 100 l 1,41,-1
 546 488 l 1,42,43
 454 508 454 508 396 616 c 128,-1,44
 338 724 338 724 338 880 c 0,45,46
 338 1046 338 1046 446 1176 c 0,47,48
 564 1314 564 1314 748 1314 c 0,49,50
 980 1314 980 1314 1118 1224 c 0,51,52
 1290 1110 1290 1110 1290 858 c 2,53,-1
 1290 80 l 1,0,1
EndSplineSet
Ligature2: "'psts' Post Base Substitutions lookup 8 subtable" tm_pa tm_ikaar
EndChar

StartChar: tm_m_ikaar
Encoding: 65554 -1 131
Width: 1490
GlyphClass: 2
Flags: W
LayerCount: 2
Fore
SplineSet
1460 84 m 1,0,1
 1454 70 1454 70 1445 55 c 128,-1,2
 1436 40 1436 40 1432 36 c 0,3,4
 1390 -12 1390 -12 1330 -12 c 0,5,6
 1260 -12 1260 -12 1214 36 c 1,7,-1
 1186 84 l 1,8,-1
 1186 910 l 2,9,10
 1186 1030 1186 1030 1136 1110 c 0,11,12
 1072 1210 1072 1210 940 1210 c 0,13,14
 836 1210 836 1210 766 1143 c 128,-1,15
 696 1076 696 1076 696 976 c 0,16,17
 696 928 696 928 704 894 c 128,-1,18
 712 860 712 860 728 838 c 1,19,20
 892 820 892 820 970 682 c 0,21,22
 1034 566 1034 566 1034 370 c 0,23,24
 1034 182 1034 182 943 91 c 128,-1,25
 852 0 852 0 684 0 c 2,26,-1
 80 0 l 1,27,-1
 80 758 l 1,28,-1
 82 802 l 1,29,30
 92 846 92 846 130 846 c 0,31,32
 170 846 170 846 180 786 c 1,33,-1
 180 758 l 1,34,-1
 180 96 l 1,35,-1
 412 96 l 1,36,-1
 412 530 l 2,37,38
 412 668 412 668 473 747 c 128,-1,39
 534 826 534 826 628 838 c 1,40,41
 616 854 616 854 608 896 c 1,42,-1
 600 982 l 1,43,44
 600 1124 600 1124 705 1219 c 128,-1,45
 810 1314 810 1314 968 1314 c 0,46,47
 1184 1314 1184 1314 1312 1216 c 0,48,49
 1460 1102 1460 1102 1460 854 c 2,50,-1
 1460 84 l 1,0,1
784 380 m 0,51,52
 784 544 784 544 766 616 c 0,53,54
 736 738 736 738 644 738 c 0,55,56
 578 738 578 738 545 691 c 128,-1,57
 512 644 512 644 512 572 c 2,58,-1
 512 96 l 1,59,60
 630 96 630 96 684 130 c 0,61,62
 784 190 784 190 784 380 c 0,51,52
EndSplineSet
Ligature2: "'psts' Post Base Substitutions lookup 8 subtable" tm_ma tm_ikaar
EndChar

StartChar: tm_y_ikaar
Encoding: 65555 -1 132
Width: 1730
GlyphClass: 2
Flags: W
LayerCount: 2
Fore
SplineSet
1700 80 m 1,0,1
 1694 42 1694 42 1670 24 c 0,2,3
 1632 -4 1632 -4 1558 -4 c 0,4,5
 1456 -4 1456 -4 1420 38 c 0,6,7
 1412 48 1412 48 1406 80 c 1,8,-1
 1406 916 l 2,9,10
 1406 1030 1406 1030 1340 1112 c 0,11,12
 1264 1204 1264 1204 1124 1204 c 0,13,14
 1012 1204 1012 1204 927 1107 c 128,-1,15
 842 1010 842 1010 842 874 c 0,16,17
 842 728 842 728 886 652 c 0,18,19
 912 606 912 606 956 588 c 1,20,-1
 956 758 l 1,21,22
 962 784 962 784 976 798 c 0,23,24
 1016 840 1016 840 1102 840 c 0,25,26
 1190 840 1190 840 1228 800 c 0,27,28
 1238 790 1238 790 1248 758 c 1,29,-1
 1248 0 l 1,30,-1
 486 0 l 1,31,-1
 486 152 l 1,32,33
 480 104 480 104 434 58 c 0,34,35
 374 -2 374 -2 286 -2 c 0,36,37
 174 -2 174 -2 122 92 c 0,38,39
 80 168 80 168 80 294 c 2,40,-1
 80 758 l 2,41,42
 80 792 80 792 87 819 c 128,-1,43
 94 846 94 846 130 846 c 0,44,45
 160 846 160 846 176 804 c 1,46,-1
 180 760 l 1,47,-1
 180 310 l 1,48,-1
 180 278 l 2,49,50
 180 200 180 200 196 160 c 0,51,52
 220 92 220 92 290 92 c 0,53,54
 394 92 394 92 450 216 c 0,55,56
 486 300 486 300 486 372 c 2,57,-1
 486 758 l 2,58,59
 486 792 486 792 490 802 c 0,60,61
 502 848 502 848 536 848 c 0,62,63
 572 848 572 848 584 804 c 1,64,-1
 586 758 l 1,65,-1
 586 100 l 1,66,-1
 956 100 l 1,67,-1
 956 488 l 1,68,69
 864 508 864 508 806 616 c 128,-1,70
 748 724 748 724 748 880 c 0,71,72
 748 1046 748 1046 856 1176 c 0,73,74
 974 1314 974 1314 1158 1314 c 0,75,76
 1390 1314 1390 1314 1528 1224 c 0,77,78
 1700 1110 1700 1110 1700 858 c 2,79,-1
 1700 80 l 1,0,1
EndSplineSet
Ligature2: "'psts' Post Base Substitutions lookup 8 subtable" tm_ya tm_ikaar
EndChar

StartChar: tm_r_ikaar
Encoding: 65556 -1 133
Width: 1460
GlyphClass: 2
Flags: W
LayerCount: 2
Fore
SplineSet
784 18 m 1,0,1
 704 6 704 6 656 -20 c 0,2,3
 580 -58 580 -58 490 -140 c 0,4,5
 450 -180 450 -180 408 -240 c 1,6,-1
 380 -288 l 1,7,-1
 368 -302 l 1,8,9
 354 -312 354 -312 332 -316 c 0,10,11
 320 -316 320 -316 300 -305 c 128,-1,12
 280 -294 280 -294 280 -266 c 1,13,-1
 284 -240 l 1,14,-1
 294 -218 l 1,15,-1
 308 -196 l 1,16,-1
 370 -116 l 1,17,-1
 440 -44 l 1,18,-1
 492 2 l 1,19,-1
 492 738 l 1,20,-1
 180 738 l 1,21,-1
 180 74 l 1,22,-1
 178 36 l 1,23,24
 168 -4 168 -4 130 -4 c 0,25,26
 96 -4 96 -4 84 34 c 1,27,-1
 80 74 l 1,28,-1
 80 838 l 1,29,-1
 590 838 l 1,30,31
 580 858 580 858 574 896 c 1,32,-1
 570 978 l 1,33,34
 570 1118 570 1118 670 1216 c 128,-1,35
 770 1314 770 1314 928 1314 c 0,36,37
 1152 1314 1152 1314 1278 1224 c 0,38,39
 1432 1112 1432 1112 1432 858 c 2,40,-1
 1432 80 l 1,41,42
 1426 42 1426 42 1402 24 c 0,43,44
 1364 -4 1364 -4 1290 -4 c 0,45,46
 1188 -4 1188 -4 1152 38 c 0,47,48
 1144 48 1144 48 1138 80 c 1,49,-1
 1138 922 l 2,50,51
 1138 1046 1138 1046 1092 1116 c 0,52,53
 1034 1204 1034 1204 902 1204 c 0,54,55
 802 1204 802 1204 736 1138 c 0,56,57
 674 1072 674 1072 674 978 c 0,58,59
 674 892 674 892 698 838 c 1,60,-1
 942 838 l 2,61,62
 970 838 970 838 987 828 c 128,-1,63
 1004 818 1004 818 1004 788 c 0,64,65
 1004 762 1004 762 988 748 c 0,66,67
 976 742 976 742 942 738 c 1,68,-1
 784 738 l 1,69,-1
 784 18 l 1,0,1
EndSplineSet
Ligature2: "'psts' Post Base Substitutions lookup 8 subtable" tm_ra tm_ikaar
EndChar

StartChar: tm_rr_ikaar
Encoding: 65557 -1 134
Width: 1540
GlyphClass: 2
Flags: W
LayerCount: 2
Fore
SplineSet
1490 84 m 1,0,1
 1484 70 1484 70 1475 55 c 128,-1,2
 1466 40 1466 40 1462 36 c 0,3,4
 1420 -12 1420 -12 1360 -12 c 0,5,6
 1290 -12 1290 -12 1244 36 c 1,7,-1
 1216 84 l 1,8,-1
 1216 910 l 2,9,10
 1216 1028 1216 1028 1158 1110 c 0,11,12
 1088 1210 1088 1210 956 1210 c 0,13,14
 854 1210 854 1210 785 1146 c 128,-1,15
 716 1082 716 1082 716 982 c 0,16,17
 716 930 716 930 727 894 c 128,-1,18
 738 858 738 858 756 840 c 1,19,20
 932 816 932 816 1002 668 c 0,21,22
 1060 548 1060 548 1060 330 c 0,23,24
 1060 -10 1060 -10 900 -144 c 0,25,26
 772 -250 772 -250 508 -250 c 2,27,-1
 262 -250 l 2,28,29
 218 -250 218 -250 188 -262 c 0,30,31
 166 -274 166 -274 154 -326 c 0,32,33
 148 -356 148 -356 162 -384 c 128,-1,34
 176 -412 176 -412 212 -427 c 128,-1,35
 248 -442 248 -442 248 -478 c 1,36,-1
 242 -498 l 1,37,38
 228 -524 228 -524 196 -524 c 0,39,40
 162 -524 162 -524 125 -495 c 128,-1,41
 88 -466 88 -466 70 -426 c 1,42,43
 56 -384 56 -384 56 -336 c 0,44,45
 56 -252 56 -252 113 -201 c 128,-1,46
 170 -150 170 -150 272 -150 c 2,47,-1
 512 -150 l 2,48,49
 670 -150 670 -150 732 -50 c 128,-1,50
 794 50 794 50 794 336 c 2,51,-1
 794 416 l 2,52,53
 794 558 794 558 772 630 c 0,54,55
 738 746 738 746 646 746 c 0,56,57
 592 746 592 746 555 709 c 128,-1,58
 518 672 518 672 518 596 c 2,59,-1
 518 50 l 2,60,61
 518 30 518 30 514 22 c 0,62,63
 502 -6 502 -6 468 -6 c 0,64,65
 438 -6 438 -6 424 22 c 1,66,-1
 418 50 l 1,67,-1
 418 600 l 2,68,69
 418 686 418 686 378 720 c 0,70,71
 348 746 348 746 306 746 c 0,72,73
 252 746 252 746 222 718 c 0,74,75
 180 682 180 682 180 604 c 2,76,-1
 180 44 l 1,77,-1
 172 18 l 1,78,79
 160 -6 160 -6 128 -8 c 0,80,81
 98 -8 98 -8 86 18 c 1,82,-1
 80 46 l 1,83,-1
 80 612 l 2,84,85
 80 694 80 694 124 758 c 0,86,87
 154 800 154 800 196 822 c 128,-1,88
 238 844 238 844 296 844 c 0,89,90
 368 844 368 844 419 809 c 128,-1,91
 470 774 470 774 470 726 c 1,92,93
 476 776 476 776 532 811 c 128,-1,94
 588 846 588 846 652 846 c 1,95,96
 636 868 636 868 626 906 c 1,97,-1
 620 982 l 1,98,99
 620 1124 620 1124 725 1219 c 128,-1,100
 830 1314 830 1314 988 1314 c 0,101,102
 1208 1314 1208 1314 1336 1216 c 0,103,104
 1490 1098 1490 1098 1490 854 c 2,105,-1
 1490 84 l 1,0,1
EndSplineSet
Ligature2: "'psts' Post Base Substitutions lookup 8 subtable" tm_rra tm_ikaar
EndChar

StartChar: tm_l_ikaar
Encoding: 65558 -1 135
Width: 1900
GlyphClass: 2
Flags: W
LayerCount: 2
Fore
SplineSet
1860 84 m 1,0,1
 1854 70 1854 70 1845 55 c 128,-1,2
 1836 40 1836 40 1832 36 c 0,3,4
 1790 -12 1790 -12 1730 -12 c 0,5,6
 1660 -12 1660 -12 1614 36 c 1,7,-1
 1586 84 l 1,8,-1
 1586 910 l 2,9,10
 1586 1030 1586 1030 1512 1116 c 0,11,12
 1430 1210 1430 1210 1292 1210 c 0,13,14
 1188 1210 1188 1210 1117 1140 c 128,-1,15
 1046 1070 1046 1070 1046 972 c 0,16,17
 1046 930 1046 930 1058 890 c 128,-1,18
 1070 850 1070 850 1084 838 c 1,19,20
 1158 838 1158 838 1194 828 c 0,21,22
 1436 764 1436 764 1436 430 c 0,23,24
 1436 206 1436 206 1348 106 c 0,25,26
 1254 -4 1254 -4 1032 -4 c 0,27,28
 912 -4 912 -4 846 68 c 128,-1,29
 780 140 780 140 780 252 c 2,30,-1
 780 488 l 2,31,32
 780 598 780 598 693 670 c 128,-1,33
 606 742 606 742 476 742 c 0,34,35
 418 742 418 742 368 720 c 128,-1,36
 318 698 318 698 267 650 c 128,-1,37
 216 602 216 602 190 539 c 128,-1,38
 164 476 164 476 164 392 c 0,39,40
 164 282 164 282 212 198 c 0,41,42
 272 92 272 92 392 92 c 0,43,44
 482 92 482 92 526 144 c 0,45,46
 560 188 560 188 560 256 c 0,47,48
 560 312 560 312 532 352 c 0,49,50
 498 400 498 400 440 400 c 0,51,52
 334 400 334 400 334 246 c 1,53,54
 320 236 320 236 308 236 c 0,55,56
 286 236 286 236 267 252 c 128,-1,57
 248 268 248 268 240 312 c 1,58,59
 240 368 240 368 284 420 c 0,60,61
 344 490 344 490 450 490 c 0,62,63
 552 490 552 490 614 414 c 0,64,65
 666 346 666 346 666 258 c 0,66,67
 666 134 666 134 593 64 c 128,-1,68
 520 -6 520 -6 400 -6 c 0,69,70
 250 -6 250 -6 156 109 c 128,-1,71
 62 224 62 224 62 400 c 0,72,73
 62 594 62 594 204 724 c 0,74,75
 332 842 332 842 492 842 c 0,76,77
 656 842 656 842 768 746 c 128,-1,78
 880 650 880 650 880 484 c 2,79,-1
 880 266 l 2,80,81
 880 184 880 184 916 136 c 0,82,83
 952 94 952 94 1018 94 c 0,84,85
 1112 94 1112 94 1154 198 c 0,86,87
 1182 276 1182 276 1182 430 c 0,88,89
 1182 558 1182 558 1150 642 c 0,90,91
 1108 756 1108 756 1014 756 c 1,92,93
 988 794 988 794 970 856 c 0,94,95
 962 888 962 888 958 914 c 128,-1,96
 954 940 954 940 954 972 c 0,97,98
 954 1128 954 1128 1070 1221 c 128,-1,99
 1186 1314 1186 1314 1348 1314 c 0,100,101
 1572 1314 1572 1314 1702 1216 c 0,102,103
 1860 1098 1860 1098 1860 854 c 2,104,-1
 1860 84 l 1,0,1
EndSplineSet
Ligature2: "'psts' Post Base Substitutions lookup 8 subtable" tm_la tm_ikaar
EndChar

StartChar: tm_ll_ikaar
Encoding: 65559 -1 136
Width: 2250
GlyphClass: 2
Flags: W
LayerCount: 2
Fore
SplineSet
2212 80 m 1,0,1
 2206 42 2206 42 2182 24 c 0,2,3
 2144 -4 2144 -4 2070 -4 c 0,4,5
 1968 -4 1968 -4 1932 38 c 0,6,7
 1924 48 1924 48 1918 80 c 1,8,-1
 1918 922 l 2,9,10
 1918 1046 1918 1046 1872 1116 c 0,11,12
 1814 1204 1814 1204 1682 1204 c 0,13,14
 1586 1204 1586 1204 1522 1138 c 0,15,16
 1464 1074 1464 1074 1464 978 c 0,17,18
 1464 892 1464 892 1490 838 c 1,19,-1
 1708 838 l 2,20,21
 1760 838 1760 838 1760 790 c 0,22,23
 1760 738 1760 738 1710 738 c 2,24,-1
 1576 738 l 1,25,-1
 1576 80 l 1,26,27
 1564 44 1564 44 1542 28 c 0,28,29
 1502 0 1502 0 1440 0 c 0,30,31
 1364 0 1364 0 1316 40 c 1,32,-1
 1284 80 l 1,33,-1
 1284 738 l 1,34,-1
 972 738 l 1,35,-1
 972 60 l 2,36,37
 972 32 972 32 960 14 c 0,38,39
 950 4 950 4 922 0 c 0,40,41
 896 0 896 0 882 16 c 1,42,43
 876 30 876 30 872 60 c 1,44,-1
 872 430 l 2,45,46
 872 524 872 524 794 618 c 0,47,48
 690 740 690 740 512 740 c 0,49,50
 382 740 382 740 286 650 c 1,51,52
 182 546 182 546 182 374 c 0,53,54
 182 272 182 272 236 194 c 0,55,56
 302 100 302 100 422 100 c 0,57,58
 518 100 518 100 566 148 c 0,59,60
 604 190 604 190 604 256 c 0,61,62
 604 308 604 308 573 348 c 128,-1,63
 542 388 542 388 488 388 c 0,64,65
 432 388 432 388 398 354 c 128,-1,66
 364 320 364 320 364 246 c 1,67,68
 350 236 350 236 340 236 c 0,69,70
 320 236 320 236 301 252 c 128,-1,71
 282 268 282 268 274 312 c 1,72,73
 274 392 274 392 342 448 c 0,74,75
 398 492 398 492 484 492 c 0,76,77
 596 492 596 492 658 410 c 0,78,79
 708 342 708 342 708 256 c 0,80,81
 708 138 708 138 624 68 c 128,-1,82
 540 -2 540 -2 418 -2 c 0,83,84
 268 -2 268 -2 171 107 c 128,-1,85
 74 216 74 216 74 386 c 0,86,87
 74 590 74 590 207 717 c 128,-1,88
 340 844 340 844 518 844 c 0,89,90
 660 844 660 844 766 778 c 0,91,92
 844 728 844 728 872 658 c 1,93,-1
 872 838 l 1,94,-1
 1382 838 l 1,95,-1
 1366 900 l 1,96,-1
 1360 978 l 1,97,98
 1360 1124 1360 1124 1454 1219 c 128,-1,99
 1548 1314 1548 1314 1708 1314 c 0,100,101
 1932 1314 1932 1314 2058 1224 c 0,102,103
 2212 1112 2212 1112 2212 858 c 2,104,-1
 2212 80 l 1,0,1
EndSplineSet
Ligature2: "'psts' Post Base Substitutions lookup 8 subtable" tm_lla tm_ikaar
EndChar

StartChar: tm_lll_ikaar
Encoding: 65560 -1 137
Width: 1510
GlyphClass: 2
Flags: W
LayerCount: 2
Fore
SplineSet
1460 84 m 1,0,1
 1454 70 1454 70 1445 55 c 128,-1,2
 1436 40 1436 40 1432 36 c 0,3,4
 1390 -12 1390 -12 1330 -12 c 0,5,6
 1260 -12 1260 -12 1214 36 c 1,7,-1
 1186 84 l 1,8,-1
 1186 910 l 2,9,10
 1186 1030 1186 1030 1136 1110 c 0,11,12
 1072 1210 1072 1210 940 1210 c 0,13,14
 836 1210 836 1210 766 1143 c 128,-1,15
 696 1076 696 1076 696 976 c 0,16,17
 696 928 696 928 704 894 c 128,-1,18
 712 860 712 860 728 838 c 1,19,20
 892 820 892 820 970 682 c 0,21,22
 1034 566 1034 566 1034 370 c 0,23,24
 1034 184 1034 184 944 92 c 128,-1,25
 854 0 854 0 688 0 c 2,26,-1
 522 0 l 1,27,28
 522 -18 522 -18 531 -41 c 128,-1,29
 540 -64 540 -64 552 -72 c 0,30,31
 598 -114 598 -114 653 -132 c 128,-1,32
 708 -150 708 -150 806 -150 c 2,33,-1
 936 -150 l 2,34,35
 960 -150 960 -150 972 -159 c 128,-1,36
 984 -168 984 -168 988 -198 c 1,37,38
 988 -250 988 -250 938 -250 c 2,39,-1
 830 -250 l 2,40,41
 748 -250 748 -250 726 -256 c 0,42,43
 676 -272 676 -272 676 -328 c 0,44,45
 676 -394 676 -394 626 -438 c 0,46,47
 550 -504 550 -504 376 -504 c 0,48,49
 248 -504 248 -504 168 -460 c 0,50,51
 76 -408 76 -408 76 -298 c 0,52,53
 76 -208 76 -208 133 -159 c 128,-1,54
 190 -110 190 -110 266 -110 c 1,55,-1
 288 -112 l 2,56,57
 370 -122 370 -122 410 -152 c 0,58,59
 440 -176 440 -176 440 -206 c 0,60,61
 440 -218 440 -218 431 -226 c 128,-1,62
 422 -234 422 -234 402 -238 c 1,63,64
 382 -232 382 -232 372 -228 c 2,65,-1
 334 -210 l 1,66,-1
 288 -198 l 2,67,68
 250 -192 250 -192 205 -217 c 128,-1,69
 160 -242 160 -242 160 -296 c 0,70,71
 160 -364 160 -364 226 -398 c 0,72,73
 250 -408 250 -408 291 -416 c 128,-1,74
 332 -424 332 -424 376 -424 c 0,75,76
 474 -424 474 -424 520 -404 c 0,77,78
 584 -380 584 -380 584 -318 c 0,79,80
 584 -272 584 -272 608 -240 c 128,-1,81
 632 -208 632 -208 670 -208 c 1,82,83
 608 -208 608 -208 558 -181 c 128,-1,84
 508 -154 508 -154 466 -106 c 1,85,-1
 434 -56 l 1,86,-1
 414 0 l 1,87,-1
 80 0 l 1,88,-1
 80 758 l 1,89,-1
 82 802 l 1,90,91
 92 846 92 846 130 846 c 0,92,93
 170 846 170 846 180 786 c 1,94,-1
 180 758 l 1,95,-1
 180 96 l 1,96,-1
 412 96 l 1,97,-1
 412 530 l 2,98,99
 412 668 412 668 473 747 c 128,-1,100
 534 826 534 826 628 838 c 1,101,102
 616 854 616 854 608 896 c 1,103,-1
 600 982 l 1,104,105
 600 1124 600 1124 705 1219 c 128,-1,106
 810 1314 810 1314 968 1314 c 0,107,108
 1184 1314 1184 1314 1312 1216 c 0,109,110
 1460 1102 1460 1102 1460 854 c 2,111,-1
 1460 84 l 1,0,1
784 380 m 0,112,113
 784 544 784 544 766 616 c 0,114,115
 736 738 736 738 644 738 c 0,116,117
 578 738 578 738 545 691 c 128,-1,118
 512 644 512 644 512 572 c 2,119,-1
 512 96 l 1,120,121
 630 96 630 96 684 130 c 0,122,123
 784 190 784 190 784 380 c 0,112,113
EndSplineSet
Ligature2: "'psts' Post Base Substitutions lookup 8 subtable" tm_llla tm_ikaar
EndChar

StartChar: tm_v_ikaar
Encoding: 65561 -1 138
Width: 1970
GlyphClass: 2
Flags: W
LayerCount: 2
Fore
SplineSet
1930 80 m 1,0,1
 1924 42 1924 42 1900 24 c 0,2,3
 1862 -4 1862 -4 1788 -4 c 0,4,5
 1686 -4 1686 -4 1650 38 c 0,6,7
 1642 48 1642 48 1636 80 c 1,8,-1
 1636 916 l 2,9,10
 1636 1030 1636 1030 1570 1112 c 0,11,12
 1494 1204 1494 1204 1354 1204 c 0,13,14
 1242 1204 1242 1204 1157 1107 c 128,-1,15
 1072 1010 1072 1010 1072 874 c 0,16,17
 1072 728 1072 728 1116 652 c 0,18,19
 1142 606 1142 606 1186 588 c 1,20,-1
 1186 758 l 1,21,22
 1192 784 1192 784 1206 798 c 0,23,24
 1246 840 1246 840 1332 840 c 0,25,26
 1420 840 1420 840 1458 800 c 0,27,28
 1468 790 1468 790 1478 758 c 1,29,-1
 1478 0 l 1,30,-1
 778 0 l 1,31,-1
 758 8 l 1,32,33
 742 20 742 20 738 50 c 1,34,35
 738 100 738 100 780 100 c 1,36,37
 814 106 814 106 844 132 c 1,38,-1
 862 162 l 2,39,40
 868 176 868 176 872 210 c 1,41,-1
 872 388 l 2,42,43
 872 558 872 558 781 648 c 128,-1,44
 690 738 690 738 530 738 c 0,45,46
 372 738 372 738 277 646 c 128,-1,47
 182 554 182 554 182 394 c 0,48,49
 182 286 182 286 236 202 c 0,50,51
 302 96 302 96 422 96 c 0,52,53
 518 96 518 96 566 146 c 0,54,55
 604 188 604 188 604 254 c 0,56,57
 604 308 604 308 573 348 c 128,-1,58
 542 388 542 388 488 388 c 0,59,60
 432 388 432 388 398 354 c 128,-1,61
 364 320 364 320 364 246 c 1,62,63
 350 236 350 236 340 236 c 0,64,65
 320 236 320 236 301 252 c 128,-1,66
 282 268 282 268 274 312 c 1,67,68
 274 390 274 390 342 446 c 0,69,70
 398 490 398 490 484 490 c 0,71,72
 596 490 596 490 658 410 c 0,73,74
 708 342 708 342 708 256 c 0,75,76
 708 134 708 134 627 64 c 128,-1,77
 546 -6 546 -6 422 -6 c 0,78,79
 270 -6 270 -6 173 107 c 128,-1,80
 76 220 76 220 76 394 c 0,81,82
 76 594 76 594 214 724 c 0,83,84
 342 842 342 842 530 842 c 0,85,86
 730 842 730 842 851 730 c 128,-1,87
 972 618 972 618 972 418 c 2,88,-1
 972 262 l 2,89,90
 972 188 972 188 954 146 c 0,91,92
 946 124 946 124 910 100 c 1,93,-1
 972 100 l 1,94,-1
 1186 100 l 1,95,-1
 1186 488 l 1,96,97
 1094 508 1094 508 1036 616 c 128,-1,98
 978 724 978 724 978 880 c 0,99,100
 978 1044 978 1044 1095 1179 c 128,-1,101
 1212 1314 1212 1314 1392 1314 c 0,102,103
 1624 1314 1624 1314 1760 1224 c 0,104,105
 1930 1108 1930 1108 1930 858 c 2,106,-1
 1930 80 l 1,0,1
EndSplineSet
Ligature2: "'psts' Post Base Substitutions lookup 8 subtable" tm_va tm_ikaar
EndChar

StartChar: tm_ss_ikaar
Encoding: 65562 -1 139
Width: 2680
GlyphClass: 2
Flags: W
LayerCount: 2
Fore
SplineSet
2640 84 m 1,0,1
 2634 70 2634 70 2625 55 c 128,-1,2
 2616 40 2616 40 2612 36 c 0,3,4
 2570 -12 2570 -12 2510 -12 c 0,5,6
 2440 -12 2440 -12 2394 36 c 1,7,-1
 2366 84 l 1,8,-1
 2366 878 l 2,9,10
 2366 1070 2366 1070 2230 1150 c 0,11,12
 2128 1210 2128 1210 1924 1210 c 0,13,14
 1778 1210 1778 1210 1664 1130 c 128,-1,15
 1550 1050 1550 1050 1550 936 c 0,16,17
 1550 888 1550 888 1554 871 c 128,-1,18
 1558 854 1558 854 1576 824 c 1,19,20
 1660 800 1660 800 1708 752 c 0,21,22
 1766 690 1766 690 1766 590 c 2,23,-1
 1766 382 l 1,24,-1
 1838 400 l 2,25,26
 1864 408 1864 408 1882 417 c 128,-1,27
 1900 426 1900 426 1908 430 c 0,28,29
 1960 454 1960 454 1996 482 c 0,30,31
 2048 518 2048 518 2056 548 c 1,32,33
 2056 568 2056 568 2072 581 c 128,-1,34
 2088 594 2088 594 2108 594 c 0,35,36
 2138 594 2138 594 2150 572 c 1,37,-1
 2158 548 l 1,38,-1
 2158 0 l 1,39,-1
 1766 0 l 1,40,-1
 1766 -276 l 1,41,42
 1754 -310 1754 -310 1730 -328 c 0,43,44
 1686 -356 1686 -356 1620 -356 c 0,45,46
 1538 -356 1538 -356 1498 -316 c 0,47,48
 1484 -302 1484 -302 1474 -276 c 1,49,-1
 1474 0 l 1,50,-1
 778 0 l 1,51,-1
 758 8 l 1,52,53
 742 20 742 20 738 50 c 1,54,55
 738 100 738 100 780 100 c 1,56,57
 814 106 814 106 844 132 c 1,58,-1
 862 162 l 2,59,60
 868 176 868 176 872 210 c 1,61,-1
 872 388 l 2,62,63
 872 558 872 558 781 648 c 128,-1,64
 690 738 690 738 530 738 c 0,65,66
 372 738 372 738 277 646 c 128,-1,67
 182 554 182 554 182 394 c 0,68,69
 182 286 182 286 236 202 c 0,70,71
 302 96 302 96 422 96 c 0,72,73
 518 96 518 96 566 146 c 0,74,75
 604 188 604 188 604 254 c 0,76,77
 604 308 604 308 573 348 c 128,-1,78
 542 388 542 388 488 388 c 0,79,80
 432 388 432 388 398 354 c 128,-1,81
 364 320 364 320 364 246 c 1,82,83
 350 236 350 236 340 236 c 0,84,85
 320 236 320 236 301 252 c 128,-1,86
 282 268 282 268 274 312 c 1,87,88
 274 390 274 390 342 446 c 0,89,90
 398 490 398 490 484 490 c 0,91,92
 596 490 596 490 658 410 c 0,93,94
 708 342 708 342 708 256 c 0,95,96
 708 134 708 134 627 64 c 128,-1,97
 546 -6 546 -6 422 -6 c 0,98,99
 270 -6 270 -6 173 107 c 128,-1,100
 76 220 76 220 76 394 c 0,101,102
 76 594 76 594 214 724 c 0,103,104
 342 842 342 842 530 842 c 0,105,106
 730 842 730 842 851 730 c 128,-1,107
 972 618 972 618 972 418 c 2,108,-1
 972 262 l 2,109,110
 972 188 972 188 954 146 c 0,111,112
 946 124 946 124 910 100 c 1,113,-1
 1474 100 l 1,114,-1
 1474 256 l 1,115,-1
 1446 254 l 2,116,117
 1426 254 1426 254 1414 258 c 1,118,119
 1310 258 1310 258 1230 304 c 0,120,121
 1102 378 1102 378 1102 536 c 0,122,123
 1102 662 1102 662 1182 748 c 0,124,125
 1270 842 1270 842 1420 842 c 1,126,-1
 1470 840 l 1,127,128
 1454 872 1454 872 1454 950 c 0,129,130
 1454 1102 1454 1102 1599 1204 c 128,-1,131
 1744 1306 1744 1306 1940 1306 c 0,132,133
 2334 1306 2334 1306 2502 1174 c 0,134,135
 2640 1062 2640 1062 2640 854 c 2,136,-1
 2640 84 l 1,0,1
1474 348 m 1,137,-1
 1474 588 l 2,138,139
 1474 646 1474 646 1452 684 c 0,140,141
 1424 736 1424 736 1364 736 c 256,142,143
 1304 736 1304 736 1255 681 c 128,-1,144
 1206 626 1206 626 1206 534 c 0,145,146
 1206 440 1206 440 1278 388 c 0,147,148
 1336 348 1336 348 1412 348 c 2,149,-1
 1474 348 l 1,137,-1
2056 100 m 1,150,-1
 2056 400 l 1,151,152
 2042 386 2042 386 1998 364 c 2,153,-1
 1906 322 l 1,154,-1
 1834 296 l 1,155,-1
 1766 284 l 1,156,-1
 1766 100 l 1,157,-1
 2056 100 l 1,150,-1
EndSplineSet
Ligature2: "'psts' Post Base Substitutions lookup 8 subtable" tm_ssa tm_ikaar
EndChar

StartChar: tm_s_ikaar
Encoding: 65563 -1 140
Width: 2440
GlyphClass: 2
Flags: W
LayerCount: 2
Fore
SplineSet
2400 84 m 1,0,1
 2394 70 2394 70 2385 55 c 128,-1,2
 2376 40 2376 40 2372 36 c 0,3,4
 2330 -12 2330 -12 2270 -12 c 0,5,6
 2200 -12 2200 -12 2154 36 c 1,7,-1
 2126 84 l 1,8,-1
 2126 910 l 2,9,10
 2126 1030 2126 1030 2052 1116 c 0,11,12
 1970 1210 1970 1210 1832 1210 c 0,13,14
 1728 1210 1728 1210 1657 1140 c 128,-1,15
 1586 1070 1586 1070 1586 972 c 0,16,17
 1586 930 1586 930 1598 890 c 128,-1,18
 1610 850 1610 850 1624 838 c 1,19,20
 1698 838 1698 838 1734 828 c 0,21,22
 1976 764 1976 764 1976 430 c 0,23,24
 1976 206 1976 206 1888 106 c 0,25,26
 1794 -4 1794 -4 1572 -4 c 0,27,28
 1452 -4 1452 -4 1386 68 c 128,-1,29
 1320 140 1320 140 1320 252 c 2,30,-1
 1320 502 l 2,31,32
 1320 630 1320 630 1272 684 c 128,-1,33
 1224 738 1224 738 1142 738 c 0,34,35
 1056 738 1056 738 1008 678 c 0,36,37
 972 630 972 630 972 560 c 2,38,-1
 972 58 l 2,39,40
 972 0 972 0 922 0 c 0,41,42
 896 0 896 0 882 16 c 1,43,44
 876 30 876 30 872 60 c 1,45,-1
 872 430 l 2,46,47
 872 524 872 524 794 618 c 0,48,49
 690 740 690 740 512 740 c 0,50,51
 374 740 374 740 284 652 c 0,52,53
 178 552 178 552 178 378 c 0,54,55
 178 276 178 276 234 194 c 0,56,57
 302 96 302 96 422 96 c 0,58,59
 518 96 518 96 566 146 c 0,60,61
 604 190 604 190 604 256 c 0,62,63
 604 308 604 308 573 348 c 128,-1,64
 542 388 542 388 488 388 c 0,65,66
 432 388 432 388 398 354 c 128,-1,67
 364 320 364 320 364 246 c 1,68,69
 350 236 350 236 340 236 c 0,70,71
 320 236 320 236 301 252 c 128,-1,72
 282 268 282 268 274 312 c 1,73,74
 274 392 274 392 342 448 c 0,75,76
 398 492 398 492 484 492 c 0,77,78
 596 492 596 492 658 410 c 0,79,80
 708 342 708 342 708 256 c 0,81,82
 708 138 708 138 624 68 c 128,-1,83
 540 -2 540 -2 418 -2 c 0,84,85
 268 -2 268 -2 171 107 c 128,-1,86
 74 216 74 216 74 382 c 0,87,88
 74 584 74 584 207 714 c 128,-1,89
 340 844 340 844 518 844 c 0,90,91
 660 844 660 844 774 772 c 0,92,93
 862 712 862 712 890 640 c 1,94,95
 890 692 890 692 944 758 c 0,96,97
 1016 842 1016 842 1142 842 c 0,98,99
 1286 842 1286 842 1358 746 c 0,100,101
 1420 660 1420 660 1420 504 c 2,102,-1
 1420 266 l 2,103,104
 1420 184 1420 184 1456 136 c 0,105,106
 1492 94 1492 94 1558 94 c 0,107,108
 1652 94 1652 94 1694 198 c 0,109,110
 1722 276 1722 276 1722 430 c 0,111,112
 1722 558 1722 558 1690 642 c 0,113,114
 1648 756 1648 756 1554 756 c 1,115,116
 1528 794 1528 794 1510 856 c 0,117,118
 1502 888 1502 888 1498 914 c 128,-1,119
 1494 940 1494 940 1494 972 c 0,120,121
 1494 1128 1494 1128 1610 1221 c 128,-1,122
 1726 1314 1726 1314 1888 1314 c 0,123,124
 2112 1314 2112 1314 2242 1216 c 0,125,126
 2400 1098 2400 1098 2400 854 c 2,127,-1
 2400 84 l 1,0,1
EndSplineSet
Ligature2: "'psts' Post Base Substitutions lookup 8 subtable" tm_sa tm_ikaar
EndChar

